{"glyphs":{"0":{"ha":872,"x_min":49,"x_max":824,"o":"m 436 -1 q 585 25 515 -1 q 708 108 654 51 q 793 253 763 164 q 824 465 824 342 q 793 673 824 585 q 709 819 763 761 q 585 904 656 876 q 436 932 515 932 q 282 909 353 932 q 159 832 211 886 q 78 688 107 778 q 49 465 49 599 q 79 258 49 346 q 163 112 110 169 q 287 26 217 54 q 436 -1 357 -1 m 435 192 q 328 228 367 192 q 274 328 289 265 q 258 467 258 390 q 274 604 258 543 q 328 701 289 665 q 435 738 367 738 q 543 702 504 738 q 598 607 582 667 q 614 471 614 547 q 598 329 614 393 q 543 228 582 265 q 435 192 504 192 "},"1":{"ha":478,"x_min":69,"x_max":346,"o":"m 69 921 l 69 726 l 143 726 l 143 0 l 346 0 l 346 921 l 69 921 "},"2":{"ha":810,"x_min":49,"x_max":740,"o":"m 75 0 l 740 0 l 740 194 l 399 194 l 490 168 q 579 280 536 225 q 656 391 622 335 q 710 506 690 447 q 729 626 729 564 q 690 776 729 706 q 579 889 650 846 q 413 932 508 932 q 215 888 296 932 q 91 774 133 843 q 49 628 49 704 q 63 544 49 594 q 106 447 78 493 q 175 382 135 401 l 299 494 q 259 555 274 521 q 244 633 244 589 q 253 671 244 653 q 279 704 263 689 q 321 728 296 719 q 378 738 346 738 q 435 728 410 738 q 480 703 461 719 q 509 663 499 686 q 519 610 519 639 q 483 472 519 543 q 383 326 446 401 q 240 169 319 250 q 75 0 161 88 "},"3":{"ha":732,"x_min":56,"x_max":649,"o":"m 633 921 l 132 921 l 132 726 l 422 726 l 364 750 l 201 446 l 206 440 q 248 449 226 446 q 311 453 269 453 q 406 417 372 453 q 440 319 440 381 q 421 244 440 275 q 372 199 401 214 q 313 183 343 183 q 222 208 265 183 q 158 260 179 233 l 56 93 q 175 17 100 46 q 318 -11 250 -11 q 481 26 406 -11 q 602 135 556 64 q 649 307 649 207 q 624 449 649 393 q 560 536 600 504 q 472 581 521 568 q 375 592 424 593 q 345 589 361 592 q 315 581 329 586 l 425 521 l 633 921 "},"4":{"ha":768,"x_min":14,"x_max":713,"o":"m 14 201 l 400 201 l 400 0 l 603 0 l 603 201 l 713 201 l 713 354 l 603 354 l 603 932 l 601 932 l 14 203 l 14 201 m 410 489 l 400 499 l 400 354 l 283 354 l 303 346 l 410 489 "},"5":{"ha":719,"x_min":56,"x_max":650,"o":"m 336 -11 q 495 32 424 -11 q 608 149 567 75 q 650 314 650 222 q 614 468 650 397 q 510 582 578 539 q 346 625 443 625 q 310 624 328 625 q 272 619 292 622 l 296 578 l 296 726 l 582 726 l 582 921 l 122 921 l 122 404 l 124 404 q 215 444 176 432 q 297 456 254 456 q 374 437 342 456 q 424 385 407 418 q 442 307 442 351 q 425 239 442 267 q 381 197 408 211 q 321 183 353 183 q 231 203 278 183 q 160 254 185 224 l 56 93 q 176 19 99 50 q 336 -11 254 -11 "},"6":{"ha":779,"x_min":42,"x_max":738,"o":"m 397 -11 q 561 26 483 -11 q 688 135 639 64 q 738 310 738 207 q 698 465 738 399 q 596 569 658 532 q 467 607 533 607 q 302 558 361 607 q 206 422 243 510 l 256 417 q 289 550 256 478 q 393 690 322 622 q 575 800 464 757 l 440 946 q 286 836 358 897 q 159 705 214 775 q 73 558 104 635 q 42 399 42 481 q 89 175 42 267 q 217 36 136 83 q 397 -11 297 -11 m 389 169 q 318 188 350 169 q 268 236 286 207 q 250 299 250 265 l 250 332 q 269 384 250 360 q 319 423 288 408 q 389 438 350 438 q 459 423 428 438 q 509 380 490 408 q 528 308 528 351 q 510 233 528 264 q 460 185 492 201 q 389 169 429 169 "},"7":{"ha":699,"x_min":56,"x_max":678,"o":"m 678 921 l 56 921 l 56 726 l 460 726 l 394 750 l 110 0 l 335 0 l 678 921 "},"8":{"ha":739,"x_min":21,"x_max":718,"o":"m 21 299 l 21 299 q 65 147 21 218 q 188 33 110 76 q 368 -11 267 -11 q 548 33 469 -11 q 672 147 626 76 q 718 299 718 218 q 692 419 718 369 q 628 501 665 468 q 558 556 592 535 q 615 624 592 589 q 638 728 638 658 q 601 832 638 786 q 503 905 564 878 q 371 932 443 932 q 239 905 299 932 q 144 829 179 878 q 108 718 108 781 q 130 622 108 656 q 182 556 151 588 q 112 503 150 536 q 47 421 74 471 q 21 299 21 371 m 228 307 l 228 307 q 249 384 228 350 q 305 438 271 418 q 378 456 339 457 q 448 433 417 454 q 498 380 479 413 q 517 307 517 347 q 497 233 517 267 q 443 178 476 199 q 369 158 410 158 q 299 178 331 158 q 247 233 267 199 q 228 307 228 267 m 304 693 l 304 693 q 326 742 304 721 q 375 764 349 764 q 423 742 401 764 q 444 693 444 721 q 422 644 444 665 q 375 624 400 624 q 327 644 350 624 q 304 693 304 665 "},"9":{"ha":758,"x_min":42,"x_max":738,"o":"m 313 288 q 478 336 419 288 q 574 472 536 385 l 524 478 q 476 351 524 415 q 344 227 429 286 q 149 122 260 168 l 283 -24 q 446 87 365 28 q 592 218 526 146 q 698 381 658 290 q 738 586 738 472 q 690 763 738 685 q 563 887 643 842 q 382 932 483 932 q 218 892 296 932 q 91 774 140 851 q 42 585 42 696 q 82 430 42 497 q 184 325 122 363 q 313 288 246 288 m 390 457 q 320 473 351 457 q 270 522 289 489 q 251 601 251 554 q 269 683 251 650 q 319 734 288 717 q 390 751 351 751 q 462 731 431 751 q 511 679 493 711 q 529 611 529 647 l 529 579 q 489 494 529 532 q 390 457 449 457 "},"A":{"ha":967,"x_min":17,"x_max":950,"o":"m 17 0 l 215 0 l 568 847 l 422 747 l 717 0 l 950 0 l 489 1063 l 478 1063 l 17 0 m 332 369 l 269 200 l 710 200 l 639 369 l 332 369 "},"Á":{"ha":967,"x_min":17,"x_max":950,"o":"m 17 0 l 215 0 l 568 847 l 422 747 l 717 0 l 950 0 l 489 1063 l 478 1063 l 17 0 m 332 369 l 269 200 l 710 200 l 639 369 l 332 369 m 742 1304 l 526 1304 l 418 1117 l 536 1117 l 742 1304 "},"Ă":{"ha":967,"x_min":17,"x_max":950,"o":"m 17 0 l 215 0 l 568 847 l 422 747 l 717 0 l 950 0 l 489 1063 l 478 1063 l 17 0 m 332 369 l 269 200 l 710 200 l 639 369 l 332 369 m 483 1117 q 594 1144 549 1117 q 670 1228 640 1171 q 715 1376 700 1286 l 586 1376 q 567 1308 578 1338 q 536 1262 556 1278 q 483 1246 517 1246 q 431 1262 451 1246 q 399 1308 411 1278 q 379 1376 388 1338 l 250 1376 q 295 1231 265 1289 q 372 1145 325 1174 q 483 1117 418 1117 "},"Ắ":{"ha":967,"x_min":17,"x_max":950,"o":"m 17 0 l 215 0 l 568 847 l 422 747 l 717 0 l 950 0 l 489 1063 l 478 1063 l 17 0 m 332 369 l 269 200 l 710 200 l 639 369 l 332 369 m 483 1117 q 594 1144 549 1117 q 670 1228 640 1171 q 715 1376 700 1286 l 586 1376 q 567 1308 578 1338 q 536 1262 556 1278 q 483 1246 517 1246 q 431 1262 451 1246 q 399 1308 411 1278 q 379 1376 388 1338 l 250 1376 q 295 1231 265 1289 q 372 1145 325 1174 q 483 1117 418 1117 m 740 1614 l 525 1614 l 417 1426 l 535 1426 l 740 1614 "},"Ặ":{"ha":967,"x_min":17,"x_max":950,"o":"m 17 0 l 215 0 l 568 847 l 422 747 l 717 0 l 950 0 l 489 1063 l 478 1063 l 17 0 m 332 369 l 269 200 l 710 200 l 639 369 l 332 369 m 374 -162 q 408 -233 374 -206 q 481 -260 442 -260 q 552 -233 519 -260 q 585 -162 585 -206 q 552 -92 585 -119 q 481 -64 519 -64 q 408 -92 442 -64 q 374 -162 374 -119 m 483 1117 q 594 1144 549 1117 q 670 1228 640 1171 q 715 1376 700 1286 l 586 1376 q 567 1308 578 1338 q 536 1262 556 1278 q 483 1246 517 1246 q 431 1262 451 1246 q 399 1308 411 1278 q 379 1376 388 1338 l 250 1376 q 295 1231 265 1289 q 372 1145 325 1174 q 483 1117 418 1117 "},"Ằ":{"ha":967,"x_min":17,"x_max":950,"o":"m 17 0 l 215 0 l 568 847 l 422 747 l 717 0 l 950 0 l 489 1063 l 478 1063 l 17 0 m 332 369 l 269 200 l 710 200 l 639 369 l 332 369 m 483 1117 q 594 1144 549 1117 q 670 1228 640 1171 q 715 1376 700 1286 l 586 1376 q 567 1308 578 1338 q 536 1262 556 1278 q 483 1246 517 1246 q 431 1262 451 1246 q 399 1308 411 1278 q 379 1376 388 1338 l 250 1376 q 295 1231 265 1289 q 372 1145 325 1174 q 483 1117 418 1117 m 224 1619 l 407 1432 l 525 1432 l 439 1619 l 224 1619 "},"Ẳ":{"ha":967,"x_min":17,"x_max":950,"o":"m 17 0 l 215 0 l 568 847 l 422 747 l 717 0 l 950 0 l 489 1063 l 478 1063 l 17 0 m 332 369 l 269 200 l 710 200 l 639 369 l 332 369 m 483 1117 q 594 1144 549 1117 q 670 1228 640 1171 q 715 1376 700 1286 l 586 1376 q 567 1308 578 1338 q 536 1262 556 1278 q 483 1246 517 1246 q 431 1262 451 1246 q 399 1308 411 1278 q 379 1376 388 1338 l 250 1376 q 295 1231 265 1289 q 372 1145 325 1174 q 483 1117 418 1117 m 468 1501 l 508 1450 q 593 1513 557 1476 q 629 1603 629 1549 q 617 1659 629 1631 q 579 1706 606 1688 q 508 1725 553 1725 q 424 1701 465 1725 q 358 1625 382 1676 l 428 1583 q 449 1610 435 1599 q 482 1621 464 1621 q 513 1608 504 1621 q 522 1575 522 1594 q 507 1535 522 1551 q 468 1501 492 1518 "},"Ẵ":{"ha":967,"x_min":17,"x_max":950,"o":"m 17 0 l 215 0 l 568 847 l 422 747 l 717 0 l 950 0 l 489 1063 l 478 1063 l 17 0 m 332 369 l 269 200 l 710 200 l 639 369 l 332 369 m 483 1117 q 594 1144 549 1117 q 670 1228 640 1171 q 715 1376 700 1286 l 586 1376 q 567 1308 578 1338 q 536 1262 556 1278 q 483 1246 517 1246 q 431 1262 451 1246 q 399 1308 411 1278 q 379 1376 388 1338 l 250 1376 q 295 1231 265 1289 q 372 1145 325 1174 q 483 1117 418 1117 m 590 1481 q 665 1508 632 1481 q 713 1584 697 1536 q 718 1692 728 1632 l 621 1692 q 617 1627 622 1658 q 586 1596 613 1596 q 553 1608 569 1596 q 517 1638 536 1621 q 465 1676 493 1657 q 403 1696 438 1696 q 313 1665 349 1696 q 262 1586 278 1635 q 253 1483 246 1538 l 350 1483 q 350 1525 347 1504 q 363 1560 353 1546 q 392 1574 374 1574 q 423 1564 408 1574 q 453 1542 438 1554 q 511 1501 479 1521 q 590 1481 543 1481 "},"Â":{"ha":967,"x_min":17,"x_max":950,"o":"m 17 0 l 215 0 l 568 847 l 422 747 l 717 0 l 950 0 l 489 1063 l 478 1063 l 17 0 m 332 369 l 269 200 l 710 200 l 639 369 l 332 369 m 557 1133 l 732 1133 l 469 1389 l 468 1389 l 211 1133 l 386 1133 l 496 1250 l 449 1236 l 557 1133 "},"Ấ":{"ha":967,"x_min":17,"x_max":950,"o":"m 17 0 l 215 0 l 568 847 l 422 747 l 717 0 l 950 0 l 489 1063 l 478 1063 l 17 0 m 332 369 l 269 200 l 710 200 l 639 369 l 332 369 m 575 1150 l 750 1150 l 488 1406 l 486 1406 l 229 1150 l 404 1150 l 514 1267 l 467 1253 l 575 1150 m 932 1486 l 717 1486 l 608 1299 l 726 1299 l 932 1486 "},"Ậ":{"ha":967,"x_min":17,"x_max":950,"o":"m 17 0 l 215 0 l 568 847 l 422 747 l 717 0 l 950 0 l 489 1063 l 478 1063 l 17 0 m 332 369 l 269 200 l 710 200 l 639 369 l 332 369 m 374 -162 q 408 -233 374 -206 q 481 -260 442 -260 q 552 -233 519 -260 q 585 -162 585 -206 q 552 -92 585 -119 q 481 -64 519 -64 q 408 -92 442 -64 q 374 -162 374 -119 m 557 1133 l 732 1133 l 469 1389 l 468 1389 l 211 1133 l 386 1133 l 496 1250 l 449 1236 l 557 1133 "},"Ầ":{"ha":967,"x_min":-10,"x_max":950,"o":"m 17 0 l 215 0 l 568 847 l 422 747 l 717 0 l 950 0 l 489 1063 l 478 1063 l 17 0 m 332 369 l 269 200 l 710 200 l 639 369 l 332 369 m 564 1150 l 739 1150 l 476 1406 l 475 1406 l 218 1150 l 393 1150 l 503 1267 l 456 1253 l 564 1150 m -10 1492 l 174 1304 l 292 1304 l 206 1492 l -10 1492 "},"Ẩ":{"ha":967,"x_min":17,"x_max":950,"o":"m 17 0 l 215 0 l 568 847 l 422 747 l 717 0 l 950 0 l 489 1063 l 478 1063 l 17 0 m 332 369 l 269 200 l 710 200 l 639 369 l 332 369 m 569 1150 l 744 1150 l 482 1406 l 481 1406 l 224 1150 l 399 1150 l 508 1267 l 461 1253 l 569 1150 m 746 1304 l 786 1253 q 871 1315 835 1279 q 907 1406 907 1351 q 895 1462 907 1433 q 857 1509 883 1490 q 786 1528 831 1528 q 701 1503 743 1528 q 636 1428 660 1479 l 706 1386 q 727 1413 713 1401 q 760 1424 742 1424 q 791 1410 782 1424 q 800 1378 800 1397 q 785 1338 800 1354 q 746 1304 769 1321 "},"Ẫ":{"ha":967,"x_min":17,"x_max":950,"o":"m 17 0 l 215 0 l 568 847 l 422 747 l 717 0 l 950 0 l 489 1063 l 478 1063 l 17 0 m 332 369 l 269 200 l 710 200 l 639 369 l 332 369 m 558 1150 l 733 1150 l 471 1406 l 469 1406 l 213 1150 l 388 1150 l 497 1267 l 450 1253 l 558 1150 m 585 1446 q 659 1474 626 1446 q 707 1549 692 1501 q 713 1657 722 1597 l 615 1657 q 612 1592 617 1624 q 581 1561 607 1561 q 547 1574 564 1561 q 511 1603 531 1586 q 460 1642 488 1622 q 397 1661 432 1661 q 308 1631 343 1661 q 256 1551 272 1600 q 247 1449 240 1503 l 344 1449 q 344 1490 342 1469 q 358 1525 347 1511 q 386 1539 368 1539 q 417 1529 403 1539 q 447 1507 432 1519 q 506 1466 474 1486 q 585 1446 538 1446 "},"Ȁ":{"ha":967,"x_min":17,"x_max":950,"o":"m 17 0 l 215 0 l 568 847 l 422 747 l 717 0 l 950 0 l 489 1063 l 478 1063 l 17 0 m 332 369 l 269 200 l 710 200 l 639 369 l 332 369 m 156 1314 l 339 1126 l 457 1126 l 371 1314 l 156 1314 m 392 1314 l 575 1126 l 693 1126 l 607 1314 l 392 1314 "},"Ä":{"ha":967,"x_min":17,"x_max":950,"o":"m 17 0 l 215 0 l 568 847 l 422 747 l 717 0 l 950 0 l 489 1063 l 478 1063 l 17 0 m 332 369 l 269 200 l 710 200 l 639 369 l 332 369 m 236 1214 l 236 1214 q 267 1142 236 1169 q 336 1114 299 1114 q 402 1142 371 1114 q 433 1214 433 1169 q 402 1287 433 1258 q 336 1315 371 1315 q 267 1287 299 1315 q 236 1214 236 1258 m 514 1214 l 514 1214 q 545 1142 514 1169 q 614 1114 576 1114 q 680 1142 649 1114 q 711 1214 711 1169 q 680 1287 711 1258 q 614 1315 649 1315 q 545 1287 576 1315 q 514 1214 514 1258 "},"Ạ":{"ha":967,"x_min":17,"x_max":950,"o":"m 17 0 l 215 0 l 568 847 l 422 747 l 717 0 l 950 0 l 489 1063 l 478 1063 l 17 0 m 332 369 l 269 200 l 710 200 l 639 369 l 332 369 m 374 -162 q 408 -233 374 -206 q 481 -260 442 -260 q 552 -233 519 -260 q 585 -162 585 -206 q 552 -92 585 -119 q 481 -64 519 -64 q 408 -92 442 -64 q 374 -162 374 -119 "},"À":{"ha":967,"x_min":17,"x_max":950,"o":"m 17 0 l 215 0 l 568 847 l 422 747 l 717 0 l 950 0 l 489 1063 l 478 1063 l 17 0 m 332 369 l 269 200 l 710 200 l 639 369 l 332 369 m 225 1310 l 408 1122 l 526 1122 l 440 1310 l 225 1310 "},"Ả":{"ha":967,"x_min":17,"x_max":950,"o":"m 17 0 l 215 0 l 568 847 l 422 747 l 717 0 l 950 0 l 489 1063 l 478 1063 l 17 0 m 332 369 l 269 200 l 710 200 l 639 369 l 332 369 m 469 1192 l 510 1140 q 594 1203 558 1167 q 631 1293 631 1239 q 619 1349 631 1321 q 581 1397 607 1378 q 510 1415 554 1415 q 425 1391 467 1415 q 360 1315 383 1367 l 429 1274 q 451 1300 436 1289 q 483 1311 465 1311 q 515 1298 506 1311 q 524 1265 524 1285 q 508 1225 524 1242 q 469 1192 493 1208 "},"Ȃ":{"ha":967,"x_min":17,"x_max":950,"o":"m 17 0 l 215 0 l 568 847 l 422 747 l 717 0 l 950 0 l 489 1063 l 478 1063 l 17 0 m 332 369 l 269 200 l 710 200 l 639 369 l 332 369 m 475 1339 q 365 1312 411 1339 q 288 1227 318 1285 q 243 1079 258 1169 l 372 1079 q 392 1149 381 1119 q 423 1194 403 1178 q 475 1210 443 1210 q 528 1194 508 1210 q 559 1149 547 1178 q 579 1079 571 1119 l 708 1079 q 663 1224 693 1167 q 587 1310 633 1282 q 475 1339 540 1339 "},"Ā":{"ha":967,"x_min":17,"x_max":950,"o":"m 17 0 l 215 0 l 568 847 l 422 747 l 717 0 l 950 0 l 489 1063 l 478 1063 l 17 0 m 332 369 l 269 200 l 710 200 l 639 369 l 332 369 m 300 1260 l 300 1125 l 654 1125 l 654 1260 l 300 1260 "},"Ą":{"ha":967,"x_min":17,"x_max":1003,"o":"m 17 0 l 215 0 l 568 847 l 422 747 l 717 0 l 950 0 l 489 1063 l 478 1063 l 17 0 m 332 369 l 269 200 l 710 200 l 639 369 l 332 369 m 815 -322 q 918 -293 864 -322 q 1003 -218 972 -264 l 933 -118 q 886 -169 911 -153 q 833 -186 861 -186 q 791 -174 810 -186 q 772 -128 772 -162 q 822 -59 772 -87 q 950 0 871 -31 l 731 14 q 643 -53 674 -8 q 613 -143 613 -97 q 672 -273 613 -224 q 815 -322 731 -322 "},"Å":{"ha":967,"x_min":17,"x_max":950,"o":"m 17 0 l 215 0 l 568 847 l 422 747 l 717 0 l 950 0 l 489 1063 l 478 1063 l 17 0 m 332 369 l 269 200 l 710 200 l 639 369 l 332 369 m 333 1250 q 378 1144 333 1185 q 489 1104 422 1104 q 599 1144 554 1104 q 643 1250 643 1185 q 599 1356 643 1317 q 489 1394 554 1394 q 377 1356 421 1394 q 333 1250 333 1317 m 435 1247 q 449 1291 435 1276 q 489 1306 464 1306 q 528 1291 514 1306 q 543 1247 543 1276 q 528 1206 543 1221 q 489 1190 514 1190 q 449 1206 464 1190 q 435 1247 435 1221 "},"Ǻ":{"ha":967,"x_min":17,"x_max":950,"o":"m 17 0 l 215 0 l 568 847 l 422 747 l 717 0 l 950 0 l 489 1063 l 478 1063 l 17 0 m 332 369 l 269 200 l 710 200 l 639 369 l 332 369 m 333 1250 q 378 1144 333 1185 q 489 1104 422 1104 q 599 1144 554 1104 q 643 1250 643 1185 q 599 1356 643 1317 q 489 1394 554 1394 q 377 1356 421 1394 q 333 1250 333 1317 m 435 1247 q 449 1291 435 1276 q 489 1306 464 1306 q 528 1291 514 1306 q 543 1247 543 1276 q 528 1206 543 1221 q 489 1190 514 1190 q 449 1206 464 1190 q 435 1247 435 1221 m 742 1635 l 526 1635 l 418 1447 l 536 1447 l 742 1635 "},"Ã":{"ha":967,"x_min":17,"x_max":950,"o":"m 17 0 l 215 0 l 568 847 l 422 747 l 717 0 l 950 0 l 489 1063 l 478 1063 l 17 0 m 332 369 l 269 200 l 710 200 l 639 369 l 332 369 m 592 1171 q 666 1199 633 1171 q 714 1274 699 1226 q 719 1382 729 1322 l 622 1382 q 619 1317 624 1349 q 588 1286 614 1286 q 554 1299 571 1286 q 518 1328 538 1311 q 467 1367 494 1347 q 404 1386 439 1386 q 315 1356 350 1386 q 263 1276 279 1325 q 254 1174 247 1228 l 351 1174 q 351 1215 349 1194 q 365 1250 354 1236 q 393 1264 375 1264 q 424 1254 410 1264 q 454 1232 439 1244 q 513 1191 481 1211 q 592 1171 544 1171 "},"Æ":{"ha":1343,"x_min":7,"x_max":1267,"o":"m 675 1022 l 675 0 l 1267 0 l 1267 194 l 876 194 l 876 413 l 1190 413 l 1190 607 l 876 607 l 876 828 l 1247 828 l 1247 1022 l 675 1022 m 696 785 l 675 1022 l 7 0 l 240 0 l 681 728 q 687 749 681 728 q 696 785 693 769 m 378 383 l 315 224 l 699 224 l 699 383 l 378 383 "},"Ǽ":{"ha":1343,"x_min":7,"x_max":1267,"o":"m 675 1022 l 675 0 l 1267 0 l 1267 194 l 876 194 l 876 413 l 1190 413 l 1190 607 l 876 607 l 876 828 l 1247 828 l 1247 1022 l 675 1022 m 696 785 l 675 1022 l 7 0 l 240 0 l 681 728 q 687 749 681 728 q 696 785 693 769 m 378 383 l 315 224 l 699 224 l 699 383 l 378 383 m 1193 1276 l 978 1276 l 869 1089 l 988 1089 l 1193 1276 "},"B":{"ha":899,"x_min":132,"x_max":829,"o":"m 432 1022 l 132 1022 l 132 0 l 472 0 q 604 16 540 0 q 719 67 668 32 q 799 160 769 103 q 829 301 829 218 q 772 456 829 392 q 617 556 715 521 q 393 590 519 590 l 425 482 q 608 513 528 482 q 734 608 688 544 q 781 765 781 671 q 686 958 781 893 q 432 1022 592 1022 m 456 604 l 333 604 l 333 828 l 442 828 q 537 801 501 828 q 572 722 572 775 q 544 640 572 676 q 456 604 515 604 m 463 188 l 333 188 l 333 410 l 449 410 q 531 401 492 410 q 596 369 571 392 q 621 301 621 346 q 600 237 621 263 q 543 199 579 211 q 463 188 507 188 "},"C":{"ha":968,"x_min":69,"x_max":899,"o":"m 899 85 l 815 265 q 726 210 785 236 q 586 183 668 183 q 459 207 515 183 q 363 274 403 231 q 301 379 322 318 q 279 514 279 440 q 303 642 279 583 q 367 746 326 701 q 462 815 408 790 q 574 839 515 839 q 706 810 649 839 q 799 756 764 782 l 878 946 q 749 1006 828 978 q 567 1033 669 1033 q 364 994 456 1033 q 206 885 272 956 q 105 717 140 814 q 69 503 69 619 q 104 307 69 399 q 205 144 139 215 q 366 33 271 74 q 582 -11 461 -8 q 726 6 661 -12 q 837 47 792 24 q 899 85 882 71 "},"Ć":{"ha":968,"x_min":69,"x_max":899,"o":"m 899 85 l 815 265 q 726 210 785 236 q 586 183 668 183 q 459 207 515 183 q 363 274 403 231 q 301 379 322 318 q 279 514 279 440 q 303 642 279 583 q 367 746 326 701 q 462 815 408 790 q 574 839 515 839 q 706 810 649 839 q 799 756 764 782 l 878 946 q 749 1006 828 978 q 567 1033 669 1033 q 364 994 456 1033 q 206 885 272 956 q 105 717 140 814 q 69 503 69 619 q 104 307 69 399 q 205 144 139 215 q 366 33 271 74 q 582 -11 461 -8 q 726 6 661 -12 q 837 47 792 24 q 899 85 882 71 m 799 1276 l 583 1276 l 475 1089 l 593 1089 l 799 1276 "},"Č":{"ha":968,"x_min":69,"x_max":899,"o":"m 899 85 l 815 265 q 726 210 785 236 q 586 183 668 183 q 459 207 515 183 q 363 274 403 231 q 301 379 322 318 q 279 514 279 440 q 303 642 279 583 q 367 746 326 701 q 462 815 408 790 q 574 839 515 839 q 706 810 649 839 q 799 756 764 782 l 878 946 q 749 1006 828 978 q 567 1033 669 1033 q 364 994 456 1033 q 206 885 272 956 q 105 717 140 814 q 69 503 69 619 q 104 307 69 399 q 205 144 139 215 q 366 33 271 74 q 582 -11 461 -8 q 726 6 661 -12 q 837 47 792 24 q 899 85 882 71 m 451 1329 l 276 1329 l 539 1074 l 540 1074 l 797 1329 l 622 1329 l 513 1213 l 560 1226 l 451 1329 "},"Ç":{"ha":968,"x_min":69,"x_max":899,"o":"m 899 85 l 815 265 q 726 210 785 236 q 586 183 668 183 q 459 207 515 183 q 363 274 403 231 q 301 379 322 318 q 279 514 279 440 q 303 642 279 583 q 367 746 326 701 q 462 815 408 790 q 574 839 515 839 q 706 810 649 839 q 799 756 764 782 l 878 946 q 749 1006 828 978 q 567 1033 669 1033 q 364 994 456 1033 q 206 885 272 956 q 105 717 140 814 q 69 503 69 619 q 104 307 69 399 q 205 144 139 215 q 366 33 271 74 q 582 -11 461 -8 q 726 6 661 -12 q 837 47 792 24 q 899 85 882 71 m 440 -189 l 381 -265 q 443 -309 404 -290 q 543 -328 482 -328 q 648 -311 599 -328 q 728 -260 697 -294 q 760 -174 760 -226 q 706 -76 760 -108 q 575 -47 653 -44 q 547 -50 561 -49 q 517 -54 532 -51 l 553 -103 l 660 17 l 511 17 l 415 -54 l 442 -146 q 482 -135 461 -140 q 525 -131 503 -131 q 585 -146 571 -131 q 599 -176 599 -161 q 573 -214 599 -201 q 524 -226 547 -226 q 476 -216 497 -226 q 440 -189 454 -206 "},"Ĉ":{"ha":968,"x_min":69,"x_max":899,"o":"m 899 85 l 815 265 q 726 210 785 236 q 586 183 668 183 q 459 207 515 183 q 363 274 403 231 q 301 379 322 318 q 279 514 279 440 q 303 642 279 583 q 367 746 326 701 q 462 815 408 790 q 574 839 515 839 q 706 810 649 839 q 799 756 764 782 l 878 946 q 749 1006 828 978 q 567 1033 669 1033 q 364 994 456 1033 q 206 885 272 956 q 105 717 140 814 q 69 503 69 619 q 104 307 69 399 q 205 144 139 215 q 366 33 271 74 q 582 -11 461 -8 q 726 6 661 -12 q 837 47 792 24 q 899 85 882 71 m 614 1106 l 789 1106 l 526 1361 l 525 1361 l 268 1106 l 443 1106 l 553 1222 l 506 1208 l 614 1106 "},"Ċ":{"ha":968,"x_min":69,"x_max":899,"o":"m 899 85 l 815 265 q 726 210 785 236 q 586 183 668 183 q 459 207 515 183 q 363 274 403 231 q 301 379 322 318 q 279 514 279 440 q 303 642 279 583 q 367 746 326 701 q 462 815 408 790 q 574 839 515 839 q 706 810 649 839 q 799 756 764 782 l 878 946 q 749 1006 828 978 q 567 1033 669 1033 q 364 994 456 1033 q 206 885 272 956 q 105 717 140 814 q 69 503 69 619 q 104 307 69 399 q 205 144 139 215 q 366 33 271 74 q 582 -11 461 -8 q 726 6 661 -12 q 837 47 792 24 q 899 85 882 71 m 435 1182 q 469 1112 435 1139 q 542 1085 503 1085 q 613 1112 581 1085 q 646 1182 646 1139 q 613 1253 646 1225 q 542 1281 581 1281 q 469 1253 503 1281 q 435 1182 435 1225 "},"D":{"ha":1071,"x_min":132,"x_max":1001,"o":"m 132 0 l 488 0 q 685 34 592 0 q 849 133 778 68 q 960 288 919 197 q 1001 493 1001 379 q 971 683 1001 589 q 874 854 940 778 q 700 976 808 931 q 438 1022 592 1022 l 132 1022 l 132 0 m 333 194 l 333 829 l 497 829 q 582 816 532 829 q 680 768 632 803 q 760 670 728 733 q 793 507 793 607 q 769 372 793 431 q 699 274 744 313 q 592 215 654 235 q 453 194 529 194 l 333 194 "},"Ǆ":{"ha":1942,"x_min":132,"x_max":1872,"o":"m 132 0 l 488 0 q 685 34 592 0 q 849 133 778 68 q 960 288 919 197 q 1001 493 1001 379 q 971 683 1001 589 q 874 854 940 778 q 700 976 808 931 q 438 1022 592 1022 l 132 1022 l 132 0 m 333 194 l 333 829 l 497 829 q 582 816 532 829 q 680 768 632 803 q 760 670 728 733 q 793 507 793 607 q 769 372 793 431 q 699 274 744 313 q 592 215 654 235 q 453 194 529 194 l 333 194 m 1001 0 l 1871 0 l 1871 194 l 1322 194 l 1333 172 l 1872 1022 l 1304 1022 q 1269 1023 1279 1022 q 1260 1054 1260 1024 l 1260 1074 l 1075 1074 l 1075 928 q 1097 877 1075 900 q 1149 841 1118 854 q 1210 828 1181 828 l 1578 828 l 1556 883 q 1532 846 1556 883 q 1469 746 1508 808 q 1380 604 1429 683 q 1278 442 1331 525 q 1177 279 1226 358 q 1088 138 1128 200 q 1025 38 1049 75 q 1001 0 1001 0 m 1351 1301 l 1176 1301 l 1439 1046 l 1440 1046 l 1697 1301 l 1522 1301 l 1413 1185 l 1460 1199 l 1351 1301 "},"Ð":{"ha":1071,"x_min":28,"x_max":1001,"o":"m 132 0 l 488 0 q 685 34 592 0 q 849 133 778 68 q 960 288 919 197 q 1001 493 1001 379 q 971 683 1001 589 q 874 854 940 778 q 700 976 808 931 q 438 1022 592 1022 l 132 1022 l 132 0 m 333 194 l 333 829 l 497 829 q 582 816 532 829 q 680 768 632 803 q 760 670 728 733 q 793 507 793 607 q 769 372 793 431 q 699 274 744 313 q 592 215 654 235 q 453 194 529 194 l 333 194 m 28 596 l 28 415 l 465 415 l 465 596 l 28 596 "},"Ď":{"ha":1071,"x_min":132,"x_max":1001,"o":"m 132 0 l 488 0 q 685 34 592 0 q 849 133 778 68 q 960 288 919 197 q 1001 493 1001 379 q 971 683 1001 589 q 874 854 940 778 q 700 976 808 931 q 438 1022 592 1022 l 132 1022 l 132 0 m 333 194 l 333 829 l 497 829 q 582 816 532 829 q 680 768 632 803 q 760 670 728 733 q 793 507 793 607 q 769 372 793 431 q 699 274 744 313 q 592 215 654 235 q 453 194 529 194 l 333 194 m 353 1301 l 178 1301 l 440 1046 l 442 1046 l 699 1301 l 524 1301 l 414 1185 l 461 1199 l 353 1301 "},"Đ":{"ha":1090,"x_min":47,"x_max":1021,"o":"m 151 0 l 507 0 q 704 34 611 0 q 868 133 797 68 q 980 288 939 197 q 1021 493 1021 379 q 990 683 1021 589 q 894 854 960 778 q 719 976 828 931 q 457 1022 611 1022 l 151 1022 l 151 0 m 353 194 l 353 829 l 517 829 q 601 816 551 829 q 699 768 651 803 q 780 670 747 733 q 813 507 813 607 q 788 372 813 431 q 719 274 764 313 q 611 215 674 235 q 472 194 549 194 l 353 194 m 47 596 l 47 415 l 485 415 l 485 596 l 47 596 "},"ǅ":{"ha":1796,"x_min":132,"x_max":1718,"o":"m 132 0 l 488 0 q 685 34 592 0 q 849 133 778 68 q 960 288 919 197 q 1001 493 1001 379 q 971 683 1001 589 q 874 854 940 778 q 700 976 808 931 q 438 1022 592 1022 l 132 1022 l 132 0 m 333 194 l 333 829 l 497 829 q 582 816 532 829 q 680 768 632 803 q 760 670 728 733 q 793 507 793 607 q 769 372 793 431 q 699 274 744 313 q 592 215 654 235 q 453 194 529 194 l 333 194 m 1265 449 l 1474 449 l 1444 504 l 1099 0 l 1714 0 l 1714 158 l 1346 158 l 1382 118 l 1718 607 l 1333 607 q 1297 612 1307 607 q 1286 646 1286 617 l 1286 665 l 1140 665 l 1140 582 q 1178 485 1140 521 q 1265 449 1215 449 m 1363 935 l 1188 935 l 1450 679 l 1451 679 l 1708 935 l 1533 935 l 1424 818 l 1471 832 l 1363 935 "},"E":{"ha":925,"x_min":132,"x_max":849,"o":"m 132 1022 l 132 0 l 849 0 l 849 194 l 333 194 l 333 415 l 772 415 l 772 610 l 333 610 l 333 828 l 829 828 l 829 1022 l 132 1022 "},"É":{"ha":925,"x_min":132,"x_max":849,"o":"m 132 1022 l 132 0 l 849 0 l 849 194 l 333 194 l 333 415 l 772 415 l 772 610 l 333 610 l 333 828 l 829 828 l 829 1022 l 132 1022 m 739 1276 l 524 1276 l 415 1089 l 533 1089 l 739 1276 "},"Ĕ":{"ha":925,"x_min":132,"x_max":849,"o":"m 132 1022 l 132 0 l 849 0 l 849 194 l 333 194 l 333 415 l 772 415 l 772 610 l 333 610 l 333 828 l 829 828 l 829 1022 l 132 1022 m 481 1089 q 592 1116 546 1089 q 667 1201 638 1143 q 713 1349 697 1258 l 583 1349 q 564 1280 575 1310 q 533 1234 553 1250 q 481 1218 514 1218 q 428 1234 449 1218 q 397 1280 408 1250 q 376 1349 385 1310 l 247 1349 q 292 1203 263 1261 q 369 1117 322 1146 q 481 1089 415 1089 "},"Ě":{"ha":925,"x_min":132,"x_max":849,"o":"m 132 1022 l 132 0 l 849 0 l 849 194 l 333 194 l 333 415 l 772 415 l 772 610 l 333 610 l 333 828 l 829 828 l 829 1022 l 132 1022 m 392 1329 l 217 1329 l 479 1074 l 481 1074 l 738 1329 l 563 1329 l 453 1213 l 500 1226 l 392 1329 "},"Ê":{"ha":925,"x_min":132,"x_max":849,"o":"m 132 1022 l 132 0 l 849 0 l 849 194 l 333 194 l 333 415 l 772 415 l 772 610 l 333 610 l 333 828 l 829 828 l 829 1022 l 132 1022 m 554 1106 l 729 1106 l 467 1361 l 465 1361 l 208 1106 l 383 1106 l 493 1222 l 446 1208 l 554 1106 "},"Ế":{"ha":925,"x_min":132,"x_max":929,"o":"m 132 1022 l 132 0 l 849 0 l 849 194 l 333 194 l 333 415 l 772 415 l 772 610 l 333 610 l 333 828 l 829 828 l 829 1022 l 132 1022 m 572 1122 l 747 1122 l 485 1378 l 483 1378 l 226 1122 l 401 1122 l 511 1239 l 464 1225 l 572 1122 m 929 1458 l 714 1458 l 606 1271 l 724 1271 l 929 1458 "},"Ệ":{"ha":925,"x_min":132,"x_max":849,"o":"m 132 1022 l 132 0 l 849 0 l 849 194 l 333 194 l 333 415 l 772 415 l 772 610 l 333 610 l 333 828 l 829 828 l 829 1022 l 132 1022 m 371 -162 q 405 -233 371 -206 q 478 -260 439 -260 q 549 -233 517 -260 q 582 -162 582 -206 q 549 -92 582 -119 q 478 -64 517 -64 q 405 -92 439 -64 q 371 -162 371 -119 m 554 1106 l 729 1106 l 467 1361 l 465 1361 l 208 1106 l 383 1106 l 493 1222 l 446 1208 l 554 1106 "},"Ề":{"ha":925,"x_min":-12,"x_max":849,"o":"m 132 1022 l 132 0 l 849 0 l 849 194 l 333 194 l 333 415 l 772 415 l 772 610 l 333 610 l 333 828 l 829 828 l 829 1022 l 132 1022 m 561 1122 l 736 1122 l 474 1378 l 472 1378 l 215 1122 l 390 1122 l 500 1239 l 453 1225 l 561 1122 m -12 1464 l 171 1276 l 289 1276 l 203 1464 l -12 1464 "},"Ể":{"ha":925,"x_min":132,"x_max":904,"o":"m 132 1022 l 132 0 l 849 0 l 849 194 l 333 194 l 333 415 l 772 415 l 772 610 l 333 610 l 333 828 l 829 828 l 829 1022 l 132 1022 m 567 1122 l 742 1122 l 479 1378 l 478 1378 l 221 1122 l 396 1122 l 506 1239 l 458 1225 l 567 1122 m 743 1276 l 783 1225 q 868 1288 832 1251 q 904 1378 904 1324 q 892 1434 904 1406 q 854 1481 881 1463 q 783 1500 828 1500 q 699 1476 740 1500 q 633 1400 657 1451 l 703 1358 q 724 1385 710 1374 q 757 1396 739 1396 q 788 1383 779 1396 q 797 1350 797 1369 q 782 1310 797 1326 q 743 1276 767 1293 "},"Ễ":{"ha":925,"x_min":132,"x_max":849,"o":"m 132 1022 l 132 0 l 849 0 l 849 194 l 333 194 l 333 415 l 772 415 l 772 610 l 333 610 l 333 828 l 829 828 l 829 1022 l 132 1022 m 556 1122 l 731 1122 l 468 1378 l 467 1378 l 210 1122 l 385 1122 l 494 1239 l 447 1225 l 556 1122 m 582 1418 q 656 1446 624 1418 q 704 1522 689 1474 q 710 1629 719 1569 l 613 1629 q 609 1565 614 1596 q 578 1533 604 1533 q 544 1546 561 1533 q 508 1575 528 1558 q 457 1614 485 1594 q 394 1633 429 1633 q 305 1603 340 1633 q 253 1524 269 1572 q 244 1421 238 1475 l 342 1421 q 342 1463 339 1442 q 355 1497 344 1483 q 383 1511 365 1511 q 415 1501 400 1511 q 444 1479 429 1492 q 503 1438 471 1458 q 582 1418 535 1418 "},"Ȅ":{"ha":925,"x_min":132,"x_max":849,"o":"m 132 1022 l 132 0 l 849 0 l 849 194 l 333 194 l 333 415 l 772 415 l 772 610 l 333 610 l 333 828 l 829 828 l 829 1022 l 132 1022 m 153 1286 l 336 1099 l 454 1099 l 368 1286 l 153 1286 m 389 1286 l 572 1099 l 690 1099 l 604 1286 l 389 1286 "},"Ë":{"ha":925,"x_min":132,"x_max":849,"o":"m 132 1022 l 132 0 l 849 0 l 849 194 l 333 194 l 333 415 l 772 415 l 772 610 l 333 610 l 333 828 l 829 828 l 829 1022 l 132 1022 m 233 1186 l 233 1186 q 265 1114 233 1142 q 333 1086 296 1086 q 399 1114 368 1086 q 431 1186 431 1142 q 399 1259 431 1231 q 333 1288 368 1288 q 265 1259 296 1288 q 233 1186 233 1231 m 511 1186 l 511 1186 q 542 1114 511 1142 q 611 1086 574 1086 q 677 1114 646 1086 q 708 1186 708 1142 q 677 1259 708 1231 q 611 1288 646 1288 q 542 1259 574 1288 q 511 1186 511 1231 "},"Ė":{"ha":925,"x_min":132,"x_max":849,"o":"m 132 1022 l 132 0 l 849 0 l 849 194 l 333 194 l 333 415 l 772 415 l 772 610 l 333 610 l 333 828 l 829 828 l 829 1022 l 132 1022 m 375 1182 q 409 1112 375 1139 q 482 1085 443 1085 q 553 1112 521 1085 q 586 1182 586 1139 q 553 1253 586 1225 q 482 1281 521 1281 q 409 1253 443 1281 q 375 1182 375 1225 "},"Ẹ":{"ha":925,"x_min":132,"x_max":849,"o":"m 132 1022 l 132 0 l 849 0 l 849 194 l 333 194 l 333 415 l 772 415 l 772 610 l 333 610 l 333 828 l 829 828 l 829 1022 l 132 1022 m 371 -162 q 405 -233 371 -206 q 478 -260 439 -260 q 549 -233 517 -260 q 582 -162 582 -206 q 549 -92 582 -119 q 478 -64 517 -64 q 405 -92 439 -64 q 371 -162 371 -119 "},"È":{"ha":925,"x_min":132,"x_max":849,"o":"m 132 1022 l 132 0 l 849 0 l 849 194 l 333 194 l 333 415 l 772 415 l 772 610 l 333 610 l 333 828 l 829 828 l 829 1022 l 132 1022 m 222 1282 l 406 1094 l 524 1094 l 438 1282 l 222 1282 "},"Ẻ":{"ha":925,"x_min":132,"x_max":849,"o":"m 132 1022 l 132 0 l 849 0 l 849 194 l 333 194 l 333 415 l 772 415 l 772 610 l 333 610 l 333 828 l 829 828 l 829 1022 l 132 1022 m 467 1164 l 507 1113 q 592 1175 556 1139 q 628 1265 628 1211 q 616 1322 628 1293 q 578 1369 604 1350 q 507 1388 551 1388 q 422 1363 464 1388 q 357 1288 381 1339 l 426 1246 q 448 1272 433 1261 q 481 1283 463 1283 q 512 1270 503 1283 q 521 1238 521 1257 q 506 1197 521 1214 q 467 1164 490 1181 "},"Ȇ":{"ha":925,"x_min":132,"x_max":849,"o":"m 132 1022 l 132 0 l 849 0 l 849 194 l 333 194 l 333 415 l 772 415 l 772 610 l 333 610 l 333 828 l 829 828 l 829 1022 l 132 1022 m 472 1311 q 362 1284 408 1311 q 285 1199 315 1257 q 240 1051 256 1142 l 369 1051 q 389 1121 378 1092 q 420 1166 400 1150 q 472 1182 440 1182 q 525 1166 506 1182 q 556 1121 544 1150 q 576 1051 568 1092 l 706 1051 q 660 1197 690 1139 q 584 1283 631 1254 q 472 1311 538 1311 "},"Ē":{"ha":925,"x_min":132,"x_max":849,"o":"m 132 1022 l 132 0 l 849 0 l 849 194 l 333 194 l 333 415 l 772 415 l 772 610 l 333 610 l 333 828 l 829 828 l 829 1022 l 132 1022 m 297 1232 l 297 1097 l 651 1097 l 651 1232 l 297 1232 "},"Ę":{"ha":925,"x_min":132,"x_max":901,"o":"m 132 1022 l 132 0 l 849 0 l 849 194 l 333 194 l 333 415 l 772 415 l 772 610 l 333 610 l 333 828 l 829 828 l 829 1022 l 132 1022 m 714 -322 q 817 -293 763 -322 q 901 -218 871 -264 l 832 -118 q 785 -169 810 -153 q 732 -186 760 -186 q 690 -174 708 -186 q 671 -128 671 -162 q 720 -59 671 -87 q 849 0 769 -31 l 629 14 q 542 -53 572 -8 q 511 -143 511 -97 q 570 -273 511 -224 q 714 -322 629 -322 "},"Ẽ":{"ha":925,"x_min":132,"x_max":849,"o":"m 132 1022 l 132 0 l 849 0 l 849 194 l 333 194 l 333 415 l 772 415 l 772 610 l 333 610 l 333 828 l 829 828 l 829 1022 l 132 1022 m 589 1143 q 663 1171 631 1143 q 711 1247 696 1199 q 717 1354 726 1294 l 619 1354 q 616 1290 621 1321 q 585 1258 611 1258 q 551 1271 568 1258 q 515 1300 535 1283 q 464 1339 492 1319 q 401 1358 436 1358 q 312 1328 347 1358 q 260 1249 276 1297 q 251 1146 244 1200 l 349 1146 q 349 1188 346 1167 q 362 1222 351 1208 q 390 1236 372 1236 q 422 1226 407 1236 q 451 1204 436 1217 q 510 1163 478 1183 q 589 1143 542 1143 "},"F":{"ha":833,"x_min":132,"x_max":771,"o":"m 132 1022 l 132 0 l 333 0 l 333 401 l 713 401 l 713 596 l 333 596 l 333 828 l 771 828 l 771 1022 l 132 1022 "},"G":{"ha":1058,"x_min":69,"x_max":961,"o":"m 961 103 l 961 535 l 581 535 l 581 340 l 757 340 l 757 217 q 696 197 732 203 q 617 190 660 190 q 480 211 542 190 q 373 272 418 232 q 303 370 328 313 q 278 500 278 428 q 300 644 278 582 q 366 747 322 706 q 474 810 410 789 q 621 831 538 831 q 697 822 654 831 q 782 799 740 813 q 849 771 824 785 l 914 958 q 775 1012 857 990 q 594 1033 693 1033 q 395 1000 490 1033 q 227 898 300 967 q 112 726 154 829 q 69 482 69 622 q 107 285 69 375 q 215 128 144 194 q 386 26 286 63 q 611 -11 486 -11 q 711 -1 658 -11 q 815 26 764 10 q 904 63 865 43 q 961 103 943 83 "},"Ğ":{"ha":1058,"x_min":69,"x_max":961,"o":"m 961 103 l 961 535 l 581 535 l 581 340 l 757 340 l 757 217 q 696 197 732 203 q 617 190 660 190 q 480 211 542 190 q 373 272 418 232 q 303 370 328 313 q 278 500 278 428 q 300 644 278 582 q 366 747 322 706 q 474 810 410 789 q 621 831 538 831 q 697 822 654 831 q 782 799 740 813 q 849 771 824 785 l 914 958 q 775 1012 857 990 q 594 1033 693 1033 q 395 1000 490 1033 q 227 898 300 967 q 112 726 154 829 q 69 482 69 622 q 107 285 69 375 q 215 128 144 194 q 386 26 286 63 q 611 -11 486 -11 q 711 -1 658 -11 q 815 26 764 10 q 904 63 865 43 q 961 103 943 83 m 571 1061 q 682 1088 636 1061 q 758 1173 728 1115 q 803 1321 788 1231 l 674 1321 q 654 1252 665 1282 q 624 1206 643 1222 q 571 1190 604 1190 q 519 1206 539 1190 q 487 1252 499 1222 q 467 1321 475 1282 l 338 1321 q 383 1176 353 1233 q 459 1090 413 1118 q 571 1061 506 1061 "},"Ǧ":{"ha":1058,"x_min":69,"x_max":961,"o":"m 961 103 l 961 535 l 581 535 l 581 340 l 757 340 l 757 217 q 696 197 732 203 q 617 190 660 190 q 480 211 542 190 q 373 272 418 232 q 303 370 328 313 q 278 500 278 428 q 300 644 278 582 q 366 747 322 706 q 474 810 410 789 q 621 831 538 831 q 697 822 654 831 q 782 799 740 813 q 849 771 824 785 l 914 958 q 775 1012 857 990 q 594 1033 693 1033 q 395 1000 490 1033 q 227 898 300 967 q 112 726 154 829 q 69 482 69 622 q 107 285 69 375 q 215 128 144 194 q 386 26 286 63 q 611 -11 486 -11 q 711 -1 658 -11 q 815 26 764 10 q 904 63 865 43 q 961 103 943 83 m 482 1301 l 307 1301 l 569 1046 l 571 1046 l 828 1301 l 653 1301 l 543 1185 l 590 1199 l 482 1301 "},"Ĝ":{"ha":1058,"x_min":69,"x_max":961,"o":"m 961 103 l 961 535 l 581 535 l 581 340 l 757 340 l 757 217 q 696 197 732 203 q 617 190 660 190 q 480 211 542 190 q 373 272 418 232 q 303 370 328 313 q 278 500 278 428 q 300 644 278 582 q 366 747 322 706 q 474 810 410 789 q 621 831 538 831 q 697 822 654 831 q 782 799 740 813 q 849 771 824 785 l 914 958 q 775 1012 857 990 q 594 1033 693 1033 q 395 1000 490 1033 q 227 898 300 967 q 112 726 154 829 q 69 482 69 622 q 107 285 69 375 q 215 128 144 194 q 386 26 286 63 q 611 -11 486 -11 q 711 -1 658 -11 q 815 26 764 10 q 904 63 865 43 q 961 103 943 83 m 644 1078 l 819 1078 l 557 1333 l 556 1333 l 299 1078 l 474 1078 l 583 1194 l 536 1181 l 644 1078 "},"Ģ":{"ha":1058,"x_min":69,"x_max":961,"o":"m 961 103 l 961 535 l 581 535 l 581 340 l 757 340 l 757 217 q 696 197 732 203 q 617 190 660 190 q 480 211 542 190 q 373 272 418 232 q 303 370 328 313 q 278 500 278 428 q 300 644 278 582 q 366 747 322 706 q 474 810 410 789 q 621 831 538 831 q 697 822 654 831 q 782 799 740 813 q 849 771 824 785 l 914 958 q 775 1012 857 990 q 594 1033 693 1033 q 395 1000 490 1033 q 227 898 300 967 q 112 726 154 829 q 69 482 69 622 q 107 285 69 375 q 215 128 144 194 q 386 26 286 63 q 611 -11 486 -11 q 711 -1 658 -11 q 815 26 764 10 q 904 63 865 43 q 961 103 943 83 m 494 -325 q 565 -252 536 -297 q 606 -158 593 -207 q 611 -69 619 -108 l 442 -68 q 438 -173 451 -117 q 394 -258 425 -229 l 494 -325 "},"Ġ":{"ha":1058,"x_min":69,"x_max":961,"o":"m 961 103 l 961 535 l 581 535 l 581 340 l 757 340 l 757 217 q 696 197 732 203 q 617 190 660 190 q 480 211 542 190 q 373 272 418 232 q 303 370 328 313 q 278 500 278 428 q 300 644 278 582 q 366 747 322 706 q 474 810 410 789 q 621 831 538 831 q 697 822 654 831 q 782 799 740 813 q 849 771 824 785 l 914 958 q 775 1012 857 990 q 594 1033 693 1033 q 395 1000 490 1033 q 227 898 300 967 q 112 726 154 829 q 69 482 69 622 q 107 285 69 375 q 215 128 144 194 q 386 26 286 63 q 611 -11 486 -11 q 711 -1 658 -11 q 815 26 764 10 q 904 63 865 43 q 961 103 943 83 m 465 1154 q 499 1084 465 1111 q 572 1057 533 1057 q 644 1084 611 1057 q 676 1154 676 1111 q 644 1225 676 1197 q 572 1253 611 1253 q 499 1225 533 1253 q 465 1154 465 1197 "},"H":{"ha":1124,"x_min":132,"x_max":992,"o":"m 992 1022 l 790 1022 l 790 610 l 333 610 l 333 1022 l 132 1022 l 132 0 l 333 0 l 333 415 l 790 415 l 790 0 l 992 0 l 992 1022 "},"Ħ":{"ha":1354,"x_min":132,"x_max":1222,"o":"m 132 842 l 132 693 l 1222 693 l 1222 842 l 132 842 m 1119 1022 l 918 1022 l 918 610 l 461 610 l 461 1022 l 260 1022 l 260 0 l 461 0 l 461 415 l 918 415 l 918 0 l 1119 0 l 1119 1022 "},"Ĥ":{"ha":1124,"x_min":132,"x_max":992,"o":"m 992 1022 l 790 1022 l 790 610 l 333 610 l 333 1022 l 132 1022 l 132 0 l 333 0 l 333 415 l 790 415 l 790 0 l 992 0 l 992 1022 m 636 1078 l 811 1078 l 549 1333 l 547 1333 l 290 1078 l 465 1078 l 575 1194 l 528 1181 l 636 1078 "},"I":{"ha":465,"x_min":132,"x_max":333,"o":"m 132 1022 l 132 0 l 333 0 l 333 1022 l 132 1022 "},"Ĳ":{"ha":1021,"x_min":132,"x_max":889,"o":"m 132 1022 l 132 0 l 333 0 l 333 1022 l 132 1022 m 889 215 l 889 1022 l 686 1022 l 686 219 q 626 42 686 94 q 472 -17 567 -11 l 472 -212 l 472 -212 q 690 -158 596 -208 q 836 -12 783 -107 q 889 215 889 82 "},"Í":{"ha":465,"x_min":132,"x_max":492,"o":"m 132 1022 l 132 0 l 333 0 l 333 1022 l 132 1022 m 492 1276 l 276 1276 l 168 1089 l 286 1089 l 492 1276 "},"Ĭ":{"ha":465,"x_min":0,"x_max":465,"o":"m 132 1022 l 132 0 l 333 0 l 333 1022 l 132 1022 m 233 1089 q 344 1116 299 1089 q 420 1201 390 1143 q 465 1349 450 1258 l 336 1349 q 317 1280 328 1310 q 286 1234 306 1250 q 233 1218 267 1218 q 181 1234 201 1218 q 149 1280 161 1250 q 129 1349 138 1310 l 0 1349 q 45 1203 15 1261 q 122 1117 75 1146 q 233 1089 168 1089 "},"Î":{"ha":465,"x_min":-39,"x_max":482,"o":"m 132 1022 l 132 0 l 333 0 l 333 1022 l 132 1022 m 307 1106 l 482 1106 l 219 1361 l 218 1361 l -39 1106 l 136 1106 l 246 1222 l 199 1208 l 307 1106 "},"Ȉ":{"ha":465,"x_min":-94,"x_max":443,"o":"m 132 1022 l 132 0 l 333 0 l 333 1022 l 132 1022 m -94 1286 l 89 1099 l 207 1099 l 121 1286 l -94 1286 m 142 1286 l 325 1099 l 443 1099 l 357 1286 l 142 1286 "},"Ï":{"ha":465,"x_min":-14,"x_max":461,"o":"m 132 1022 l 132 0 l 333 0 l 333 1022 l 132 1022 m -14 1186 l -14 1186 q 17 1114 -14 1142 q 86 1086 49 1086 q 152 1114 121 1086 q 183 1186 183 1142 q 152 1259 183 1231 q 86 1288 121 1288 q 17 1259 49 1288 q -14 1186 -14 1231 m 264 1186 l 264 1186 q 295 1114 264 1142 q 364 1086 326 1086 q 430 1114 399 1086 q 461 1186 461 1142 q 430 1259 461 1231 q 364 1288 399 1288 q 295 1259 326 1288 q 264 1186 264 1231 "},"İ":{"ha":465,"x_min":128,"x_max":339,"o":"m 132 1022 l 132 0 l 333 0 l 333 1022 l 132 1022 m 128 1182 q 162 1112 128 1139 q 235 1085 196 1085 q 306 1112 274 1085 q 339 1182 339 1139 q 306 1253 339 1225 q 235 1281 274 1281 q 162 1253 196 1281 q 128 1182 128 1225 "},"Ị":{"ha":465,"x_min":124,"x_max":335,"o":"m 132 1022 l 132 0 l 333 0 l 333 1022 l 132 1022 m 124 -162 q 158 -233 124 -206 q 231 -260 192 -260 q 302 -233 269 -260 q 335 -162 335 -206 q 302 -92 335 -119 q 231 -64 269 -64 q 158 -92 192 -64 q 124 -162 124 -119 "},"Ì":{"ha":465,"x_min":-25,"x_max":333,"o":"m 132 1022 l 132 0 l 333 0 l 333 1022 l 132 1022 m -25 1282 l 158 1094 l 276 1094 l 190 1282 l -25 1282 "},"Ỉ":{"ha":465,"x_min":110,"x_max":381,"o":"m 132 1022 l 132 0 l 333 0 l 333 1022 l 132 1022 m 219 1164 l 260 1113 q 344 1175 308 1139 q 381 1265 381 1211 q 369 1322 381 1293 q 331 1369 357 1350 q 260 1388 304 1388 q 175 1363 217 1388 q 110 1288 133 1339 l 179 1246 q 201 1272 186 1261 q 233 1283 215 1283 q 265 1270 256 1283 q 274 1238 274 1257 q 258 1197 274 1214 q 219 1164 243 1181 "},"Ȋ":{"ha":465,"x_min":-7,"x_max":458,"o":"m 132 1022 l 132 0 l 333 0 l 333 1022 l 132 1022 m 225 1311 q 115 1284 161 1311 q 38 1199 68 1257 q -7 1051 8 1142 l 122 1051 q 142 1121 131 1092 q 173 1166 153 1150 q 225 1182 193 1182 q 278 1166 258 1182 q 309 1121 297 1150 q 329 1051 321 1092 l 458 1051 q 413 1197 443 1139 q 337 1283 383 1254 q 225 1311 290 1311 "},"Ī":{"ha":465,"x_min":50,"x_max":404,"o":"m 132 1022 l 132 0 l 333 0 l 333 1022 l 132 1022 m 50 1232 l 50 1097 l 404 1097 l 404 1232 l 50 1232 "},"Į":{"ha":396,"x_min":10,"x_max":400,"o":"m 213 -322 q 315 -293 261 -322 q 400 -218 369 -264 l 331 -118 q 283 -169 308 -153 q 231 -186 258 -186 q 188 -174 207 -186 q 169 -128 169 -162 q 213 -55 169 -83 q 326 0 256 -26 l 292 8 l 128 0 q 40 -67 71 -22 q 10 -157 10 -111 q 69 -280 10 -237 q 213 -322 128 -322 m 132 1022 l 132 0 l 333 0 l 333 1022 l 132 1022 "},"Ĩ":{"ha":465,"x_min":-3,"x_max":479,"o":"m 132 1022 l 132 0 l 333 0 l 333 1022 l 132 1022 m 342 1143 q 416 1171 383 1143 q 464 1247 449 1199 q 469 1354 479 1294 l 372 1354 q 369 1290 374 1321 q 338 1258 364 1258 q 304 1271 321 1258 q 268 1300 288 1283 q 217 1339 244 1319 q 154 1358 189 1358 q 65 1328 100 1358 q 13 1249 29 1297 q 4 1146 -3 1200 l 101 1146 q 101 1188 99 1167 q 115 1222 104 1208 q 143 1236 125 1236 q 174 1226 160 1236 q 204 1204 189 1217 q 263 1163 231 1183 q 342 1143 294 1143 "},"J":{"ha":556,"x_min":7,"x_max":424,"o":"m 424 215 l 424 1022 l 221 1022 l 221 219 q 161 42 221 94 q 7 -17 101 -11 l 7 -212 l 7 -212 q 224 -158 131 -208 q 371 -12 318 -107 q 424 215 424 82 "},"Ĵ":{"ha":556,"x_min":7,"x_max":579,"o":"m 424 215 l 424 1022 l 221 1022 l 221 219 q 161 42 221 94 q 7 -17 101 -11 l 7 -212 l 7 -212 q 224 -158 131 -208 q 371 -12 318 -107 q 424 215 424 82 m 404 1106 l 579 1106 l 317 1361 l 315 1361 l 58 1106 l 233 1106 l 343 1222 l 296 1208 l 404 1106 "},"K":{"ha":978,"x_min":132,"x_max":957,"o":"m 336 658 l 336 1022 l 132 1022 l 132 0 l 336 0 l 336 386 l 386 436 l 701 0 l 957 0 l 533 564 l 956 1022 l 694 1022 l 361 646 l 331 607 l 336 658 "},"Ķ":{"ha":978,"x_min":132,"x_max":957,"o":"m 336 658 l 336 1022 l 132 1022 l 132 0 l 336 0 l 336 386 l 386 436 l 701 0 l 957 0 l 533 564 l 956 1022 l 694 1022 l 361 646 l 331 607 l 336 658 m 424 -325 q 494 -252 465 -297 q 535 -158 522 -207 q 540 -69 549 -108 l 371 -68 q 367 -173 381 -117 q 324 -258 354 -229 l 424 -325 "},"L":{"ha":890,"x_min":132,"x_max":814,"o":"m 132 1022 l 132 0 l 814 0 l 814 194 l 333 194 l 333 1022 l 132 1022 "},"Ǉ":{"ha":1446,"x_min":132,"x_max":1314,"o":"m 132 1022 l 132 0 l 814 0 l 814 194 l 333 194 l 333 1022 l 132 1022 m 1314 215 l 1314 1022 l 1111 1022 l 1111 219 q 1051 42 1111 94 q 897 -17 992 -11 l 897 -212 l 897 -212 q 1115 -158 1021 -208 q 1261 -12 1208 -107 q 1314 215 1314 82 "},"Ĺ":{"ha":890,"x_min":132,"x_max":814,"o":"m 132 1022 l 132 0 l 814 0 l 814 194 l 333 194 l 333 1022 l 132 1022 m 488 1276 l 272 1276 l 164 1089 l 282 1089 l 488 1276 "},"Ľ":{"ha":889,"x_min":132,"x_max":814,"o":"m 132 1022 l 132 0 l 814 0 l 814 194 l 333 194 l 333 1022 l 132 1022 m 696 776 l 696 776 q 756 835 729 796 q 798 921 783 874 q 804 1007 813 968 l 656 997 q 646 896 665 949 q 596 815 626 843 l 696 776 "},"Ļ":{"ha":890,"x_min":132,"x_max":814,"o":"m 132 1022 l 132 0 l 814 0 l 814 194 l 333 194 l 333 1022 l 132 1022 m 421 -325 q 491 -252 463 -297 q 533 -158 519 -207 q 538 -69 546 -108 l 368 -68 q 365 -173 378 -117 q 321 -258 351 -229 l 421 -325 "},"Ŀ":{"ha":881,"x_min":132,"x_max":818,"o":"m 132 1022 l 132 0 l 814 0 l 814 194 l 333 194 l 333 1022 l 132 1022 m 621 546 l 621 546 q 652 473 621 500 q 721 446 683 446 q 787 473 756 446 q 818 546 818 500 q 787 618 818 589 q 721 647 756 647 q 652 618 683 647 q 621 546 621 589 "},"ǈ":{"ha":1300,"x_min":132,"x_max":1210,"o":"m 132 1022 l 132 0 l 814 0 l 814 194 l 333 194 l 333 1022 l 132 1022 m 1031 -293 q 1161 -180 1122 -251 q 1200 0 1200 -108 l 1200 607 l 1006 607 l 1006 11 q 983 -97 1006 -53 q 918 -172 960 -142 l 1031 -293 m 999 822 q 1033 752 999 779 q 1106 725 1067 725 q 1177 752 1144 725 q 1210 822 1210 779 q 1177 893 1210 865 q 1106 921 1144 921 q 1033 893 1067 921 q 999 822 999 865 "},"Ł":{"ha":889,"x_min":7,"x_max":814,"o":"m 571 686 l 7 511 l 49 354 l 613 529 l 571 686 m 132 1022 l 132 0 l 814 0 l 814 194 l 333 194 l 333 1022 l 132 1022 "},"M":{"ha":1317,"x_min":132,"x_max":1185,"o":"m 132 0 l 326 0 l 326 601 l 292 506 l 647 14 l 650 14 l 996 506 l 983 610 l 983 0 l 1185 0 l 1185 1064 l 1182 1064 l 615 278 l 701 258 l 133 1064 l 132 1064 l 132 0 "},"N":{"ha":1185,"x_min":132,"x_max":1053,"o":"m 1047 -42 l 1053 -42 l 1053 1022 l 850 1022 l 854 385 l 899 365 l 140 1063 l 132 1063 l 132 0 l 336 0 l 332 625 l 272 658 l 1047 -42 "},"Ǌ":{"ha":1740,"x_min":132,"x_max":1608,"o":"m 1047 -42 l 1053 -42 l 1053 1022 l 850 1022 l 854 385 l 899 365 l 140 1063 l 132 1063 l 132 0 l 336 0 l 332 625 l 272 658 l 1047 -42 m 1608 215 l 1608 1022 l 1406 1022 l 1406 219 q 1346 42 1406 94 q 1192 -17 1286 -11 l 1192 -212 l 1192 -212 q 1409 -158 1315 -208 q 1556 -12 1503 -107 q 1608 215 1608 82 "},"Ń":{"ha":1185,"x_min":132,"x_max":1053,"o":"m 1047 -42 l 1053 -42 l 1053 1022 l 850 1022 l 854 385 l 899 365 l 140 1063 l 132 1063 l 132 0 l 336 0 l 332 625 l 272 658 l 1047 -42 m 824 1249 l 608 1249 l 500 1061 l 618 1061 l 824 1249 "},"Ň":{"ha":1185,"x_min":132,"x_max":1053,"o":"m 1047 -42 l 1053 -42 l 1053 1022 l 850 1022 l 854 385 l 899 365 l 140 1063 l 132 1063 l 132 0 l 336 0 l 332 625 l 272 658 l 1047 -42 m 476 1301 l 301 1301 l 564 1046 l 565 1046 l 822 1301 l 647 1301 l 538 1185 l 585 1199 l 476 1301 "},"Ņ":{"ha":1185,"x_min":132,"x_max":1053,"o":"m 1047 -42 l 1053 -42 l 1053 1022 l 850 1022 l 854 385 l 899 365 l 140 1063 l 132 1063 l 132 0 l 336 0 l 332 625 l 272 658 l 1047 -42 m 558 -325 q 628 -252 600 -297 q 670 -158 657 -207 q 675 -69 683 -108 l 506 -68 q 502 -173 515 -117 q 458 -258 489 -229 l 558 -325 "},"Ŋ":{"ha":1115,"x_min":97,"x_max":1018,"o":"m 1013 -42 l 1018 6 l 1018 1022 l 815 1022 l 819 385 l 864 365 l 106 1063 l 97 1063 l 97 0 l 301 0 l 297 625 l 238 658 l 1013 -42 m 1018 42 l 825 226 l 825 11 q 802 -97 825 -53 q 738 -172 779 -142 l 849 -293 q 977 -174 936 -247 q 1018 0 1018 -100 l 1018 42 "},"Ɲ":{"ha":1150,"x_min":10,"x_max":1018,"o":"m 1013 -42 l 1018 6 l 1018 1022 l 815 1022 l 819 385 l 864 365 l 106 1063 l 97 1063 l 97 0 l 301 0 l 297 625 l 238 658 l 1013 -42 m 301 42 l 97 226 l 97 11 q 74 -97 97 -53 q 10 -172 51 -142 l 132 -293 q 260 -174 219 -247 q 301 0 301 -100 l 301 42 "},"ǋ":{"ha":1594,"x_min":132,"x_max":1504,"o":"m 1047 -42 l 1053 -42 l 1053 1022 l 850 1022 l 854 385 l 899 365 l 140 1063 l 132 1063 l 132 0 l 336 0 l 332 625 l 272 658 l 1047 -42 m 1325 -293 q 1456 -180 1417 -251 q 1494 0 1494 -108 l 1494 607 l 1300 607 l 1300 11 q 1277 -97 1300 -53 q 1213 -172 1254 -142 l 1325 -293 m 1293 822 q 1327 752 1293 779 q 1400 725 1361 725 q 1472 752 1439 725 q 1504 822 1504 779 q 1472 893 1504 865 q 1400 921 1439 921 q 1327 893 1361 921 q 1293 822 1293 865 "},"Ñ":{"ha":1185,"x_min":132,"x_max":1053,"o":"m 1047 -42 l 1053 -42 l 1053 1022 l 850 1022 l 854 385 l 899 365 l 140 1063 l 132 1063 l 132 0 l 336 0 l 332 625 l 272 658 l 1047 -42 m 674 1115 q 748 1143 715 1115 q 796 1219 781 1171 q 801 1326 811 1267 l 704 1326 q 701 1262 706 1293 q 669 1231 696 1231 q 636 1243 653 1231 q 600 1272 619 1256 q 549 1311 576 1292 q 486 1331 521 1331 q 397 1300 432 1331 q 345 1221 361 1269 q 336 1118 329 1172 l 433 1118 q 433 1160 431 1139 q 447 1194 436 1181 q 475 1208 457 1208 q 506 1199 492 1208 q 536 1176 521 1189 q 594 1135 563 1156 q 674 1115 626 1115 "},"O":{"ha":1183,"x_min":69,"x_max":1114,"o":"m 69 510 q 110 307 69 401 q 222 141 150 213 q 388 29 293 69 q 590 -11 482 -11 q 792 29 697 -11 q 959 141 886 69 q 1073 307 1032 213 q 1114 510 1114 401 q 1073 710 1114 615 q 959 877 1032 804 q 792 992 886 950 q 590 1033 697 1033 q 388 992 482 1033 q 222 877 293 950 q 110 710 150 804 q 69 510 69 615 m 278 510 q 301 639 278 579 q 368 744 325 699 q 468 814 411 789 q 592 839 525 839 q 715 814 658 839 q 815 744 772 789 q 881 639 857 699 q 906 510 906 579 q 882 383 906 442 q 817 278 858 324 q 719 208 775 233 q 597 183 663 183 q 472 208 529 183 q 370 278 414 233 q 302 383 326 324 q 278 510 278 442 "},"Ó":{"ha":1183,"x_min":69,"x_max":1114,"o":"m 69 510 q 110 307 69 401 q 222 141 150 213 q 388 29 293 69 q 590 -11 482 -11 q 792 29 697 -11 q 959 141 886 69 q 1073 307 1032 213 q 1114 510 1114 401 q 1073 710 1114 615 q 959 877 1032 804 q 792 992 886 950 q 590 1033 697 1033 q 388 992 482 1033 q 222 877 293 950 q 110 710 150 804 q 69 510 69 615 m 278 510 q 301 639 278 579 q 368 744 325 699 q 468 814 411 789 q 592 839 525 839 q 715 814 658 839 q 815 744 772 789 q 881 639 857 699 q 906 510 906 579 q 882 383 906 442 q 817 278 858 324 q 719 208 775 233 q 597 183 663 183 q 472 208 529 183 q 370 278 414 233 q 302 383 326 324 q 278 510 278 442 m 850 1263 l 635 1263 l 526 1075 l 644 1075 l 850 1263 "},"Ŏ":{"ha":1183,"x_min":69,"x_max":1114,"o":"m 69 510 q 110 307 69 401 q 222 141 150 213 q 388 29 293 69 q 590 -11 482 -11 q 792 29 697 -11 q 959 141 886 69 q 1073 307 1032 213 q 1114 510 1114 401 q 1073 710 1114 615 q 959 877 1032 804 q 792 992 886 950 q 590 1033 697 1033 q 388 992 482 1033 q 222 877 293 950 q 110 710 150 804 q 69 510 69 615 m 278 510 q 301 639 278 579 q 368 744 325 699 q 468 814 411 789 q 592 839 525 839 q 715 814 658 839 q 815 744 772 789 q 881 639 857 699 q 906 510 906 579 q 882 383 906 442 q 817 278 858 324 q 719 208 775 233 q 597 183 663 183 q 472 208 529 183 q 370 278 414 233 q 302 383 326 324 q 278 510 278 442 m 592 1075 q 703 1102 657 1075 q 778 1187 749 1129 q 824 1335 808 1244 l 694 1335 q 675 1266 686 1296 q 644 1220 664 1236 q 592 1204 625 1204 q 540 1220 560 1204 q 508 1266 519 1236 q 488 1335 496 1296 l 358 1335 q 403 1190 374 1247 q 480 1103 433 1132 q 592 1075 526 1075 "},"Ô":{"ha":1183,"x_min":69,"x_max":1114,"o":"m 69 510 q 110 307 69 401 q 222 141 150 213 q 388 29 293 69 q 590 -11 482 -11 q 792 29 697 -11 q 959 141 886 69 q 1073 307 1032 213 q 1114 510 1114 401 q 1073 710 1114 615 q 959 877 1032 804 q 792 992 886 950 q 590 1033 697 1033 q 388 992 482 1033 q 222 877 293 950 q 110 710 150 804 q 69 510 69 615 m 278 510 q 301 639 278 579 q 368 744 325 699 q 468 814 411 789 q 592 839 525 839 q 715 814 658 839 q 815 744 772 789 q 881 639 857 699 q 906 510 906 579 q 882 383 906 442 q 817 278 858 324 q 719 208 775 233 q 597 183 663 183 q 472 208 529 183 q 370 278 414 233 q 302 383 326 324 q 278 510 278 442 m 665 1092 l 840 1092 l 578 1347 l 576 1347 l 319 1092 l 494 1092 l 604 1208 l 557 1194 l 665 1092 "},"Ố":{"ha":1183,"x_min":69,"x_max":1114,"o":"m 69 510 q 110 307 69 401 q 222 141 150 213 q 388 29 293 69 q 590 -11 482 -11 q 792 29 697 -11 q 959 141 886 69 q 1073 307 1032 213 q 1114 510 1114 401 q 1073 710 1114 615 q 959 877 1032 804 q 792 992 886 950 q 590 1033 697 1033 q 388 992 482 1033 q 222 877 293 950 q 110 710 150 804 q 69 510 69 615 m 278 510 q 301 639 278 579 q 368 744 325 699 q 468 814 411 789 q 592 839 525 839 q 715 814 658 839 q 815 744 772 789 q 881 639 857 699 q 906 510 906 579 q 882 383 906 442 q 817 278 858 324 q 719 208 775 233 q 597 183 663 183 q 472 208 529 183 q 370 278 414 233 q 302 383 326 324 q 278 510 278 442 m 683 1108 l 858 1108 l 596 1364 l 594 1364 l 338 1108 l 513 1108 l 622 1225 l 575 1211 l 683 1108 m 1040 1444 l 825 1444 l 717 1257 l 835 1257 l 1040 1444 "},"Ộ":{"ha":1183,"x_min":69,"x_max":1114,"o":"m 69 510 q 110 307 69 401 q 222 141 150 213 q 388 29 293 69 q 590 -11 482 -11 q 792 29 697 -11 q 959 141 886 69 q 1073 307 1032 213 q 1114 510 1114 401 q 1073 710 1114 615 q 959 877 1032 804 q 792 992 886 950 q 590 1033 697 1033 q 388 992 482 1033 q 222 877 293 950 q 110 710 150 804 q 69 510 69 615 m 278 510 q 301 639 278 579 q 368 744 325 699 q 468 814 411 789 q 592 839 525 839 q 715 814 658 839 q 815 744 772 789 q 881 639 857 699 q 906 510 906 579 q 882 383 906 442 q 817 278 858 324 q 719 208 775 233 q 597 183 663 183 q 472 208 529 183 q 370 278 414 233 q 302 383 326 324 q 278 510 278 442 m 482 -162 q 516 -233 482 -206 q 589 -260 550 -260 q 660 -233 628 -260 q 693 -162 693 -206 q 660 -92 693 -119 q 589 -64 628 -64 q 516 -92 550 -64 q 482 -162 482 -119 m 665 1092 l 840 1092 l 578 1347 l 576 1347 l 319 1092 l 494 1092 l 604 1208 l 557 1194 l 665 1092 "},"Ồ":{"ha":1183,"x_min":69,"x_max":1114,"o":"m 69 510 q 110 307 69 401 q 222 141 150 213 q 388 29 293 69 q 590 -11 482 -11 q 792 29 697 -11 q 959 141 886 69 q 1073 307 1032 213 q 1114 510 1114 401 q 1073 710 1114 615 q 959 877 1032 804 q 792 992 886 950 q 590 1033 697 1033 q 388 992 482 1033 q 222 877 293 950 q 110 710 150 804 q 69 510 69 615 m 278 510 q 301 639 278 579 q 368 744 325 699 q 468 814 411 789 q 592 839 525 839 q 715 814 658 839 q 815 744 772 789 q 881 639 857 699 q 906 510 906 579 q 882 383 906 442 q 817 278 858 324 q 719 208 775 233 q 597 183 663 183 q 472 208 529 183 q 370 278 414 233 q 302 383 326 324 q 278 510 278 442 m 672 1108 l 847 1108 l 585 1364 l 583 1364 l 326 1108 l 501 1108 l 611 1225 l 564 1211 l 672 1108 m 99 1450 l 282 1263 l 400 1263 l 314 1450 l 99 1450 "},"Ổ":{"ha":1183,"x_min":69,"x_max":1114,"o":"m 69 510 q 110 307 69 401 q 222 141 150 213 q 388 29 293 69 q 590 -11 482 -11 q 792 29 697 -11 q 959 141 886 69 q 1073 307 1032 213 q 1114 510 1114 401 q 1073 710 1114 615 q 959 877 1032 804 q 792 992 886 950 q 590 1033 697 1033 q 388 992 482 1033 q 222 877 293 950 q 110 710 150 804 q 69 510 69 615 m 278 510 q 301 639 278 579 q 368 744 325 699 q 468 814 411 789 q 592 839 525 839 q 715 814 658 839 q 815 744 772 789 q 881 639 857 699 q 906 510 906 579 q 882 383 906 442 q 817 278 858 324 q 719 208 775 233 q 597 183 663 183 q 472 208 529 183 q 370 278 414 233 q 302 383 326 324 q 278 510 278 442 m 678 1108 l 853 1108 l 590 1364 l 589 1364 l 332 1108 l 507 1108 l 617 1225 l 569 1211 l 678 1108 m 854 1263 l 894 1211 q 979 1274 943 1238 q 1015 1364 1015 1310 q 1003 1420 1015 1392 q 965 1467 992 1449 q 894 1486 939 1486 q 810 1462 851 1486 q 744 1386 768 1438 l 814 1344 q 835 1371 821 1360 q 868 1382 850 1382 q 899 1369 890 1382 q 908 1336 908 1356 q 893 1296 908 1313 q 854 1263 878 1279 "},"Ỗ":{"ha":1183,"x_min":69,"x_max":1114,"o":"m 69 510 q 110 307 69 401 q 222 141 150 213 q 388 29 293 69 q 590 -11 482 -11 q 792 29 697 -11 q 959 141 886 69 q 1073 307 1032 213 q 1114 510 1114 401 q 1073 710 1114 615 q 959 877 1032 804 q 792 992 886 950 q 590 1033 697 1033 q 388 992 482 1033 q 222 877 293 950 q 110 710 150 804 q 69 510 69 615 m 278 510 q 301 639 278 579 q 368 744 325 699 q 468 814 411 789 q 592 839 525 839 q 715 814 658 839 q 815 744 772 789 q 881 639 857 699 q 906 510 906 579 q 882 383 906 442 q 817 278 858 324 q 719 208 775 233 q 597 183 663 183 q 472 208 529 183 q 370 278 414 233 q 302 383 326 324 q 278 510 278 442 m 667 1108 l 842 1108 l 579 1364 l 578 1364 l 321 1108 l 496 1108 l 606 1225 l 558 1211 l 667 1108 m 693 1404 q 767 1432 735 1404 q 815 1508 800 1460 q 821 1615 831 1556 l 724 1615 q 720 1551 725 1582 q 689 1519 715 1519 q 656 1532 672 1519 q 619 1561 639 1544 q 568 1600 596 1581 q 506 1619 540 1619 q 416 1589 451 1619 q 365 1510 381 1558 q 356 1407 349 1461 l 453 1407 q 453 1449 450 1428 q 466 1483 456 1469 q 494 1497 476 1497 q 526 1488 511 1497 q 556 1465 540 1478 q 614 1424 582 1444 q 693 1404 646 1404 "},"Ȍ":{"ha":1183,"x_min":69,"x_max":1114,"o":"m 69 510 q 110 307 69 401 q 222 141 150 213 q 388 29 293 69 q 590 -11 482 -11 q 792 29 697 -11 q 959 141 886 69 q 1073 307 1032 213 q 1114 510 1114 401 q 1073 710 1114 615 q 959 877 1032 804 q 792 992 886 950 q 590 1033 697 1033 q 388 992 482 1033 q 222 877 293 950 q 110 710 150 804 q 69 510 69 615 m 278 510 q 301 639 278 579 q 368 744 325 699 q 468 814 411 789 q 592 839 525 839 q 715 814 658 839 q 815 744 772 789 q 881 639 857 699 q 906 510 906 579 q 882 383 906 442 q 817 278 858 324 q 719 208 775 233 q 597 183 663 183 q 472 208 529 183 q 370 278 414 233 q 302 383 326 324 q 278 510 278 442 m 264 1272 l 447 1085 l 565 1085 l 479 1272 l 264 1272 m 500 1272 l 683 1085 l 801 1085 l 715 1272 l 500 1272 "},"Ö":{"ha":1183,"x_min":69,"x_max":1114,"o":"m 69 510 q 110 307 69 401 q 222 141 150 213 q 388 29 293 69 q 590 -11 482 -11 q 792 29 697 -11 q 959 141 886 69 q 1073 307 1032 213 q 1114 510 1114 401 q 1073 710 1114 615 q 959 877 1032 804 q 792 992 886 950 q 590 1033 697 1033 q 388 992 482 1033 q 222 877 293 950 q 110 710 150 804 q 69 510 69 615 m 278 510 q 301 639 278 579 q 368 744 325 699 q 468 814 411 789 q 592 839 525 839 q 715 814 658 839 q 815 744 772 789 q 881 639 857 699 q 906 510 906 579 q 882 383 906 442 q 817 278 858 324 q 719 208 775 233 q 597 183 663 183 q 472 208 529 183 q 370 278 414 233 q 302 383 326 324 q 278 510 278 442 m 344 1172 l 344 1172 q 376 1100 344 1128 q 444 1072 407 1072 q 510 1100 479 1072 q 542 1172 542 1128 q 510 1245 542 1217 q 444 1274 479 1274 q 376 1245 407 1274 q 344 1172 344 1217 m 622 1172 l 622 1172 q 653 1100 622 1128 q 722 1072 685 1072 q 788 1100 757 1072 q 819 1172 819 1128 q 788 1245 819 1217 q 722 1274 757 1274 q 653 1245 685 1274 q 622 1172 622 1217 "},"Ȫ":{"ha":1183,"x_min":69,"x_max":1114,"o":"m 69 510 q 110 307 69 401 q 222 141 150 213 q 388 29 293 69 q 590 -11 482 -11 q 792 29 697 -11 q 959 141 886 69 q 1073 307 1032 213 q 1114 510 1114 401 q 1073 710 1114 615 q 959 877 1032 804 q 792 992 886 950 q 590 1033 697 1033 q 388 992 482 1033 q 222 877 293 950 q 110 710 150 804 q 69 510 69 615 m 278 510 q 301 639 278 579 q 368 744 325 699 q 468 814 411 789 q 592 839 525 839 q 715 814 658 839 q 815 744 772 789 q 881 639 857 699 q 906 510 906 579 q 882 383 906 442 q 817 278 858 324 q 719 208 775 233 q 597 183 663 183 q 472 208 529 183 q 370 278 414 233 q 302 383 326 324 q 278 510 278 442 m 344 1172 l 344 1172 q 376 1100 344 1128 q 444 1072 407 1072 q 510 1100 479 1072 q 542 1172 542 1128 q 510 1245 542 1217 q 444 1274 479 1274 q 376 1245 407 1274 q 344 1172 344 1217 m 622 1172 l 622 1172 q 653 1100 622 1128 q 722 1072 685 1072 q 788 1100 757 1072 q 819 1172 819 1128 q 788 1245 819 1217 q 722 1274 757 1274 q 653 1245 685 1274 q 622 1172 622 1217 m 408 1457 l 408 1322 l 763 1322 l 763 1457 l 408 1457 "},"Ȱ":{"ha":1183,"x_min":69,"x_max":1114,"o":"m 69 510 q 110 307 69 401 q 222 141 150 213 q 388 29 293 69 q 590 -11 482 -11 q 792 29 697 -11 q 959 141 886 69 q 1073 307 1032 213 q 1114 510 1114 401 q 1073 710 1114 615 q 959 877 1032 804 q 792 992 886 950 q 590 1033 697 1033 q 388 992 482 1033 q 222 877 293 950 q 110 710 150 804 q 69 510 69 615 m 278 510 q 301 639 278 579 q 368 744 325 699 q 468 814 411 789 q 592 839 525 839 q 715 814 658 839 q 815 744 772 789 q 881 639 857 699 q 906 510 906 579 q 882 383 906 442 q 817 278 858 324 q 719 208 775 233 q 597 183 663 183 q 472 208 529 183 q 370 278 414 233 q 302 383 326 324 q 278 510 278 442 m 486 1168 q 520 1098 486 1125 q 593 1071 554 1071 q 665 1098 632 1071 q 697 1168 697 1125 q 665 1239 697 1211 q 593 1267 632 1267 q 520 1239 554 1267 q 486 1168 486 1211 m 410 1449 l 410 1314 l 764 1314 l 764 1449 l 410 1449 "},"Ọ":{"ha":1183,"x_min":69,"x_max":1114,"o":"m 69 510 q 110 307 69 401 q 222 141 150 213 q 388 29 293 69 q 590 -11 482 -11 q 792 29 697 -11 q 959 141 886 69 q 1073 307 1032 213 q 1114 510 1114 401 q 1073 710 1114 615 q 959 877 1032 804 q 792 992 886 950 q 590 1033 697 1033 q 388 992 482 1033 q 222 877 293 950 q 110 710 150 804 q 69 510 69 615 m 278 510 q 301 639 278 579 q 368 744 325 699 q 468 814 411 789 q 592 839 525 839 q 715 814 658 839 q 815 744 772 789 q 881 639 857 699 q 906 510 906 579 q 882 383 906 442 q 817 278 858 324 q 719 208 775 233 q 597 183 663 183 q 472 208 529 183 q 370 278 414 233 q 302 383 326 324 q 278 510 278 442 m 482 -162 q 516 -233 482 -206 q 589 -260 550 -260 q 660 -233 628 -260 q 693 -162 693 -206 q 660 -92 693 -119 q 589 -64 628 -64 q 516 -92 550 -64 q 482 -162 482 -119 "},"Ò":{"ha":1183,"x_min":69,"x_max":1114,"o":"m 69 510 q 110 307 69 401 q 222 141 150 213 q 388 29 293 69 q 590 -11 482 -11 q 792 29 697 -11 q 959 141 886 69 q 1073 307 1032 213 q 1114 510 1114 401 q 1073 710 1114 615 q 959 877 1032 804 q 792 992 886 950 q 590 1033 697 1033 q 388 992 482 1033 q 222 877 293 950 q 110 710 150 804 q 69 510 69 615 m 278 510 q 301 639 278 579 q 368 744 325 699 q 468 814 411 789 q 592 839 525 839 q 715 814 658 839 q 815 744 772 789 q 881 639 857 699 q 906 510 906 579 q 882 383 906 442 q 817 278 858 324 q 719 208 775 233 q 597 183 663 183 q 472 208 529 183 q 370 278 414 233 q 302 383 326 324 q 278 510 278 442 m 333 1268 l 517 1081 l 635 1081 l 549 1268 l 333 1268 "},"Ỏ":{"ha":1183,"x_min":69,"x_max":1114,"o":"m 69 510 q 110 307 69 401 q 222 141 150 213 q 388 29 293 69 q 590 -11 482 -11 q 792 29 697 -11 q 959 141 886 69 q 1073 307 1032 213 q 1114 510 1114 401 q 1073 710 1114 615 q 959 877 1032 804 q 792 992 886 950 q 590 1033 697 1033 q 388 992 482 1033 q 222 877 293 950 q 110 710 150 804 q 69 510 69 615 m 278 510 q 301 639 278 579 q 368 744 325 699 q 468 814 411 789 q 592 839 525 839 q 715 814 658 839 q 815 744 772 789 q 881 639 857 699 q 906 510 906 579 q 882 383 906 442 q 817 278 858 324 q 719 208 775 233 q 597 183 663 183 q 472 208 529 183 q 370 278 414 233 q 302 383 326 324 q 278 510 278 442 m 578 1150 l 618 1099 q 703 1161 667 1125 q 739 1251 739 1197 q 727 1308 739 1279 q 689 1355 715 1336 q 618 1374 663 1374 q 533 1349 575 1374 q 468 1274 492 1325 l 538 1232 q 559 1258 544 1247 q 592 1269 574 1269 q 623 1256 614 1269 q 632 1224 632 1243 q 617 1183 632 1200 q 578 1150 601 1167 "},"Ơ":{"ha":1183,"x_min":69,"x_max":1114,"o":"m 69 510 q 110 307 69 401 q 222 141 150 213 q 388 29 293 69 q 590 -11 482 -11 q 792 29 697 -11 q 959 141 886 69 q 1073 307 1032 213 q 1114 510 1114 401 q 1073 710 1114 615 q 959 877 1032 804 q 792 992 886 950 q 590 1033 697 1033 q 388 992 482 1033 q 222 877 293 950 q 110 710 150 804 q 69 510 69 615 m 278 510 q 301 639 278 579 q 368 744 325 699 q 468 814 411 789 q 592 839 525 839 q 715 814 658 839 q 815 744 772 789 q 881 639 857 699 q 906 510 906 579 q 882 383 906 442 q 817 278 858 324 q 719 208 775 233 q 597 183 663 183 q 472 208 529 183 q 370 278 414 233 q 302 383 326 324 q 278 510 278 442 m 690 1024 l 690 908 q 803 925 756 908 q 883 989 851 942 q 929 1126 914 1036 l 786 1126 q 756 1045 774 1067 q 690 1024 739 1024 "},"Ớ":{"ha":1183,"x_min":69,"x_max":1114,"o":"m 69 510 q 110 307 69 401 q 222 141 150 213 q 388 29 293 69 q 590 -11 482 -11 q 792 29 697 -11 q 959 141 886 69 q 1073 307 1032 213 q 1114 510 1114 401 q 1073 710 1114 615 q 959 877 1032 804 q 792 992 886 950 q 590 1033 697 1033 q 388 992 482 1033 q 222 877 293 950 q 110 710 150 804 q 69 510 69 615 m 278 510 q 301 639 278 579 q 368 744 325 699 q 468 814 411 789 q 592 839 525 839 q 715 814 658 839 q 815 744 772 789 q 881 639 857 699 q 906 510 906 579 q 882 383 906 442 q 817 278 858 324 q 719 208 775 233 q 597 183 663 183 q 472 208 529 183 q 370 278 414 233 q 302 383 326 324 q 278 510 278 442 m 690 1024 l 690 908 q 803 925 756 908 q 883 989 851 942 q 929 1126 914 1036 l 786 1126 q 756 1045 774 1067 q 690 1024 739 1024 m 850 1263 l 635 1263 l 526 1075 l 644 1075 l 850 1263 "},"Ợ":{"ha":1183,"x_min":69,"x_max":1114,"o":"m 69 510 q 110 307 69 401 q 222 141 150 213 q 388 29 293 69 q 590 -11 482 -11 q 792 29 697 -11 q 959 141 886 69 q 1073 307 1032 213 q 1114 510 1114 401 q 1073 710 1114 615 q 959 877 1032 804 q 792 992 886 950 q 590 1033 697 1033 q 388 992 482 1033 q 222 877 293 950 q 110 710 150 804 q 69 510 69 615 m 278 510 q 301 639 278 579 q 368 744 325 699 q 468 814 411 789 q 592 839 525 839 q 715 814 658 839 q 815 744 772 789 q 881 639 857 699 q 906 510 906 579 q 882 383 906 442 q 817 278 858 324 q 719 208 775 233 q 597 183 663 183 q 472 208 529 183 q 370 278 414 233 q 302 383 326 324 q 278 510 278 442 m 690 1024 l 690 908 q 803 925 756 908 q 883 989 851 942 q 929 1126 914 1036 l 786 1126 q 756 1045 774 1067 q 690 1024 739 1024 m 482 -162 q 516 -233 482 -206 q 589 -260 550 -260 q 660 -233 628 -260 q 693 -162 693 -206 q 660 -92 693 -119 q 589 -64 628 -64 q 516 -92 550 -64 q 482 -162 482 -119 "},"Ờ":{"ha":1183,"x_min":69,"x_max":1114,"o":"m 69 510 q 110 307 69 401 q 222 141 150 213 q 388 29 293 69 q 590 -11 482 -11 q 792 29 697 -11 q 959 141 886 69 q 1073 307 1032 213 q 1114 510 1114 401 q 1073 710 1114 615 q 959 877 1032 804 q 792 992 886 950 q 590 1033 697 1033 q 388 992 482 1033 q 222 877 293 950 q 110 710 150 804 q 69 510 69 615 m 278 510 q 301 639 278 579 q 368 744 325 699 q 468 814 411 789 q 592 839 525 839 q 715 814 658 839 q 815 744 772 789 q 881 639 857 699 q 906 510 906 579 q 882 383 906 442 q 817 278 858 324 q 719 208 775 233 q 597 183 663 183 q 472 208 529 183 q 370 278 414 233 q 302 383 326 324 q 278 510 278 442 m 690 1024 l 690 908 q 803 925 756 908 q 883 989 851 942 q 929 1126 914 1036 l 786 1126 q 756 1045 774 1067 q 690 1024 739 1024 m 386 1268 l 569 1081 l 688 1081 l 601 1268 l 386 1268 "},"Ở":{"ha":1183,"x_min":69,"x_max":1114,"o":"m 69 510 q 110 307 69 401 q 222 141 150 213 q 388 29 293 69 q 590 -11 482 -11 q 792 29 697 -11 q 959 141 886 69 q 1073 307 1032 213 q 1114 510 1114 401 q 1073 710 1114 615 q 959 877 1032 804 q 792 992 886 950 q 590 1033 697 1033 q 388 992 482 1033 q 222 877 293 950 q 110 710 150 804 q 69 510 69 615 m 278 510 q 301 639 278 579 q 368 744 325 699 q 468 814 411 789 q 592 839 525 839 q 715 814 658 839 q 815 744 772 789 q 881 639 857 699 q 906 510 906 579 q 882 383 906 442 q 817 278 858 324 q 719 208 775 233 q 597 183 663 183 q 472 208 529 183 q 370 278 414 233 q 302 383 326 324 q 278 510 278 442 m 690 1024 l 690 908 q 803 925 756 908 q 883 989 851 942 q 929 1126 914 1036 l 786 1126 q 756 1045 774 1067 q 690 1024 739 1024 m 578 1150 l 618 1099 q 703 1161 667 1125 q 739 1251 739 1197 q 727 1308 739 1279 q 689 1355 715 1336 q 618 1374 663 1374 q 533 1349 575 1374 q 468 1274 492 1325 l 538 1232 q 559 1258 544 1247 q 592 1269 574 1269 q 623 1256 614 1269 q 632 1224 632 1243 q 617 1183 632 1200 q 578 1150 601 1167 "},"Ỡ":{"ha":1183,"x_min":69,"x_max":1114,"o":"m 69 510 q 110 307 69 401 q 222 141 150 213 q 388 29 293 69 q 590 -11 482 -11 q 792 29 697 -11 q 959 141 886 69 q 1073 307 1032 213 q 1114 510 1114 401 q 1073 710 1114 615 q 959 877 1032 804 q 792 992 886 950 q 590 1033 697 1033 q 388 992 482 1033 q 222 877 293 950 q 110 710 150 804 q 69 510 69 615 m 278 510 q 301 639 278 579 q 368 744 325 699 q 468 814 411 789 q 592 839 525 839 q 715 814 658 839 q 815 744 772 789 q 881 639 857 699 q 906 510 906 579 q 882 383 906 442 q 817 278 858 324 q 719 208 775 233 q 597 183 663 183 q 472 208 529 183 q 370 278 414 233 q 302 383 326 324 q 278 510 278 442 m 690 1024 l 690 908 q 803 925 756 908 q 883 989 851 942 q 929 1126 914 1036 l 786 1126 q 756 1045 774 1067 q 690 1024 739 1024 m 700 1129 q 774 1157 742 1129 q 822 1233 807 1185 q 828 1340 838 1281 l 731 1340 q 727 1276 732 1307 q 696 1244 722 1244 q 663 1257 679 1244 q 626 1286 646 1269 q 575 1325 603 1306 q 513 1344 547 1344 q 423 1314 458 1344 q 372 1235 388 1283 q 363 1132 356 1186 l 460 1132 q 460 1174 457 1153 q 473 1208 463 1194 q 501 1222 483 1222 q 533 1213 518 1222 q 563 1190 547 1203 q 621 1149 589 1169 q 700 1129 653 1129 "},"Ő":{"ha":1183,"x_min":69,"x_max":1114,"o":"m 69 510 q 110 307 69 401 q 222 141 150 213 q 388 29 293 69 q 590 -11 482 -11 q 792 29 697 -11 q 959 141 886 69 q 1073 307 1032 213 q 1114 510 1114 401 q 1073 710 1114 615 q 959 877 1032 804 q 792 992 886 950 q 590 1033 697 1033 q 388 992 482 1033 q 222 877 293 950 q 110 710 150 804 q 69 510 69 615 m 278 510 q 301 639 278 579 q 368 744 325 699 q 468 814 411 789 q 592 839 525 839 q 715 814 658 839 q 815 744 772 789 q 881 639 857 699 q 906 510 906 579 q 882 383 906 442 q 817 278 858 324 q 719 208 775 233 q 597 183 663 183 q 472 208 529 183 q 370 278 414 233 q 302 383 326 324 q 278 510 278 442 m 665 1271 l 450 1271 l 342 1083 l 460 1083 l 665 1271 m 921 1268 l 706 1268 l 597 1081 l 715 1081 l 921 1268 "},"Ȏ":{"ha":1183,"x_min":69,"x_max":1114,"o":"m 69 510 q 110 307 69 401 q 222 141 150 213 q 388 29 293 69 q 590 -11 482 -11 q 792 29 697 -11 q 959 141 886 69 q 1073 307 1032 213 q 1114 510 1114 401 q 1073 710 1114 615 q 959 877 1032 804 q 792 992 886 950 q 590 1033 697 1033 q 388 992 482 1033 q 222 877 293 950 q 110 710 150 804 q 69 510 69 615 m 278 510 q 301 639 278 579 q 368 744 325 699 q 468 814 411 789 q 592 839 525 839 q 715 814 658 839 q 815 744 772 789 q 881 639 857 699 q 906 510 906 579 q 882 383 906 442 q 817 278 858 324 q 719 208 775 233 q 597 183 663 183 q 472 208 529 183 q 370 278 414 233 q 302 383 326 324 q 278 510 278 442 m 583 1297 q 473 1270 519 1297 q 397 1185 426 1243 q 351 1038 367 1128 l 481 1038 q 500 1107 489 1078 q 531 1152 511 1136 q 583 1168 551 1168 q 636 1152 617 1168 q 667 1107 656 1136 q 688 1038 679 1078 l 817 1038 q 772 1183 801 1125 q 695 1269 742 1240 q 583 1297 649 1297 "},"Ō":{"ha":1183,"x_min":69,"x_max":1114,"o":"m 69 510 q 110 307 69 401 q 222 141 150 213 q 388 29 293 69 q 590 -11 482 -11 q 792 29 697 -11 q 959 141 886 69 q 1073 307 1032 213 q 1114 510 1114 401 q 1073 710 1114 615 q 959 877 1032 804 q 792 992 886 950 q 590 1033 697 1033 q 388 992 482 1033 q 222 877 293 950 q 110 710 150 804 q 69 510 69 615 m 278 510 q 301 639 278 579 q 368 744 325 699 q 468 814 411 789 q 592 839 525 839 q 715 814 658 839 q 815 744 772 789 q 881 639 857 699 q 906 510 906 579 q 882 383 906 442 q 817 278 858 324 q 719 208 775 233 q 597 183 663 183 q 472 208 529 183 q 370 278 414 233 q 302 383 326 324 q 278 510 278 442 m 408 1218 l 408 1083 l 763 1083 l 763 1218 l 408 1218 "},"Ǫ":{"ha":1183,"x_min":69,"x_max":1114,"o":"m 590 -11 q 728 9 664 -11 q 851 65 792 29 l 668 0 q 604 -40 631 -15 q 564 -96 578 -65 q 550 -157 550 -126 q 609 -280 550 -237 q 753 -322 668 -322 q 856 -293 801 -322 q 940 -218 910 -264 l 871 -118 q 824 -169 849 -153 q 771 -186 799 -186 q 728 -174 747 -186 q 710 -125 710 -162 q 728 -74 710 -97 q 776 -26 746 -50 q 844 26 807 -1 q 921 89 882 54 q 1015 190 971 132 q 1086 326 1058 247 q 1114 510 1114 404 q 1073 710 1114 615 q 959 877 1032 804 q 792 992 886 950 q 590 1033 697 1033 q 388 992 482 1033 q 222 877 293 950 q 110 710 150 804 q 69 510 69 615 q 110 307 69 401 q 222 141 150 213 q 388 29 293 69 q 590 -11 482 -11 m 597 185 q 472 210 529 185 q 370 280 414 235 q 302 384 326 325 q 278 510 278 443 q 301 635 278 576 q 368 739 325 694 q 468 808 411 783 q 592 833 525 833 q 715 808 658 833 q 815 739 772 783 q 881 635 857 694 q 906 510 906 576 q 882 383 906 442 q 817 279 858 324 q 719 210 775 235 q 597 185 663 185 "},"Ø":{"ha":1192,"x_min":69,"x_max":1114,"o":"m 1071 938 l 946 1054 l 106 83 l 233 -32 l 1071 938 m 69 510 q 110 307 69 401 q 222 141 150 213 q 388 29 293 69 q 590 -11 482 -11 q 792 29 697 -11 q 959 141 886 69 q 1073 307 1032 213 q 1114 510 1114 401 q 1073 710 1114 615 q 959 877 1032 804 q 792 992 886 950 q 590 1033 697 1033 q 388 992 482 1033 q 222 877 293 950 q 110 710 150 804 q 69 510 69 615 m 278 510 q 301 639 278 579 q 368 744 325 699 q 468 814 411 789 q 592 839 525 839 q 715 814 658 839 q 815 744 772 789 q 881 639 857 699 q 906 510 906 579 q 882 383 906 442 q 817 278 858 324 q 719 208 775 233 q 597 183 663 183 q 472 208 529 183 q 370 278 414 233 q 302 383 326 324 q 278 510 278 442 "},"Ǿ":{"ha":1192,"x_min":69,"x_max":1114,"o":"m 1071 938 l 946 1054 l 106 83 l 233 -32 l 1071 938 m 69 510 q 110 307 69 401 q 222 141 150 213 q 388 29 293 69 q 590 -11 482 -11 q 792 29 697 -11 q 959 141 886 69 q 1073 307 1032 213 q 1114 510 1114 401 q 1073 710 1114 615 q 959 877 1032 804 q 792 992 886 950 q 590 1033 697 1033 q 388 992 482 1033 q 222 877 293 950 q 110 710 150 804 q 69 510 69 615 m 278 510 q 301 639 278 579 q 368 744 325 699 q 468 814 411 789 q 592 839 525 839 q 715 814 658 839 q 815 744 772 789 q 881 639 857 699 q 906 510 906 579 q 882 383 906 442 q 817 278 858 324 q 719 208 775 233 q 597 183 663 183 q 472 208 529 183 q 370 278 414 233 q 302 383 326 324 q 278 510 278 442 m 850 1263 l 635 1263 l 526 1075 l 644 1075 l 850 1263 "},"Õ":{"ha":1183,"x_min":69,"x_max":1114,"o":"m 69 510 q 110 307 69 401 q 222 141 150 213 q 388 29 293 69 q 590 -11 482 -11 q 792 29 697 -11 q 959 141 886 69 q 1073 307 1032 213 q 1114 510 1114 401 q 1073 710 1114 615 q 959 877 1032 804 q 792 992 886 950 q 590 1033 697 1033 q 388 992 482 1033 q 222 877 293 950 q 110 710 150 804 q 69 510 69 615 m 278 510 q 301 639 278 579 q 368 744 325 699 q 468 814 411 789 q 592 839 525 839 q 715 814 658 839 q 815 744 772 789 q 881 639 857 699 q 906 510 906 579 q 882 383 906 442 q 817 278 858 324 q 719 208 775 233 q 597 183 663 183 q 472 208 529 183 q 370 278 414 233 q 302 383 326 324 q 278 510 278 442 m 700 1129 q 774 1157 742 1129 q 822 1233 807 1185 q 828 1340 838 1281 l 731 1340 q 727 1276 732 1307 q 696 1244 722 1244 q 663 1257 679 1244 q 626 1286 646 1269 q 575 1325 603 1306 q 513 1344 547 1344 q 423 1314 458 1344 q 372 1235 388 1283 q 363 1132 356 1186 l 460 1132 q 460 1174 457 1153 q 473 1208 463 1194 q 501 1222 483 1222 q 533 1213 518 1222 q 563 1190 547 1203 q 621 1149 589 1169 q 700 1129 653 1129 "},"Ȭ":{"ha":1183,"x_min":69,"x_max":1114,"o":"m 69 510 q 110 307 69 401 q 222 141 150 213 q 388 29 293 69 q 590 -11 482 -11 q 792 29 697 -11 q 959 141 886 69 q 1073 307 1032 213 q 1114 510 1114 401 q 1073 710 1114 615 q 959 877 1032 804 q 792 992 886 950 q 590 1033 697 1033 q 388 992 482 1033 q 222 877 293 950 q 110 710 150 804 q 69 510 69 615 m 278 510 q 301 639 278 579 q 368 744 325 699 q 468 814 411 789 q 592 839 525 839 q 715 814 658 839 q 815 744 772 789 q 881 639 857 699 q 906 510 906 579 q 882 383 906 442 q 817 278 858 324 q 719 208 775 233 q 597 183 663 183 q 472 208 529 183 q 370 278 414 233 q 302 383 326 324 q 278 510 278 442 m 700 1129 q 774 1157 742 1129 q 822 1233 807 1185 q 828 1340 838 1281 l 731 1340 q 727 1276 732 1307 q 696 1244 722 1244 q 663 1257 679 1244 q 626 1286 646 1269 q 575 1325 603 1306 q 513 1344 547 1344 q 423 1314 458 1344 q 372 1235 388 1283 q 363 1132 356 1186 l 460 1132 q 460 1174 457 1153 q 473 1208 463 1194 q 501 1222 483 1222 q 533 1213 518 1222 q 563 1190 547 1203 q 621 1149 589 1169 q 700 1129 653 1129 m 408 1563 l 408 1428 l 763 1428 l 763 1563 l 408 1563 "},"Œ":{"ha":1418,"x_min":82,"x_max":1338,"o":"m 672 825 l 735 1015 q 671 1028 704 1024 q 603 1033 638 1033 q 400 992 494 1033 q 234 877 306 950 q 122 710 163 804 q 82 510 82 615 q 122 307 82 401 q 234 141 163 213 q 400 29 306 69 q 603 -11 494 -11 q 668 -7 636 -11 q 731 6 700 -3 l 679 193 q 610 185 646 185 q 485 210 543 185 q 383 280 428 235 q 315 384 339 325 q 290 510 290 443 q 315 635 290 576 q 382 739 339 694 q 482 808 425 783 q 604 833 539 833 q 639 831 622 833 q 672 825 656 829 m 663 1022 l 663 0 l 1338 0 l 1338 193 l 871 193 l 871 415 l 1261 415 l 1261 607 l 871 607 l 871 835 l 1318 835 l 1318 1022 l 663 1022 "},"P":{"ha":883,"x_min":132,"x_max":835,"o":"m 442 1022 l 132 1022 l 132 0 l 333 0 l 333 324 l 478 324 q 647 355 578 324 q 756 438 715 386 q 816 552 797 489 q 835 678 835 615 q 789 860 835 783 q 656 980 743 938 q 442 1022 568 1022 m 476 519 l 333 519 l 333 828 l 478 828 q 562 810 531 828 q 608 765 593 792 q 628 713 624 739 q 633 672 633 688 q 626 626 633 653 q 601 576 618 600 q 553 535 583 551 q 476 519 522 519 "},"Þ":{"ha":883,"x_min":132,"x_max":835,"o":"m 483 856 l 340 856 l 340 1017 l 132 1017 l 132 0 l 340 0 l 340 157 l 492 157 q 658 188 592 157 q 763 271 725 219 q 818 385 801 322 q 835 511 835 449 q 815 653 835 590 q 754 762 796 717 q 645 831 713 807 q 483 856 578 856 m 469 353 l 340 353 l 340 661 l 471 661 q 567 636 533 661 q 614 576 601 611 q 626 506 626 540 q 617 448 626 475 q 588 399 607 421 q 539 365 568 378 q 469 353 510 353 "},"Q":{"ha":1240,"x_min":69,"x_max":1171,"o":"m 854 197 l 590 0 l 1171 0 l 1171 197 l 854 197 m 69 510 q 110 307 69 401 q 222 141 150 213 q 388 29 293 69 q 590 -11 482 -11 q 792 29 697 -11 q 959 141 886 69 q 1073 307 1032 213 q 1114 510 1114 401 q 1073 710 1114 615 q 959 877 1032 804 q 792 992 886 950 q 590 1033 697 1033 q 388 992 482 1033 q 222 877 293 950 q 110 710 150 804 q 69 510 69 615 m 278 510 q 301 635 278 576 q 368 739 325 694 q 468 808 411 783 q 592 833 525 833 q 715 808 658 833 q 815 739 772 783 q 881 635 857 694 q 906 510 906 576 q 882 383 906 442 q 817 279 858 324 q 719 210 775 235 q 597 185 663 185 q 472 210 529 185 q 370 280 414 235 q 302 384 326 325 q 278 510 278 443 "},"R":{"ha":953,"x_min":132,"x_max":918,"o":"m 442 1022 l 132 1022 l 132 0 l 333 0 l 333 325 l 478 325 q 650 356 581 325 q 762 439 719 388 q 823 553 804 490 q 842 678 842 615 q 815 820 842 757 q 738 928 789 883 q 613 998 688 974 q 442 1022 538 1022 m 476 519 l 333 519 l 333 828 l 478 828 q 562 810 531 828 q 608 765 593 792 q 628 713 624 739 q 633 671 633 688 q 626 623 633 649 q 601 574 618 597 q 553 535 583 550 q 476 519 522 519 m 665 394 l 425 389 l 683 0 l 918 0 l 665 394 "},"Ŕ":{"ha":953,"x_min":132,"x_max":918,"o":"m 442 1022 l 132 1022 l 132 0 l 333 0 l 333 325 l 478 325 q 650 356 581 325 q 762 439 719 388 q 823 553 804 490 q 842 678 842 615 q 815 820 842 757 q 738 928 789 883 q 613 998 688 974 q 442 1022 538 1022 m 476 519 l 333 519 l 333 828 l 478 828 q 562 810 531 828 q 608 765 593 792 q 628 713 624 739 q 633 671 633 688 q 626 623 633 649 q 601 574 618 597 q 553 535 583 550 q 476 519 522 519 m 665 394 l 425 389 l 683 0 l 918 0 l 665 394 m 704 1276 l 489 1276 l 381 1089 l 499 1089 l 704 1276 "},"Ř":{"ha":953,"x_min":132,"x_max":918,"o":"m 442 1022 l 132 1022 l 132 0 l 333 0 l 333 325 l 478 325 q 650 356 581 325 q 762 439 719 388 q 823 553 804 490 q 842 678 842 615 q 815 820 842 757 q 738 928 789 883 q 613 998 688 974 q 442 1022 538 1022 m 476 519 l 333 519 l 333 828 l 478 828 q 562 810 531 828 q 608 765 593 792 q 628 713 624 739 q 633 671 633 688 q 626 623 633 649 q 601 574 618 597 q 553 535 583 550 q 476 519 522 519 m 665 394 l 425 389 l 683 0 l 918 0 l 665 394 m 357 1329 l 182 1329 l 444 1074 l 446 1074 l 703 1329 l 528 1329 l 418 1213 l 465 1226 l 357 1329 "},"Ŗ":{"ha":953,"x_min":132,"x_max":918,"o":"m 442 1022 l 132 1022 l 132 0 l 333 0 l 333 325 l 478 325 q 650 356 581 325 q 762 439 719 388 q 823 553 804 490 q 842 678 842 615 q 815 820 842 757 q 738 928 789 883 q 613 998 688 974 q 442 1022 538 1022 m 476 519 l 333 519 l 333 828 l 478 828 q 562 810 531 828 q 608 765 593 792 q 628 713 624 739 q 633 671 633 688 q 626 623 633 649 q 601 574 618 597 q 553 535 583 550 q 476 519 522 519 m 665 394 l 425 389 l 683 0 l 918 0 l 665 394 m 467 -325 q 537 -252 508 -297 q 578 -158 565 -207 q 583 -69 592 -108 l 414 -68 q 410 -173 424 -117 q 367 -258 397 -229 l 467 -325 "},"Ȑ":{"ha":953,"x_min":118,"x_max":918,"o":"m 442 1022 l 132 1022 l 132 0 l 333 0 l 333 325 l 478 325 q 650 356 581 325 q 762 439 719 388 q 823 553 804 490 q 842 678 842 615 q 815 820 842 757 q 738 928 789 883 q 613 998 688 974 q 442 1022 538 1022 m 476 519 l 333 519 l 333 828 l 478 828 q 562 810 531 828 q 608 765 593 792 q 628 713 624 739 q 633 671 633 688 q 626 623 633 649 q 601 574 618 597 q 553 535 583 550 q 476 519 522 519 m 665 394 l 425 389 l 683 0 l 918 0 l 665 394 m 118 1286 l 301 1099 l 419 1099 l 333 1286 l 118 1286 m 354 1286 l 538 1099 l 656 1099 l 569 1286 l 354 1286 "},"Ȓ":{"ha":953,"x_min":132,"x_max":918,"o":"m 442 1022 l 132 1022 l 132 0 l 333 0 l 333 325 l 478 325 q 650 356 581 325 q 762 439 719 388 q 823 553 804 490 q 842 678 842 615 q 815 820 842 757 q 738 928 789 883 q 613 998 688 974 q 442 1022 538 1022 m 476 519 l 333 519 l 333 828 l 478 828 q 562 810 531 828 q 608 765 593 792 q 628 713 624 739 q 633 671 633 688 q 626 623 633 649 q 601 574 618 597 q 553 535 583 550 q 476 519 522 519 m 665 394 l 425 389 l 683 0 l 918 0 l 665 394 m 438 1311 q 327 1284 374 1311 q 251 1199 281 1257 q 206 1051 221 1142 l 335 1051 q 354 1121 343 1092 q 385 1166 365 1150 q 438 1182 406 1182 q 490 1166 471 1182 q 522 1121 510 1150 q 542 1051 533 1092 l 671 1051 q 626 1197 656 1139 q 549 1283 596 1254 q 438 1311 503 1311 "},"S":{"ha":810,"x_min":44,"x_max":754,"o":"m 678 775 l 754 929 q 616 999 693 969 q 415 1028 539 1028 q 249 985 321 1024 q 137 882 176 947 q 97 728 97 817 q 124 603 97 654 q 195 519 151 553 q 289 461 239 485 q 386 419 339 438 q 460 383 426 404 q 515 338 494 363 q 535 282 535 313 q 510 213 535 238 q 449 177 486 188 q 376 167 413 167 q 297 178 340 167 q 212 209 254 189 q 133 256 169 229 l 44 99 q 157 37 99 61 q 276 1 215 13 q 394 -11 336 -11 q 586 30 508 -11 q 704 138 664 71 q 744 282 744 204 q 724 406 744 356 q 668 491 703 457 q 590 548 633 525 q 501 588 546 571 q 408 628 453 606 q 334 678 363 650 q 306 743 306 707 q 343 822 306 796 q 446 849 381 849 q 559 828 499 849 q 678 775 619 807 "},"Ś":{"ha":810,"x_min":44,"x_max":754,"o":"m 678 775 l 754 929 q 616 999 693 969 q 415 1028 539 1028 q 249 985 321 1024 q 137 882 176 947 q 97 728 97 817 q 124 603 97 654 q 195 519 151 553 q 289 461 239 485 q 386 419 339 438 q 460 383 426 404 q 515 338 494 363 q 535 282 535 313 q 510 213 535 238 q 449 177 486 188 q 376 167 413 167 q 297 178 340 167 q 212 209 254 189 q 133 256 169 229 l 44 99 q 157 37 99 61 q 276 1 215 13 q 394 -11 336 -11 q 586 30 508 -11 q 704 138 664 71 q 744 282 744 204 q 724 406 744 356 q 668 491 703 457 q 590 548 633 525 q 501 588 546 571 q 408 628 453 606 q 334 678 363 650 q 306 743 306 707 q 343 822 306 796 q 446 849 381 849 q 559 828 499 849 q 678 775 619 807 m 660 1249 l 444 1249 l 336 1061 l 454 1061 l 660 1249 "},"Š":{"ha":810,"x_min":44,"x_max":754,"o":"m 678 775 l 754 929 q 616 999 693 969 q 415 1028 539 1028 q 249 985 321 1024 q 137 882 176 947 q 97 728 97 817 q 124 603 97 654 q 195 519 151 553 q 289 461 239 485 q 386 419 339 438 q 460 383 426 404 q 515 338 494 363 q 535 282 535 313 q 510 213 535 238 q 449 177 486 188 q 376 167 413 167 q 297 178 340 167 q 212 209 254 189 q 133 256 169 229 l 44 99 q 157 37 99 61 q 276 1 215 13 q 394 -11 336 -11 q 586 30 508 -11 q 704 138 664 71 q 744 282 744 204 q 724 406 744 356 q 668 491 703 457 q 590 548 633 525 q 501 588 546 571 q 408 628 453 606 q 334 678 363 650 q 306 743 306 707 q 343 822 306 796 q 446 849 381 849 q 559 828 499 849 q 678 775 619 807 m 313 1301 l 138 1301 l 400 1046 l 401 1046 l 658 1301 l 483 1301 l 374 1185 l 421 1199 l 313 1301 "},"Ş":{"ha":810,"x_min":44,"x_max":754,"o":"m 678 775 l 754 929 q 616 999 693 969 q 415 1028 539 1028 q 249 985 321 1024 q 137 882 176 947 q 97 728 97 817 q 124 603 97 654 q 195 519 151 553 q 289 461 239 485 q 386 419 339 438 q 460 383 426 404 q 515 338 494 363 q 535 282 535 313 q 510 213 535 238 q 449 177 486 188 q 376 167 413 167 q 297 178 340 167 q 212 209 254 189 q 133 256 169 229 l 44 99 q 157 37 99 61 q 276 1 215 13 q 394 -11 336 -11 q 586 30 508 -11 q 704 138 664 71 q 744 282 744 204 q 724 406 744 356 q 668 491 703 457 q 590 548 633 525 q 501 588 546 571 q 408 628 453 606 q 334 678 363 650 q 306 743 306 707 q 343 822 306 796 q 446 849 381 849 q 559 828 499 849 q 678 775 619 807 m 288 -203 l 228 -279 q 290 -323 251 -304 q 390 -342 329 -342 q 495 -325 446 -342 q 576 -274 544 -308 q 607 -187 607 -240 q 553 -90 607 -122 q 422 -61 500 -58 q 394 -64 408 -62 q 364 -68 379 -65 l 400 -117 l 507 3 l 358 3 l 263 -68 l 289 -160 q 329 -149 308 -154 q 372 -144 350 -144 q 432 -160 418 -144 q 446 -190 446 -175 q 420 -228 446 -215 q 371 -240 394 -240 q 323 -230 344 -240 q 288 -203 301 -219 "},"Ŝ":{"ha":810,"x_min":44,"x_max":754,"o":"m 678 775 l 754 929 q 616 999 693 969 q 415 1028 539 1028 q 249 985 321 1024 q 137 882 176 947 q 97 728 97 817 q 124 603 97 654 q 195 519 151 553 q 289 461 239 485 q 386 419 339 438 q 460 383 426 404 q 515 338 494 363 q 535 282 535 313 q 510 213 535 238 q 449 177 486 188 q 376 167 413 167 q 297 178 340 167 q 212 209 254 189 q 133 256 169 229 l 44 99 q 157 37 99 61 q 276 1 215 13 q 394 -11 336 -11 q 586 30 508 -11 q 704 138 664 71 q 744 282 744 204 q 724 406 744 356 q 668 491 703 457 q 590 548 633 525 q 501 588 546 571 q 408 628 453 606 q 334 678 363 650 q 306 743 306 707 q 343 822 306 796 q 446 849 381 849 q 559 828 499 849 q 678 775 619 807 m 475 1078 l 650 1078 l 388 1333 l 386 1333 l 129 1078 l 304 1078 l 414 1194 l 367 1181 l 475 1078 "},"Ș":{"ha":810,"x_min":44,"x_max":754,"o":"m 678 775 l 754 929 q 616 999 693 969 q 415 1028 539 1028 q 249 985 321 1024 q 137 882 176 947 q 97 728 97 817 q 124 603 97 654 q 195 519 151 553 q 289 461 239 485 q 386 419 339 438 q 460 383 426 404 q 515 338 494 363 q 535 282 535 313 q 510 213 535 238 q 449 177 486 188 q 376 167 413 167 q 297 178 340 167 q 212 209 254 189 q 133 256 169 229 l 44 99 q 157 37 99 61 q 276 1 215 13 q 394 -11 336 -11 q 586 30 508 -11 q 704 138 664 71 q 744 282 744 204 q 724 406 744 356 q 668 491 703 457 q 590 548 633 525 q 501 588 546 571 q 408 628 453 606 q 334 678 363 650 q 306 743 306 707 q 343 822 306 796 q 446 849 381 849 q 559 828 499 849 q 678 775 619 807 m 367 -339 q 437 -266 408 -311 q 478 -172 465 -221 q 483 -83 492 -122 l 314 -82 q 310 -187 324 -131 q 267 -272 297 -243 l 367 -339 "},"ẞ":{"ha":1165,"x_min":132,"x_max":1110,"o":"m 788 -11 q 965 30 893 -11 q 1073 138 1036 71 q 1110 282 1110 204 q 1089 398 1110 350 q 1034 480 1068 446 q 960 540 1000 514 q 881 588 919 565 q 817 628 849 608 q 766 674 786 649 q 746 736 746 700 q 755 783 746 763 q 782 815 764 803 q 825 826 800 826 q 863 819 847 826 q 888 806 878 813 l 940 954 q 844 1020 908 989 q 703 1072 781 1051 q 553 1092 626 1092 q 326 1028 421 1092 q 182 849 232 964 q 132 585 132 735 l 132 0 l 335 0 l 335 579 q 364 781 335 703 q 447 895 393 858 q 574 932 500 932 q 707 908 643 932 q 822 829 771 883 l 885 929 q 847 954 869 946 q 793 963 825 963 q 663 926 718 957 q 576 838 607 894 q 546 703 546 782 q 581 575 546 629 q 666 483 615 521 q 765 419 717 446 q 832 380 801 400 q 881 336 863 360 q 900 282 900 313 q 880 213 900 238 q 829 177 860 188 q 769 167 799 167 q 647 192 715 167 q 526 256 579 217 l 438 99 q 609 15 518 42 q 788 -11 700 -11 "},"Ə":{"ha":1090,"x_min":56,"x_max":1021,"o":"m 522 1032 q 397 1011 467 1032 q 262 956 326 990 q 158 882 197 922 l 258 718 q 328 778 285 751 q 422 819 371 804 q 518 835 472 835 q 622 813 571 835 q 715 751 672 792 q 782 653 757 711 q 807 524 807 596 q 785 387 807 450 q 724 277 763 324 q 637 205 686 231 q 533 179 588 179 q 374 245 433 179 q 292 408 315 311 l 229 349 l 888 569 l 844 717 l 56 461 q 141 213 79 315 q 299 55 203 110 q 518 0 394 0 q 711 40 621 0 q 872 153 801 81 q 981 322 942 225 q 1021 535 1021 419 q 987 732 1021 642 q 888 890 953 822 q 731 994 824 957 q 522 1032 639 1032 "},"T":{"ha":814,"x_min":63,"x_max":751,"o":"m 63 1022 l 63 828 l 301 828 l 301 0 l 503 0 l 503 828 l 751 828 l 751 1022 l 63 1022 "},"Ŧ":{"ha":814,"x_min":63,"x_max":751,"o":"m 63 1022 l 63 828 l 301 828 l 301 0 l 503 0 l 503 828 l 751 828 l 751 1022 l 63 1022 m 182 596 l 182 415 l 619 415 l 619 596 l 182 596 "},"Ť":{"ha":814,"x_min":63,"x_max":751,"o":"m 63 1022 l 63 828 l 301 828 l 301 0 l 503 0 l 503 828 l 751 828 l 751 1022 l 63 1022 m 318 1301 l 143 1301 l 406 1046 l 407 1046 l 664 1301 l 489 1301 l 379 1185 l 426 1199 l 318 1301 "},"Ţ":{"ha":814,"x_min":63,"x_max":751,"o":"m 63 1022 l 63 828 l 301 828 l 301 0 l 503 0 l 503 828 l 751 828 l 751 1022 l 63 1022 m 293 -189 l 233 -265 q 296 -309 257 -290 q 396 -328 335 -328 q 501 -311 451 -328 q 581 -260 550 -294 q 613 -174 613 -226 q 559 -76 613 -108 q 428 -47 506 -44 q 399 -50 414 -49 q 369 -54 385 -51 l 406 -103 l 513 17 l 364 17 l 268 -54 l 294 -146 q 335 -135 314 -140 q 378 -131 356 -131 q 438 -146 424 -131 q 451 -176 451 -161 q 426 -214 451 -201 q 376 -226 400 -226 q 328 -216 350 -226 q 293 -189 307 -206 "},"Ț":{"ha":814,"x_min":63,"x_max":751,"o":"m 63 1022 l 63 828 l 301 828 l 301 0 l 503 0 l 503 828 l 751 828 l 751 1022 l 63 1022 m 372 -325 q 442 -252 414 -297 q 484 -158 471 -207 q 489 -69 497 -108 l 319 -68 q 316 -173 329 -117 q 272 -258 303 -229 l 372 -325 "},"U":{"ha":1050,"x_min":111,"x_max":939,"o":"m 313 378 l 313 1022 l 111 1022 l 111 374 q 167 174 111 261 q 316 38 222 88 q 524 -11 410 -11 l 524 -11 q 733 38 639 -11 q 883 174 828 88 q 939 374 939 261 l 939 1022 l 740 1022 l 740 378 q 712 285 740 329 q 635 213 683 240 q 524 185 586 185 q 419 213 467 185 q 342 285 371 240 q 313 378 313 329 "},"Ú":{"ha":1050,"x_min":111,"x_max":939,"o":"m 313 378 l 313 1022 l 111 1022 l 111 374 q 167 174 111 261 q 316 38 222 88 q 524 -11 410 -11 l 524 -11 q 733 38 639 -11 q 883 174 828 88 q 939 374 939 261 l 939 1022 l 740 1022 l 740 378 q 712 285 740 329 q 635 213 683 240 q 524 185 586 185 q 419 213 467 185 q 342 285 371 240 q 313 378 313 329 m 783 1276 l 568 1276 l 460 1089 l 578 1089 l 783 1276 "},"Ŭ":{"ha":1050,"x_min":111,"x_max":939,"o":"m 313 378 l 313 1022 l 111 1022 l 111 374 q 167 174 111 261 q 316 38 222 88 q 524 -11 410 -11 l 524 -11 q 733 38 639 -11 q 883 174 828 88 q 939 374 939 261 l 939 1022 l 740 1022 l 740 378 q 712 285 740 329 q 635 213 683 240 q 524 185 586 185 q 419 213 467 185 q 342 285 371 240 q 313 378 313 329 m 525 1089 q 636 1116 590 1089 q 712 1201 682 1143 q 757 1349 742 1258 l 628 1349 q 608 1280 619 1310 q 578 1234 597 1250 q 525 1218 558 1218 q 473 1234 493 1218 q 441 1280 453 1250 q 421 1349 429 1310 l 292 1349 q 337 1203 307 1261 q 413 1117 367 1146 q 525 1089 460 1089 "},"Ǔ":{"ha":1050,"x_min":111,"x_max":939,"o":"m 313 378 l 313 1022 l 111 1022 l 111 374 q 167 174 111 261 q 316 38 222 88 q 524 -11 410 -11 l 524 -11 q 733 38 639 -11 q 883 174 828 88 q 939 374 939 261 l 939 1022 l 740 1022 l 740 378 q 712 285 740 329 q 635 213 683 240 q 524 185 586 185 q 419 213 467 185 q 342 285 371 240 q 313 378 313 329 m 436 1329 l 261 1329 l 524 1074 l 525 1074 l 782 1329 l 607 1329 l 497 1213 l 544 1226 l 436 1329 "},"Û":{"ha":1050,"x_min":111,"x_max":939,"o":"m 313 378 l 313 1022 l 111 1022 l 111 374 q 167 174 111 261 q 316 38 222 88 q 524 -11 410 -11 l 524 -11 q 733 38 639 -11 q 883 174 828 88 q 939 374 939 261 l 939 1022 l 740 1022 l 740 378 q 712 285 740 329 q 635 213 683 240 q 524 185 586 185 q 419 213 467 185 q 342 285 371 240 q 313 378 313 329 m 599 1106 l 774 1106 l 511 1361 l 510 1361 l 253 1106 l 428 1106 l 538 1222 l 490 1208 l 599 1106 "},"Ȕ":{"ha":1050,"x_min":111,"x_max":939,"o":"m 313 378 l 313 1022 l 111 1022 l 111 374 q 167 174 111 261 q 316 38 222 88 q 524 -11 410 -11 l 524 -11 q 733 38 639 -11 q 883 174 828 88 q 939 374 939 261 l 939 1022 l 740 1022 l 740 378 q 712 285 740 329 q 635 213 683 240 q 524 185 586 185 q 419 213 467 185 q 342 285 371 240 q 313 378 313 329 m 197 1286 l 381 1099 l 499 1099 l 413 1286 l 197 1286 m 433 1286 l 617 1099 l 735 1099 l 649 1286 l 433 1286 "},"Ü":{"ha":1050,"x_min":111,"x_max":939,"o":"m 313 378 l 313 1022 l 111 1022 l 111 374 q 167 174 111 261 q 316 38 222 88 q 524 -11 410 -11 l 524 -11 q 733 38 639 -11 q 883 174 828 88 q 939 374 939 261 l 939 1022 l 740 1022 l 740 378 q 712 285 740 329 q 635 213 683 240 q 524 185 586 185 q 419 213 467 185 q 342 285 371 240 q 313 378 313 329 m 278 1186 l 278 1186 q 309 1114 278 1142 q 378 1086 340 1086 q 444 1114 413 1086 q 475 1186 475 1142 q 444 1259 475 1231 q 378 1288 413 1288 q 309 1259 340 1288 q 278 1186 278 1231 m 556 1186 l 556 1186 q 587 1114 556 1142 q 656 1086 618 1086 q 722 1114 690 1086 q 753 1186 753 1142 q 722 1259 753 1231 q 656 1288 690 1288 q 587 1259 618 1288 q 556 1186 556 1231 "},"Ụ":{"ha":1050,"x_min":111,"x_max":939,"o":"m 313 378 l 313 1022 l 111 1022 l 111 374 q 167 174 111 261 q 316 38 222 88 q 524 -11 410 -11 l 524 -11 q 733 38 639 -11 q 883 174 828 88 q 939 374 939 261 l 939 1022 l 740 1022 l 740 378 q 712 285 740 329 q 635 213 683 240 q 524 185 586 185 q 419 213 467 185 q 342 285 371 240 q 313 378 313 329 m 415 -162 q 449 -233 415 -206 q 522 -260 483 -260 q 594 -233 561 -260 q 626 -162 626 -206 q 594 -92 626 -119 q 522 -64 561 -64 q 449 -92 483 -64 q 415 -162 415 -119 "},"Ù":{"ha":1050,"x_min":111,"x_max":939,"o":"m 313 378 l 313 1022 l 111 1022 l 111 374 q 167 174 111 261 q 316 38 222 88 q 524 -11 410 -11 l 524 -11 q 733 38 639 -11 q 883 174 828 88 q 939 374 939 261 l 939 1022 l 740 1022 l 740 378 q 712 285 740 329 q 635 213 683 240 q 524 185 586 185 q 419 213 467 185 q 342 285 371 240 q 313 378 313 329 m 267 1282 l 450 1094 l 568 1094 l 482 1282 l 267 1282 "},"Ủ":{"ha":1050,"x_min":111,"x_max":939,"o":"m 313 378 l 313 1022 l 111 1022 l 111 374 q 167 174 111 261 q 316 38 222 88 q 524 -11 410 -11 l 524 -11 q 733 38 639 -11 q 883 174 828 88 q 939 374 939 261 l 939 1022 l 740 1022 l 740 378 q 712 285 740 329 q 635 213 683 240 q 524 185 586 185 q 419 213 467 185 q 342 285 371 240 q 313 378 313 329 m 511 1164 l 551 1113 q 636 1175 600 1139 q 672 1265 672 1211 q 660 1322 672 1293 q 622 1369 649 1350 q 551 1388 596 1388 q 467 1363 508 1388 q 401 1288 425 1339 l 471 1246 q 492 1272 478 1261 q 525 1283 507 1283 q 556 1270 547 1283 q 565 1238 565 1257 q 550 1197 565 1214 q 511 1164 535 1181 "},"Ư":{"ha":1099,"x_min":111,"x_max":1147,"o":"m 313 378 l 313 1022 l 111 1022 l 111 374 q 167 174 111 261 q 316 38 222 88 q 524 -11 410 -11 l 524 -11 q 733 38 639 -11 q 883 174 828 88 q 939 374 939 261 l 939 1022 l 740 1022 l 740 378 q 712 285 740 329 q 635 213 683 240 q 524 185 586 185 q 419 213 467 185 q 342 285 371 240 q 313 378 313 329 m 908 925 l 908 810 q 1022 826 974 810 q 1101 890 1069 843 q 1147 1028 1132 938 l 1004 1028 q 974 947 992 968 q 908 925 957 925 "},"Ứ":{"ha":1099,"x_min":111,"x_max":1147,"o":"m 313 378 l 313 1022 l 111 1022 l 111 374 q 167 174 111 261 q 316 38 222 88 q 524 -11 410 -11 l 524 -11 q 733 38 639 -11 q 883 174 828 88 q 939 374 939 261 l 939 1022 l 740 1022 l 740 378 q 712 285 740 329 q 635 213 683 240 q 524 185 586 185 q 419 213 467 185 q 342 285 371 240 q 313 378 313 329 m 908 925 l 908 810 q 1022 826 974 810 q 1101 890 1069 843 q 1147 1028 1132 938 l 1004 1028 q 974 947 992 968 q 908 925 957 925 m 783 1276 l 568 1276 l 460 1089 l 578 1089 l 783 1276 "},"Ự":{"ha":1099,"x_min":111,"x_max":1147,"o":"m 313 378 l 313 1022 l 111 1022 l 111 374 q 167 174 111 261 q 316 38 222 88 q 524 -11 410 -11 l 524 -11 q 733 38 639 -11 q 883 174 828 88 q 939 374 939 261 l 939 1022 l 740 1022 l 740 378 q 712 285 740 329 q 635 213 683 240 q 524 185 586 185 q 419 213 467 185 q 342 285 371 240 q 313 378 313 329 m 908 925 l 908 810 q 1022 826 974 810 q 1101 890 1069 843 q 1147 1028 1132 938 l 1004 1028 q 974 947 992 968 q 908 925 957 925 m 415 -162 q 449 -233 415 -206 q 522 -260 483 -260 q 594 -233 561 -260 q 626 -162 626 -206 q 594 -92 626 -119 q 522 -64 561 -64 q 449 -92 483 -64 q 415 -162 415 -119 "},"Ừ":{"ha":1099,"x_min":111,"x_max":1147,"o":"m 313 378 l 313 1022 l 111 1022 l 111 374 q 167 174 111 261 q 316 38 222 88 q 524 -11 410 -11 l 524 -11 q 733 38 639 -11 q 883 174 828 88 q 939 374 939 261 l 939 1022 l 740 1022 l 740 378 q 712 285 740 329 q 635 213 683 240 q 524 185 586 185 q 419 213 467 185 q 342 285 371 240 q 313 378 313 329 m 908 925 l 908 810 q 1022 826 974 810 q 1101 890 1069 843 q 1147 1028 1132 938 l 1004 1028 q 974 947 992 968 q 908 925 957 925 m 267 1282 l 450 1094 l 568 1094 l 482 1282 l 267 1282 "},"Ử":{"ha":1099,"x_min":111,"x_max":1147,"o":"m 313 378 l 313 1022 l 111 1022 l 111 374 q 167 174 111 261 q 316 38 222 88 q 524 -11 410 -11 l 524 -11 q 733 38 639 -11 q 883 174 828 88 q 939 374 939 261 l 939 1022 l 740 1022 l 740 378 q 712 285 740 329 q 635 213 683 240 q 524 185 586 185 q 419 213 467 185 q 342 285 371 240 q 313 378 313 329 m 908 925 l 908 810 q 1022 826 974 810 q 1101 890 1069 843 q 1147 1028 1132 938 l 1004 1028 q 974 947 992 968 q 908 925 957 925 m 511 1164 l 551 1113 q 636 1175 600 1139 q 672 1265 672 1211 q 660 1322 672 1293 q 622 1369 649 1350 q 551 1388 596 1388 q 467 1363 508 1388 q 401 1288 425 1339 l 471 1246 q 492 1272 478 1261 q 525 1283 507 1283 q 556 1270 547 1283 q 565 1238 565 1257 q 550 1197 565 1214 q 511 1164 535 1181 "},"Ữ":{"ha":1099,"x_min":111,"x_max":1147,"o":"m 313 378 l 313 1022 l 111 1022 l 111 374 q 167 174 111 261 q 316 38 222 88 q 524 -11 410 -11 l 524 -11 q 733 38 639 -11 q 883 174 828 88 q 939 374 939 261 l 939 1022 l 740 1022 l 740 378 q 712 285 740 329 q 635 213 683 240 q 524 185 586 185 q 419 213 467 185 q 342 285 371 240 q 313 378 313 329 m 908 925 l 908 810 q 1022 826 974 810 q 1101 890 1069 843 q 1147 1028 1132 938 l 1004 1028 q 974 947 992 968 q 908 925 957 925 m 633 1143 q 708 1171 675 1143 q 756 1247 740 1199 q 761 1354 771 1294 l 664 1354 q 660 1290 665 1321 q 629 1258 656 1258 q 596 1271 613 1258 q 560 1300 579 1283 q 508 1339 536 1319 q 446 1358 481 1358 q 356 1328 392 1358 q 305 1249 321 1297 q 296 1146 289 1200 l 393 1146 q 393 1188 390 1167 q 406 1222 396 1208 q 435 1236 417 1236 q 466 1226 451 1236 q 496 1204 481 1217 q 554 1163 522 1183 q 633 1143 586 1143 "},"Ű":{"ha":1050,"x_min":111,"x_max":939,"o":"m 313 378 l 313 1022 l 111 1022 l 111 374 q 167 174 111 261 q 316 38 222 88 q 524 -11 410 -11 l 524 -11 q 733 38 639 -11 q 883 174 828 88 q 939 374 939 261 l 939 1022 l 740 1022 l 740 378 q 712 285 740 329 q 635 213 683 240 q 524 185 586 185 q 419 213 467 185 q 342 285 371 240 q 313 378 313 329 m 599 1285 l 383 1285 l 275 1097 l 393 1097 l 599 1285 m 854 1282 l 639 1282 l 531 1094 l 649 1094 l 854 1282 "},"Ȗ":{"ha":1050,"x_min":111,"x_max":939,"o":"m 313 378 l 313 1022 l 111 1022 l 111 374 q 167 174 111 261 q 316 38 222 88 q 524 -11 410 -11 l 524 -11 q 733 38 639 -11 q 883 174 828 88 q 939 374 939 261 l 939 1022 l 740 1022 l 740 378 q 712 285 740 329 q 635 213 683 240 q 524 185 586 185 q 419 213 467 185 q 342 285 371 240 q 313 378 313 329 m 517 1311 q 406 1284 453 1311 q 330 1199 360 1257 q 285 1051 300 1142 l 414 1051 q 433 1121 422 1092 q 465 1166 444 1150 q 517 1182 485 1182 q 569 1166 550 1182 q 601 1121 589 1150 q 621 1051 613 1092 l 750 1051 q 705 1197 735 1139 q 628 1283 675 1254 q 517 1311 582 1311 "},"Ū":{"ha":1050,"x_min":111,"x_max":939,"o":"m 313 378 l 313 1022 l 111 1022 l 111 374 q 167 174 111 261 q 316 38 222 88 q 524 -11 410 -11 l 524 -11 q 733 38 639 -11 q 883 174 828 88 q 939 374 939 261 l 939 1022 l 740 1022 l 740 378 q 712 285 740 329 q 635 213 683 240 q 524 185 586 185 q 419 213 467 185 q 342 285 371 240 q 313 378 313 329 m 342 1232 l 342 1097 l 696 1097 l 696 1232 l 342 1232 "},"Ų":{"ha":1050,"x_min":111,"x_max":939,"o":"m 676 -322 q 779 -293 725 -322 q 864 -218 833 -264 l 794 -118 q 747 -169 772 -153 q 694 -186 722 -186 q 652 -174 671 -186 q 633 -128 633 -162 q 668 -40 633 -78 q 749 36 703 -3 q 837 115 793 72 q 910 218 881 158 q 939 361 939 278 l 939 1022 l 740 1022 l 740 378 q 712 285 740 329 q 635 213 683 240 q 524 185 586 185 q 419 213 467 185 q 342 285 371 240 q 313 378 313 329 l 313 1022 l 111 1022 l 111 374 q 162 176 111 263 q 306 39 213 89 q 524 -11 399 -11 q 671 13 600 -11 l 649 96 l 592 14 q 504 -53 535 -8 q 474 -143 474 -97 q 533 -273 474 -224 q 676 -322 592 -322 "},"Ů":{"ha":1050,"x_min":111,"x_max":939,"o":"m 313 378 l 313 1022 l 111 1022 l 111 374 q 167 174 111 261 q 316 38 222 88 q 524 -11 410 -11 l 524 -11 q 733 38 639 -11 q 883 174 828 88 q 939 374 939 261 l 939 1022 l 740 1022 l 740 378 q 712 285 740 329 q 635 213 683 240 q 524 185 586 185 q 419 213 467 185 q 342 285 371 240 q 313 378 313 329 m 375 1222 q 419 1117 375 1157 q 531 1076 464 1076 q 640 1117 596 1076 q 685 1222 685 1157 q 640 1328 685 1289 q 531 1367 596 1367 q 419 1328 463 1367 q 375 1222 375 1289 m 476 1219 q 491 1263 476 1249 q 531 1278 506 1278 q 570 1263 556 1278 q 585 1219 585 1249 q 570 1178 585 1193 q 531 1163 556 1163 q 491 1178 506 1163 q 476 1219 476 1193 "},"Ũ":{"ha":1050,"x_min":111,"x_max":939,"o":"m 313 378 l 313 1022 l 111 1022 l 111 374 q 167 174 111 261 q 316 38 222 88 q 524 -11 410 -11 l 524 -11 q 733 38 639 -11 q 883 174 828 88 q 939 374 939 261 l 939 1022 l 740 1022 l 740 378 q 712 285 740 329 q 635 213 683 240 q 524 185 586 185 q 419 213 467 185 q 342 285 371 240 q 313 378 313 329 m 633 1143 q 708 1171 675 1143 q 756 1247 740 1199 q 761 1354 771 1294 l 664 1354 q 660 1290 665 1321 q 629 1258 656 1258 q 596 1271 613 1258 q 560 1300 579 1283 q 508 1339 536 1319 q 446 1358 481 1358 q 356 1328 392 1358 q 305 1249 321 1297 q 296 1146 289 1200 l 393 1146 q 393 1188 390 1167 q 406 1222 396 1208 q 435 1236 417 1236 q 466 1226 451 1236 q 496 1204 481 1217 q 554 1163 522 1183 q 633 1143 586 1143 "},"V":{"ha":1022,"x_min":44,"x_max":978,"o":"m 286 1022 l 44 1022 l 511 -47 l 978 1022 l 739 1022 l 468 310 l 585 286 l 286 1022 "},"W":{"ha":1421,"x_min":44,"x_max":1376,"o":"m 44 1015 l 456 -47 l 750 585 l 657 861 l 467 388 l 499 374 l 281 1015 l 44 1015 m 557 1015 l 982 -44 l 1376 1015 l 1160 1015 l 972 400 l 1008 394 l 757 1015 l 557 1015 "},"Ẃ":{"ha":1421,"x_min":44,"x_max":1376,"o":"m 44 1015 l 456 -47 l 750 585 l 657 861 l 467 388 l 499 374 l 281 1015 l 44 1015 m 557 1015 l 982 -44 l 1376 1015 l 1160 1015 l 972 400 l 1008 394 l 757 1015 l 557 1015 m 969 1263 l 754 1263 l 646 1075 l 764 1075 l 969 1263 "},"Ŵ":{"ha":1421,"x_min":44,"x_max":1376,"o":"m 44 1015 l 456 -47 l 750 585 l 657 861 l 467 388 l 499 374 l 281 1015 l 44 1015 m 557 1015 l 982 -44 l 1376 1015 l 1160 1015 l 972 400 l 1008 394 l 757 1015 l 557 1015 m 785 1092 l 960 1092 l 697 1347 l 696 1347 l 439 1092 l 614 1092 l 724 1208 l 676 1194 l 785 1092 "},"Ẅ":{"ha":1421,"x_min":44,"x_max":1376,"o":"m 44 1015 l 456 -47 l 750 585 l 657 861 l 467 388 l 499 374 l 281 1015 l 44 1015 m 557 1015 l 982 -44 l 1376 1015 l 1160 1015 l 972 400 l 1008 394 l 757 1015 l 557 1015 m 464 1172 l 464 1172 q 495 1100 464 1128 q 564 1072 526 1072 q 630 1100 599 1072 q 661 1172 661 1128 q 630 1245 661 1217 q 564 1274 599 1274 q 495 1245 526 1274 q 464 1172 464 1217 m 742 1172 l 742 1172 q 773 1100 742 1128 q 842 1072 804 1072 q 908 1100 876 1072 q 939 1172 939 1128 q 908 1245 939 1217 q 842 1274 876 1274 q 773 1245 804 1274 q 742 1172 742 1217 "},"Ẁ":{"ha":1421,"x_min":44,"x_max":1376,"o":"m 44 1015 l 456 -47 l 750 585 l 657 861 l 467 388 l 499 374 l 281 1015 l 44 1015 m 557 1015 l 982 -44 l 1376 1015 l 1160 1015 l 972 400 l 1008 394 l 757 1015 l 557 1015 m 453 1268 l 636 1081 l 754 1081 l 668 1268 l 453 1268 "},"X":{"ha":1007,"x_min":35,"x_max":972,"o":"m 49 1022 l 713 0 l 972 0 l 306 1022 l 49 1022 m 35 0 l 285 0 l 493 369 l 399 572 l 35 0 m 507 647 l 611 474 l 963 1022 l 718 1022 l 507 647 "},"Y":{"ha":1003,"x_min":21,"x_max":982,"o":"m 397 318 l 397 0 l 599 0 l 599 318 l 982 1022 l 733 1022 l 474 488 l 533 492 l 269 1022 l 21 1022 l 397 318 "},"Ý":{"ha":1003,"x_min":21,"x_max":982,"o":"m 397 318 l 397 0 l 599 0 l 599 318 l 982 1022 l 733 1022 l 474 488 l 533 492 l 269 1022 l 21 1022 l 397 318 m 788 1276 l 572 1276 l 464 1089 l 582 1089 l 788 1276 "},"Ŷ":{"ha":1003,"x_min":21,"x_max":982,"o":"m 397 318 l 397 0 l 599 0 l 599 318 l 982 1022 l 733 1022 l 474 488 l 533 492 l 269 1022 l 21 1022 l 397 318 m 603 1106 l 778 1106 l 515 1361 l 514 1361 l 257 1106 l 432 1106 l 542 1222 l 494 1208 l 603 1106 "},"Ÿ":{"ha":1003,"x_min":21,"x_max":982,"o":"m 397 318 l 397 0 l 599 0 l 599 318 l 982 1022 l 733 1022 l 474 488 l 533 492 l 269 1022 l 21 1022 l 397 318 m 282 1186 l 282 1186 q 313 1114 282 1142 q 382 1086 344 1086 q 448 1114 417 1086 q 479 1186 479 1142 q 448 1259 479 1231 q 382 1288 417 1288 q 313 1259 344 1288 q 282 1186 282 1231 m 560 1186 l 560 1186 q 591 1114 560 1142 q 660 1086 622 1086 q 726 1114 694 1086 q 757 1186 757 1142 q 726 1259 757 1231 q 660 1288 694 1288 q 591 1259 622 1288 q 560 1186 560 1231 "},"Ỵ":{"ha":1003,"x_min":21,"x_max":982,"o":"m 397 318 l 397 0 l 599 0 l 599 318 l 982 1022 l 733 1022 l 474 488 l 533 492 l 269 1022 l 21 1022 l 397 318 m 392 -162 q 426 -233 392 -206 q 499 -260 460 -260 q 570 -233 538 -260 q 603 -162 603 -206 q 570 -92 603 -119 q 499 -64 538 -64 q 426 -92 460 -64 q 392 -162 392 -119 "},"Ỳ":{"ha":1003,"x_min":21,"x_max":982,"o":"m 397 318 l 397 0 l 599 0 l 599 318 l 982 1022 l 733 1022 l 474 488 l 533 492 l 269 1022 l 21 1022 l 397 318 m 271 1282 l 454 1094 l 572 1094 l 486 1282 l 271 1282 "},"Ỷ":{"ha":1003,"x_min":21,"x_max":982,"o":"m 397 318 l 397 0 l 599 0 l 599 318 l 982 1022 l 733 1022 l 474 488 l 533 492 l 269 1022 l 21 1022 l 397 318 m 515 1164 l 556 1113 q 640 1175 604 1139 q 676 1265 676 1211 q 665 1322 676 1293 q 626 1369 653 1350 q 556 1388 600 1388 q 471 1363 513 1388 q 406 1288 429 1339 l 475 1246 q 497 1272 482 1261 q 529 1283 511 1283 q 560 1270 551 1283 q 569 1238 569 1257 q 554 1197 569 1214 q 515 1164 539 1181 "},"Ȳ":{"ha":1003,"x_min":21,"x_max":982,"o":"m 397 318 l 397 0 l 599 0 l 599 318 l 982 1022 l 733 1022 l 474 488 l 533 492 l 269 1022 l 21 1022 l 397 318 m 346 1232 l 346 1097 l 700 1097 l 700 1232 l 346 1232 "},"Ỹ":{"ha":1003,"x_min":21,"x_max":982,"o":"m 397 318 l 397 0 l 599 0 l 599 318 l 982 1022 l 733 1022 l 474 488 l 533 492 l 269 1022 l 21 1022 l 397 318 m 638 1143 q 712 1171 679 1143 q 760 1247 744 1199 q 765 1354 775 1294 l 668 1354 q 665 1290 669 1321 q 633 1258 660 1258 q 600 1271 617 1258 q 564 1300 583 1283 q 513 1339 540 1319 q 450 1358 485 1358 q 360 1328 396 1358 q 309 1249 325 1297 q 300 1146 293 1200 l 397 1146 q 397 1188 394 1167 q 410 1222 400 1208 q 439 1236 421 1236 q 470 1226 456 1236 q 500 1204 485 1217 q 558 1163 526 1183 q 638 1143 590 1143 "},"Z":{"ha":1003,"x_min":63,"x_max":933,"o":"m 63 0 l 932 0 l 932 194 l 383 194 l 394 172 l 933 1022 l 365 1022 q 331 1023 340 1022 q 321 1054 321 1024 l 321 1074 l 136 1074 l 136 928 q 158 877 136 900 q 210 841 179 854 q 271 828 242 828 l 639 828 l 617 883 q 593 846 617 883 q 530 746 569 808 q 441 604 490 683 q 340 442 392 525 q 238 279 288 358 q 149 138 189 200 q 86 38 110 75 q 63 0 63 0 "},"Ź":{"ha":1003,"x_min":63,"x_max":933,"o":"m 63 0 l 932 0 l 932 194 l 383 194 l 394 172 l 933 1022 l 365 1022 q 331 1023 340 1022 q 321 1054 321 1024 l 321 1074 l 136 1074 l 136 928 q 158 877 136 900 q 210 841 179 854 q 271 828 242 828 l 639 828 l 617 883 q 593 846 617 883 q 530 746 569 808 q 441 604 490 683 q 340 442 392 525 q 238 279 288 358 q 149 138 189 200 q 86 38 110 75 q 63 0 63 0 m 760 1249 l 544 1249 l 436 1061 l 554 1061 l 760 1249 "},"Ž":{"ha":1003,"x_min":63,"x_max":933,"o":"m 63 0 l 932 0 l 932 194 l 383 194 l 394 172 l 933 1022 l 365 1022 q 331 1023 340 1022 q 321 1054 321 1024 l 321 1074 l 136 1074 l 136 928 q 158 877 136 900 q 210 841 179 854 q 271 828 242 828 l 639 828 l 617 883 q 593 846 617 883 q 530 746 569 808 q 441 604 490 683 q 340 442 392 525 q 238 279 288 358 q 149 138 189 200 q 86 38 110 75 q 63 0 63 0 m 413 1301 l 238 1301 l 500 1046 l 501 1046 l 758 1301 l 583 1301 l 474 1185 l 521 1199 l 413 1301 "},"Ż":{"ha":1003,"x_min":63,"x_max":933,"o":"m 63 0 l 932 0 l 932 194 l 383 194 l 394 172 l 933 1022 l 365 1022 q 331 1023 340 1022 q 321 1054 321 1024 l 321 1074 l 136 1074 l 136 928 q 158 877 136 900 q 210 841 179 854 q 271 828 242 828 l 639 828 l 617 883 q 593 846 617 883 q 530 746 569 808 q 441 604 490 683 q 340 442 392 525 q 238 279 288 358 q 149 138 189 200 q 86 38 110 75 q 63 0 63 0 m 396 1154 q 430 1084 396 1111 q 503 1057 464 1057 q 574 1084 542 1057 q 607 1154 607 1111 q 574 1225 607 1197 q 503 1253 542 1253 q 430 1225 464 1253 q 396 1154 396 1197 "},"a":{"ha":853,"x_min":53,"x_max":753,"o":"m 356 -17 q 449 -1 410 -17 q 516 37 489 15 q 557 74 543 58 q 574 90 571 90 l 558 132 l 558 0 l 753 0 l 753 607 l 572 607 l 554 518 l 563 542 q 485 608 532 578 q 349 638 439 638 q 204 597 272 638 q 94 481 136 556 q 53 303 53 406 q 93 122 53 193 q 202 17 133 51 q 356 -17 271 -17 m 411 142 q 331 164 368 142 q 272 225 294 186 q 250 313 250 264 q 271 399 250 361 q 327 458 292 436 q 404 479 363 479 q 472 467 442 479 q 525 434 503 456 q 558 382 547 413 l 558 233 q 522 183 543 203 q 474 152 501 163 q 411 142 446 142 "},"á":{"ha":853,"x_min":53,"x_max":753,"o":"m 356 -17 q 449 -1 410 -17 q 516 37 489 15 q 557 74 543 58 q 574 90 571 90 l 558 132 l 558 0 l 753 0 l 753 607 l 572 607 l 554 518 l 563 542 q 485 608 532 578 q 349 638 439 638 q 204 597 272 638 q 94 481 136 556 q 53 303 53 406 q 93 122 53 193 q 202 17 133 51 q 356 -17 271 -17 m 411 142 q 331 164 368 142 q 272 225 294 186 q 250 313 250 264 q 271 399 250 361 q 327 458 292 436 q 404 479 363 479 q 472 467 442 479 q 525 434 503 456 q 558 382 547 413 l 558 233 q 522 183 543 203 q 474 152 501 163 q 411 142 446 142 m 658 894 l 443 894 l 335 707 l 453 707 l 658 894 "},"ă":{"ha":853,"x_min":53,"x_max":753,"o":"m 356 -17 q 449 -1 410 -17 q 516 37 489 15 q 557 74 543 58 q 574 90 571 90 l 558 132 l 558 0 l 753 0 l 753 607 l 572 607 l 554 518 l 563 542 q 485 608 532 578 q 349 638 439 638 q 204 597 272 638 q 94 481 136 556 q 53 303 53 406 q 93 122 53 193 q 202 17 133 51 q 356 -17 271 -17 m 411 142 q 331 164 368 142 q 272 225 294 186 q 250 313 250 264 q 271 399 250 361 q 327 458 292 436 q 404 479 363 479 q 472 467 442 479 q 525 434 503 456 q 558 382 547 413 l 558 233 q 522 183 543 203 q 474 152 501 163 q 411 142 446 142 m 460 681 q 571 708 525 681 q 647 792 617 735 q 692 940 676 850 l 563 940 q 543 872 554 901 q 513 826 532 842 q 460 810 493 810 q 408 826 428 810 q 376 872 388 842 q 356 940 364 901 l 226 940 q 272 795 242 853 q 348 709 301 738 q 460 681 394 681 "},"ắ":{"ha":853,"x_min":53,"x_max":753,"o":"m 356 -17 q 449 -1 410 -17 q 516 37 489 15 q 557 74 543 58 q 574 90 571 90 l 558 132 l 558 0 l 753 0 l 753 607 l 572 607 l 554 518 l 563 542 q 485 608 532 578 q 349 638 439 638 q 204 597 272 638 q 94 481 136 556 q 53 303 53 406 q 93 122 53 193 q 202 17 133 51 q 356 -17 271 -17 m 411 142 q 331 164 368 142 q 272 225 294 186 q 250 313 250 264 q 271 399 250 361 q 327 458 292 436 q 404 479 363 479 q 472 467 442 479 q 525 434 503 456 q 558 382 547 413 l 558 233 q 522 183 543 203 q 474 152 501 163 q 411 142 446 142 m 460 681 q 571 708 525 681 q 647 792 617 735 q 692 940 676 850 l 563 940 q 543 872 554 901 q 513 826 532 842 q 460 810 493 810 q 408 826 428 810 q 376 872 388 842 q 356 940 364 901 l 226 940 q 272 795 242 853 q 348 709 301 738 q 460 681 394 681 m 642 1160 l 426 1160 l 318 972 l 436 972 l 642 1160 "},"ặ":{"ha":853,"x_min":53,"x_max":753,"o":"m 356 -17 q 449 -1 410 -17 q 516 37 489 15 q 557 74 543 58 q 574 90 571 90 l 558 132 l 558 0 l 753 0 l 753 607 l 572 607 l 554 518 l 563 542 q 485 608 532 578 q 349 638 439 638 q 204 597 272 638 q 94 481 136 556 q 53 303 53 406 q 93 122 53 193 q 202 17 133 51 q 356 -17 271 -17 m 411 142 q 331 164 368 142 q 272 225 294 186 q 250 313 250 264 q 271 399 250 361 q 327 458 292 436 q 404 479 363 479 q 472 467 442 479 q 525 434 503 456 q 558 382 547 413 l 558 233 q 522 183 543 203 q 474 152 501 163 q 411 142 446 142 m 338 -151 q 365 -210 338 -187 q 426 -232 393 -232 q 485 -210 458 -232 q 513 -151 513 -187 q 485 -94 513 -117 q 426 -71 458 -71 q 365 -94 393 -71 q 338 -151 338 -117 m 460 681 q 571 708 525 681 q 647 792 617 735 q 692 940 676 850 l 563 940 q 543 872 554 901 q 513 826 532 842 q 460 810 493 810 q 408 826 428 810 q 376 872 388 842 q 356 940 364 901 l 226 940 q 272 795 242 853 q 348 709 301 738 q 460 681 394 681 "},"ằ":{"ha":853,"x_min":53,"x_max":753,"o":"m 356 -17 q 449 -1 410 -17 q 516 37 489 15 q 557 74 543 58 q 574 90 571 90 l 558 132 l 558 0 l 753 0 l 753 607 l 572 607 l 554 518 l 563 542 q 485 608 532 578 q 349 638 439 638 q 204 597 272 638 q 94 481 136 556 q 53 303 53 406 q 93 122 53 193 q 202 17 133 51 q 356 -17 271 -17 m 411 142 q 331 164 368 142 q 272 225 294 186 q 250 313 250 264 q 271 399 250 361 q 327 458 292 436 q 404 479 363 479 q 472 467 442 479 q 525 434 503 456 q 558 382 547 413 l 558 233 q 522 183 543 203 q 474 152 501 163 q 411 142 446 142 m 460 681 q 571 708 525 681 q 647 792 617 735 q 692 940 676 850 l 563 940 q 543 872 554 901 q 513 826 532 842 q 460 810 493 810 q 408 826 428 810 q 376 872 388 842 q 356 940 364 901 l 226 940 q 272 795 242 853 q 348 709 301 738 q 460 681 394 681 m 224 1161 l 407 974 l 525 974 l 439 1161 l 224 1161 "},"ẳ":{"ha":853,"x_min":53,"x_max":753,"o":"m 356 -17 q 449 -1 410 -17 q 516 37 489 15 q 557 74 543 58 q 574 90 571 90 l 558 132 l 558 0 l 753 0 l 753 607 l 572 607 l 554 518 l 563 542 q 485 608 532 578 q 349 638 439 638 q 204 597 272 638 q 94 481 136 556 q 53 303 53 406 q 93 122 53 193 q 202 17 133 51 q 356 -17 271 -17 m 411 142 q 331 164 368 142 q 272 225 294 186 q 250 313 250 264 q 271 399 250 361 q 327 458 292 436 q 404 479 363 479 q 472 467 442 479 q 525 434 503 456 q 558 382 547 413 l 558 233 q 522 183 543 203 q 474 152 501 163 q 411 142 446 142 m 460 681 q 571 708 525 681 q 647 792 617 735 q 692 940 676 850 l 563 940 q 543 872 554 901 q 513 826 532 842 q 460 810 493 810 q 408 826 428 810 q 376 872 388 842 q 356 940 364 901 l 226 940 q 272 795 242 853 q 348 709 301 738 q 460 681 394 681 m 456 1015 l 496 964 q 581 1026 544 990 q 617 1117 617 1063 q 605 1173 617 1144 q 567 1220 593 1201 q 496 1239 540 1239 q 411 1215 453 1239 q 346 1139 369 1190 l 415 1097 q 437 1124 422 1113 q 469 1135 451 1135 q 501 1122 492 1135 q 510 1089 510 1108 q 494 1049 510 1065 q 456 1015 479 1032 "},"ẵ":{"ha":853,"x_min":53,"x_max":753,"o":"m 356 -17 q 449 -1 410 -17 q 516 37 489 15 q 557 74 543 58 q 574 90 571 90 l 558 132 l 558 0 l 753 0 l 753 607 l 572 607 l 554 518 l 563 542 q 485 608 532 578 q 349 638 439 638 q 204 597 272 638 q 94 481 136 556 q 53 303 53 406 q 93 122 53 193 q 202 17 133 51 q 356 -17 271 -17 m 411 142 q 331 164 368 142 q 272 225 294 186 q 250 313 250 264 q 271 399 250 361 q 327 458 292 436 q 404 479 363 479 q 472 467 442 479 q 525 434 503 456 q 558 382 547 413 l 558 233 q 522 183 543 203 q 474 152 501 163 q 411 142 446 142 m 460 681 q 571 708 525 681 q 647 792 617 735 q 692 940 676 850 l 563 940 q 543 872 554 901 q 513 826 532 842 q 460 810 493 810 q 408 826 428 810 q 376 872 388 842 q 356 940 364 901 l 226 940 q 272 795 242 853 q 348 709 301 738 q 460 681 394 681 m 578 981 q 652 1008 619 981 q 700 1084 685 1036 q 706 1192 715 1132 l 608 1192 q 605 1127 610 1158 q 574 1096 600 1096 q 540 1108 557 1096 q 504 1138 524 1121 q 453 1176 481 1157 q 390 1196 425 1196 q 301 1165 336 1196 q 249 1086 265 1135 q 240 983 233 1038 l 338 983 q 338 1025 335 1004 q 351 1060 340 1046 q 379 1074 361 1074 q 410 1064 396 1074 q 440 1042 425 1054 q 499 1001 467 1021 q 578 981 531 981 "},"â":{"ha":853,"x_min":53,"x_max":753,"o":"m 356 -17 q 449 -1 410 -17 q 516 37 489 15 q 557 74 543 58 q 574 90 571 90 l 558 132 l 558 0 l 753 0 l 753 607 l 572 607 l 554 518 l 563 542 q 485 608 532 578 q 349 638 439 638 q 204 597 272 638 q 94 481 136 556 q 53 303 53 406 q 93 122 53 193 q 202 17 133 51 q 356 -17 271 -17 m 411 142 q 331 164 368 142 q 272 225 294 186 q 250 313 250 264 q 271 399 250 361 q 327 458 292 436 q 404 479 363 479 q 472 467 442 479 q 525 434 503 456 q 558 382 547 413 l 558 233 q 522 183 543 203 q 474 152 501 163 q 411 142 446 142 m 538 707 l 713 707 l 450 963 l 449 963 l 192 707 l 367 707 l 476 824 l 429 810 l 538 707 "},"ấ":{"ha":853,"x_min":53,"x_max":903,"o":"m 356 -17 q 449 -1 410 -17 q 516 37 489 15 q 557 74 543 58 q 574 90 571 90 l 558 132 l 558 0 l 753 0 l 753 607 l 572 607 l 554 518 l 563 542 q 485 608 532 578 q 349 638 439 638 q 204 597 272 638 q 94 481 136 556 q 53 303 53 406 q 93 122 53 193 q 202 17 133 51 q 356 -17 271 -17 m 411 142 q 331 164 368 142 q 272 225 294 186 q 250 313 250 264 q 271 399 250 361 q 327 458 292 436 q 404 479 363 479 q 472 467 442 479 q 525 434 503 456 q 558 382 547 413 l 558 233 q 522 183 543 203 q 474 152 501 163 q 411 142 446 142 m 546 707 l 721 707 l 458 963 l 457 963 l 200 707 l 375 707 l 485 824 l 438 810 l 546 707 m 903 1043 l 688 1043 l 579 856 l 697 856 l 903 1043 "},"ậ":{"ha":853,"x_min":53,"x_max":753,"o":"m 356 -17 q 449 -1 410 -17 q 516 37 489 15 q 557 74 543 58 q 574 90 571 90 l 558 132 l 558 0 l 753 0 l 753 607 l 572 607 l 554 518 l 563 542 q 485 608 532 578 q 349 638 439 638 q 204 597 272 638 q 94 481 136 556 q 53 303 53 406 q 93 122 53 193 q 202 17 133 51 q 356 -17 271 -17 m 411 142 q 331 164 368 142 q 272 225 294 186 q 250 313 250 264 q 271 399 250 361 q 327 458 292 436 q 404 479 363 479 q 472 467 442 479 q 525 434 503 456 q 558 382 547 413 l 558 233 q 522 183 543 203 q 474 152 501 163 q 411 142 446 142 m 338 -151 q 365 -210 338 -187 q 426 -232 393 -232 q 485 -210 458 -232 q 513 -151 513 -187 q 485 -94 513 -117 q 426 -71 458 -71 q 365 -94 393 -71 q 338 -151 338 -117 m 538 707 l 713 707 l 450 963 l 449 963 l 192 707 l 367 707 l 476 824 l 429 810 l 538 707 "},"ầ":{"ha":853,"x_min":-39,"x_max":753,"o":"m 356 -17 q 449 -1 410 -17 q 516 37 489 15 q 557 74 543 58 q 574 90 571 90 l 558 132 l 558 0 l 753 0 l 753 607 l 572 607 l 554 518 l 563 542 q 485 608 532 578 q 349 638 439 638 q 204 597 272 638 q 94 481 136 556 q 53 303 53 406 q 93 122 53 193 q 202 17 133 51 q 356 -17 271 -17 m 411 142 q 331 164 368 142 q 272 225 294 186 q 250 313 250 264 q 271 399 250 361 q 327 458 292 436 q 404 479 363 479 q 472 467 442 479 q 525 434 503 456 q 558 382 547 413 l 558 233 q 522 183 543 203 q 474 152 501 163 q 411 142 446 142 m 535 707 l 710 707 l 447 963 l 446 963 l 189 707 l 364 707 l 474 824 l 426 810 l 535 707 m -39 1049 l 144 861 l 263 861 l 176 1049 l -39 1049 "},"ẩ":{"ha":853,"x_min":53,"x_max":878,"o":"m 356 -17 q 449 -1 410 -17 q 516 37 489 15 q 557 74 543 58 q 574 90 571 90 l 558 132 l 558 0 l 753 0 l 753 607 l 572 607 l 554 518 l 563 542 q 485 608 532 578 q 349 638 439 638 q 204 597 272 638 q 94 481 136 556 q 53 303 53 406 q 93 122 53 193 q 202 17 133 51 q 356 -17 271 -17 m 411 142 q 331 164 368 142 q 272 225 294 186 q 250 313 250 264 q 271 399 250 361 q 327 458 292 436 q 404 479 363 479 q 472 467 442 479 q 525 434 503 456 q 558 382 547 413 l 558 233 q 522 183 543 203 q 474 152 501 163 q 411 142 446 142 m 540 707 l 715 707 l 453 963 l 451 963 l 194 707 l 369 707 l 479 824 l 432 810 l 540 707 m 717 861 l 757 810 q 842 872 806 836 q 878 963 878 908 q 866 1019 878 990 q 828 1066 854 1047 q 757 1085 801 1085 q 672 1060 714 1085 q 607 985 631 1036 l 676 943 q 698 969 683 958 q 731 981 713 981 q 762 967 753 981 q 771 935 771 954 q 756 894 771 911 q 717 861 740 878 "},"ẫ":{"ha":853,"x_min":53,"x_max":753,"o":"m 356 -17 q 449 -1 410 -17 q 516 37 489 15 q 557 74 543 58 q 574 90 571 90 l 558 132 l 558 0 l 753 0 l 753 607 l 572 607 l 554 518 l 563 542 q 485 608 532 578 q 349 638 439 638 q 204 597 272 638 q 94 481 136 556 q 53 303 53 406 q 93 122 53 193 q 202 17 133 51 q 356 -17 271 -17 m 411 142 q 331 164 368 142 q 272 225 294 186 q 250 313 250 264 q 271 399 250 361 q 327 458 292 436 q 404 479 363 479 q 472 467 442 479 q 525 434 503 456 q 558 382 547 413 l 558 233 q 522 183 543 203 q 474 152 501 163 q 411 142 446 142 m 529 707 l 704 707 l 442 963 l 440 963 l 183 707 l 358 707 l 468 824 l 421 810 l 529 707 m 556 1003 q 630 1031 597 1003 q 678 1106 663 1058 q 683 1214 693 1154 l 586 1214 q 583 1149 588 1181 q 551 1118 578 1118 q 518 1131 535 1118 q 482 1160 501 1143 q 431 1199 458 1179 q 368 1218 403 1218 q 278 1188 314 1218 q 227 1108 243 1157 q 218 1006 211 1060 l 315 1006 q 315 1047 313 1026 q 328 1082 318 1068 q 357 1096 339 1096 q 388 1086 374 1096 q 418 1064 403 1076 q 476 1023 444 1043 q 556 1003 508 1003 "},"ȁ":{"ha":853,"x_min":53,"x_max":753,"o":"m 356 -17 q 449 -1 410 -17 q 516 37 489 15 q 557 74 543 58 q 574 90 571 90 l 558 132 l 558 0 l 753 0 l 753 607 l 572 607 l 554 518 l 563 542 q 485 608 532 578 q 349 638 439 638 q 204 597 272 638 q 94 481 136 556 q 53 303 53 406 q 93 122 53 193 q 202 17 133 51 q 356 -17 271 -17 m 411 142 q 331 164 368 142 q 272 225 294 186 q 250 313 250 264 q 271 399 250 361 q 327 458 292 436 q 404 479 363 479 q 472 467 442 479 q 525 434 503 456 q 558 382 547 413 l 558 233 q 522 183 543 203 q 474 152 501 163 q 411 142 446 142 m 107 894 l 290 707 l 408 707 l 322 894 l 107 894 m 343 894 l 526 707 l 644 707 l 558 894 l 343 894 "},"ä":{"ha":853,"x_min":53,"x_max":753,"o":"m 356 -17 q 449 -1 410 -17 q 516 37 489 15 q 557 74 543 58 q 574 90 571 90 l 558 132 l 558 0 l 753 0 l 753 607 l 572 607 l 554 518 l 563 542 q 485 608 532 578 q 349 638 439 638 q 204 597 272 638 q 94 481 136 556 q 53 303 53 406 q 93 122 53 193 q 202 17 133 51 q 356 -17 271 -17 m 411 142 q 331 164 368 142 q 272 225 294 186 q 250 313 250 264 q 271 399 250 361 q 327 458 292 436 q 404 479 363 479 q 472 467 442 479 q 525 434 503 456 q 558 382 547 413 l 558 233 q 522 183 543 203 q 474 152 501 163 q 411 142 446 142 m 214 781 l 214 781 q 245 708 214 736 q 314 681 276 681 q 380 708 349 681 q 411 781 411 736 q 380 853 411 825 q 314 882 349 882 q 245 853 276 882 q 214 781 214 825 m 492 781 l 492 781 q 523 708 492 736 q 592 681 554 681 q 658 708 626 681 q 689 781 689 736 q 658 853 689 825 q 592 882 626 882 q 523 853 554 882 q 492 781 492 825 "},"ạ":{"ha":853,"x_min":53,"x_max":753,"o":"m 356 -17 q 449 -1 410 -17 q 516 37 489 15 q 557 74 543 58 q 574 90 571 90 l 558 132 l 558 0 l 753 0 l 753 607 l 572 607 l 554 518 l 563 542 q 485 608 532 578 q 349 638 439 638 q 204 597 272 638 q 94 481 136 556 q 53 303 53 406 q 93 122 53 193 q 202 17 133 51 q 356 -17 271 -17 m 411 142 q 331 164 368 142 q 272 225 294 186 q 250 313 250 264 q 271 399 250 361 q 327 458 292 436 q 404 479 363 479 q 472 467 442 479 q 525 434 503 456 q 558 382 547 413 l 558 233 q 522 183 543 203 q 474 152 501 163 q 411 142 446 142 m 338 -151 q 365 -210 338 -187 q 426 -232 393 -232 q 485 -210 458 -232 q 513 -151 513 -187 q 485 -94 513 -117 q 426 -71 458 -71 q 365 -94 393 -71 q 338 -151 338 -117 "},"à":{"ha":853,"x_min":53,"x_max":753,"o":"m 356 -17 q 449 -1 410 -17 q 516 37 489 15 q 557 74 543 58 q 574 90 571 90 l 558 132 l 558 0 l 753 0 l 753 607 l 572 607 l 554 518 l 563 542 q 485 608 532 578 q 349 638 439 638 q 204 597 272 638 q 94 481 136 556 q 53 303 53 406 q 93 122 53 193 q 202 17 133 51 q 356 -17 271 -17 m 411 142 q 331 164 368 142 q 272 225 294 186 q 250 313 250 264 q 271 399 250 361 q 327 458 292 436 q 404 479 363 479 q 472 467 442 479 q 525 434 503 456 q 558 382 547 413 l 558 233 q 522 183 543 203 q 474 152 501 163 q 411 142 446 142 m 210 894 l 393 707 l 511 707 l 425 894 l 210 894 "},"ả":{"ha":853,"x_min":53,"x_max":753,"o":"m 356 -17 q 449 -1 410 -17 q 516 37 489 15 q 557 74 543 58 q 574 90 571 90 l 558 132 l 558 0 l 753 0 l 753 607 l 572 607 l 554 518 l 563 542 q 485 608 532 578 q 349 638 439 638 q 204 597 272 638 q 94 481 136 556 q 53 303 53 406 q 93 122 53 193 q 202 17 133 51 q 356 -17 271 -17 m 411 142 q 331 164 368 142 q 272 225 294 186 q 250 313 250 264 q 271 399 250 361 q 327 458 292 436 q 404 479 363 479 q 472 467 442 479 q 525 434 503 456 q 558 382 547 413 l 558 233 q 522 183 543 203 q 474 152 501 163 q 411 142 446 142 m 414 750 l 454 699 q 539 761 503 725 q 575 851 575 797 q 563 908 575 879 q 525 955 551 936 q 454 974 499 974 q 369 949 411 974 q 304 874 328 925 l 374 832 q 395 858 381 847 q 428 869 410 869 q 459 856 450 869 q 468 824 468 843 q 453 783 468 800 q 414 750 438 767 "},"ȃ":{"ha":853,"x_min":53,"x_max":753,"o":"m 356 -17 q 449 -1 410 -17 q 516 37 489 15 q 557 74 543 58 q 574 90 571 90 l 558 132 l 558 0 l 753 0 l 753 607 l 572 607 l 554 518 l 563 542 q 485 608 532 578 q 349 638 439 638 q 204 597 272 638 q 94 481 136 556 q 53 303 53 406 q 93 122 53 193 q 202 17 133 51 q 356 -17 271 -17 m 411 142 q 331 164 368 142 q 272 225 294 186 q 250 313 250 264 q 271 399 250 361 q 327 458 292 436 q 404 479 363 479 q 472 467 442 479 q 525 434 503 456 q 558 382 547 413 l 558 233 q 522 183 543 203 q 474 152 501 163 q 411 142 446 142 m 460 940 q 349 913 396 940 q 273 828 303 886 q 228 681 243 771 l 357 681 q 376 750 365 721 q 408 795 388 779 q 460 811 428 811 q 513 795 493 811 q 544 750 532 779 q 564 681 556 721 l 693 681 q 648 826 678 768 q 572 912 618 883 q 460 940 525 940 "},"ā":{"ha":853,"x_min":53,"x_max":753,"o":"m 356 -17 q 449 -1 410 -17 q 516 37 489 15 q 557 74 543 58 q 574 90 571 90 l 558 132 l 558 0 l 753 0 l 753 607 l 572 607 l 554 518 l 563 542 q 485 608 532 578 q 349 638 439 638 q 204 597 272 638 q 94 481 136 556 q 53 303 53 406 q 93 122 53 193 q 202 17 133 51 q 356 -17 271 -17 m 411 142 q 331 164 368 142 q 272 225 294 186 q 250 313 250 264 q 271 399 250 361 q 327 458 292 436 q 404 479 363 479 q 472 467 442 479 q 525 434 503 456 q 558 382 547 413 l 558 233 q 522 183 543 203 q 474 152 501 163 q 411 142 446 142 m 278 814 l 278 679 l 632 679 l 632 814 l 278 814 "},"ą":{"ha":863,"x_min":58,"x_max":842,"o":"m 354 -17 q 464 5 419 -17 q 536 52 508 26 q 579 90 564 78 l 564 132 l 564 -36 l 586 -10 l 569 14 q 482 -53 513 -8 q 451 -143 451 -97 q 510 -273 451 -224 q 654 -322 569 -322 q 757 -293 703 -322 q 842 -218 811 -264 l 772 -118 q 725 -169 750 -153 q 672 -186 700 -186 q 630 -174 649 -186 q 611 -128 611 -162 q 653 -55 611 -83 q 758 0 694 -26 l 758 607 l 578 607 l 565 542 q 519 588 546 567 q 454 624 493 610 q 354 638 415 638 q 210 597 278 638 q 100 481 142 556 q 58 303 58 406 q 98 122 58 193 q 205 17 138 51 q 354 -17 272 -17 m 410 142 q 333 164 368 142 q 276 225 297 186 q 256 313 256 264 q 276 399 256 361 q 333 458 297 436 q 410 479 368 479 q 478 467 447 479 q 531 434 508 456 q 564 382 553 413 l 564 233 q 526 183 549 203 q 476 152 504 163 q 410 142 447 142 "},"å":{"ha":853,"x_min":53,"x_max":753,"o":"m 356 -17 q 449 -1 410 -17 q 516 37 489 15 q 557 74 543 58 q 574 90 571 90 l 558 132 l 558 0 l 753 0 l 753 607 l 572 607 l 554 518 l 563 542 q 485 608 532 578 q 349 638 439 638 q 204 597 272 638 q 94 481 136 556 q 53 303 53 406 q 93 122 53 193 q 202 17 133 51 q 356 -17 271 -17 m 411 142 q 331 164 368 142 q 272 225 294 186 q 250 313 250 264 q 271 399 250 361 q 327 458 292 436 q 404 479 363 479 q 472 467 442 479 q 525 434 503 456 q 558 382 547 413 l 558 233 q 522 183 543 203 q 474 152 501 163 q 411 142 446 142 m 279 814 q 324 708 279 749 q 435 668 368 668 q 544 708 500 668 q 589 814 589 749 q 544 919 589 881 q 435 958 500 958 q 323 919 367 958 q 279 814 279 881 m 381 811 q 395 855 381 840 q 435 869 410 869 q 474 855 460 869 q 489 811 489 840 q 474 769 489 785 q 435 754 460 754 q 395 769 410 754 q 381 811 381 785 "},"ǻ":{"ha":853,"x_min":53,"x_max":753,"o":"m 356 -17 q 449 -1 410 -17 q 516 37 489 15 q 557 74 543 58 q 574 90 571 90 l 558 132 l 558 0 l 753 0 l 753 607 l 572 607 l 554 518 l 563 542 q 485 608 532 578 q 349 638 439 638 q 204 597 272 638 q 94 481 136 556 q 53 303 53 406 q 93 122 53 193 q 202 17 133 51 q 356 -17 271 -17 m 411 142 q 331 164 368 142 q 272 225 294 186 q 250 313 250 264 q 271 399 250 361 q 327 458 292 436 q 404 479 363 479 q 472 467 442 479 q 525 434 503 456 q 558 382 547 413 l 558 233 q 522 183 543 203 q 474 152 501 163 q 411 142 446 142 m 279 814 q 324 708 279 749 q 435 668 368 668 q 544 708 500 668 q 589 814 589 749 q 544 919 589 881 q 435 958 500 958 q 323 919 367 958 q 279 814 279 881 m 381 811 q 395 855 381 840 q 435 869 410 869 q 474 855 460 869 q 489 811 489 840 q 474 769 489 785 q 435 754 460 754 q 395 769 410 754 q 381 811 381 785 m 658 1218 l 443 1218 l 335 1031 l 453 1031 l 658 1218 "},"ã":{"ha":853,"x_min":53,"x_max":753,"o":"m 356 -17 q 449 -1 410 -17 q 516 37 489 15 q 557 74 543 58 q 574 90 571 90 l 558 132 l 558 0 l 753 0 l 753 607 l 572 607 l 554 518 l 563 542 q 485 608 532 578 q 349 638 439 638 q 204 597 272 638 q 94 481 136 556 q 53 303 53 406 q 93 122 53 193 q 202 17 133 51 q 356 -17 271 -17 m 411 142 q 331 164 368 142 q 272 225 294 186 q 250 313 250 264 q 271 399 250 361 q 327 458 292 436 q 404 479 363 479 q 472 467 442 479 q 525 434 503 456 q 558 382 547 413 l 558 233 q 522 183 543 203 q 474 152 501 163 q 411 142 446 142 m 564 675 q 638 703 606 675 q 686 778 671 731 q 692 886 701 826 l 594 886 q 591 822 596 853 q 560 790 586 790 q 526 803 543 790 q 490 832 510 815 q 439 871 467 851 q 376 890 411 890 q 287 860 322 890 q 235 781 251 829 q 226 678 219 732 l 324 678 q 324 719 321 699 q 337 754 326 740 q 365 768 347 768 q 397 758 382 768 q 426 736 411 749 q 485 695 453 715 q 564 675 517 675 "},"æ":{"ha":1179,"x_min":53,"x_max":1138,"o":"m 292 -15 q 399 -1 350 -15 q 488 38 449 13 q 554 101 526 64 l 554 240 l 482 240 l 482 188 q 447 155 469 171 q 399 128 425 139 q 347 118 374 118 q 289 135 311 118 q 267 182 267 151 q 278 216 267 203 q 313 235 290 229 q 364 242 335 242 q 433 235 408 242 q 497 208 458 228 l 528 319 q 438 352 497 338 q 318 367 379 367 q 189 344 250 367 q 90 278 128 321 q 53 178 53 236 q 78 77 53 121 q 157 9 104 33 q 292 -15 210 -15 m 464 315 l 651 390 l 651 418 q 613 540 651 492 q 510 612 574 588 q 372 636 447 636 q 206 598 275 636 q 92 511 138 560 l 189 389 q 249 448 208 418 q 344 478 289 478 q 388 469 360 478 q 440 435 417 460 q 464 365 464 411 l 464 315 m 810 -17 q 916 0 860 -17 q 1021 44 972 17 l 935 189 q 876 160 906 171 q 814 149 846 149 q 733 168 769 149 q 676 226 697 188 q 656 321 656 264 q 673 408 656 371 q 723 465 690 444 q 799 485 756 485 q 884 458 856 485 q 924 394 913 431 l 964 413 l 622 297 l 665 192 l 1138 342 q 1028 560 1113 485 q 814 636 944 636 q 638 592 717 636 q 511 475 558 549 q 464 310 464 401 q 504 140 464 214 q 622 25 544 67 q 810 -17 699 -17 "},"ǽ":{"ha":1179,"x_min":53,"x_max":1138,"o":"m 292 -15 q 399 -1 350 -15 q 488 38 449 13 q 554 101 526 64 l 554 240 l 482 240 l 482 188 q 447 155 469 171 q 399 128 425 139 q 347 118 374 118 q 289 135 311 118 q 267 182 267 151 q 278 216 267 203 q 313 235 290 229 q 364 242 335 242 q 433 235 408 242 q 497 208 458 228 l 528 319 q 438 352 497 338 q 318 367 379 367 q 189 344 250 367 q 90 278 128 321 q 53 178 53 236 q 78 77 53 121 q 157 9 104 33 q 292 -15 210 -15 m 464 315 l 651 390 l 651 418 q 613 540 651 492 q 510 612 574 588 q 372 636 447 636 q 206 598 275 636 q 92 511 138 560 l 189 389 q 249 448 208 418 q 344 478 289 478 q 388 469 360 478 q 440 435 417 460 q 464 365 464 411 l 464 315 m 810 -17 q 916 0 860 -17 q 1021 44 972 17 l 935 189 q 876 160 906 171 q 814 149 846 149 q 733 168 769 149 q 676 226 697 188 q 656 321 656 264 q 673 408 656 371 q 723 465 690 444 q 799 485 756 485 q 884 458 856 485 q 924 394 913 431 l 964 413 l 622 297 l 665 192 l 1138 342 q 1028 560 1113 485 q 814 636 944 636 q 638 592 717 636 q 511 475 558 549 q 464 310 464 401 q 504 140 464 214 q 622 25 544 67 q 810 -17 699 -17 m 792 867 l 576 867 l 468 679 l 586 679 l 792 867 "},"b":{"ha":867,"x_min":100,"x_max":814,"o":"m 499 -17 q 654 24 582 -17 q 770 139 726 64 q 814 317 814 214 q 774 491 814 419 q 669 600 735 563 q 525 638 604 638 q 389 617 449 638 q 293 565 329 596 l 293 503 l 293 1096 l 100 1096 l 100 0 l 294 0 l 294 118 l 279 76 q 370 9 318 35 q 499 -17 422 -17 m 456 147 q 388 158 418 147 q 334 188 357 168 q 294 239 311 208 l 294 388 q 330 440 307 418 q 385 473 353 461 q 456 485 418 485 q 535 463 499 485 q 594 404 572 442 q 617 318 617 367 q 594 231 617 269 q 535 169 572 192 q 456 147 499 147 "},"c":{"ha":665,"x_min":53,"x_max":621,"o":"m 615 54 l 518 176 q 472 151 499 160 q 413 142 444 142 q 326 163 363 142 q 268 222 289 185 q 247 304 247 260 q 267 388 247 351 q 319 444 286 424 q 393 465 353 465 q 473 449 439 465 q 526 418 507 433 l 621 543 q 517 601 578 579 q 375 624 457 624 q 219 586 293 624 q 99 477 144 549 q 53 304 53 406 q 95 131 53 203 q 215 22 138 60 q 396 -17 292 -17 q 515 3 454 -17 q 615 54 575 22 "},"ć":{"ha":665,"x_min":53,"x_max":621,"o":"m 615 54 l 518 176 q 472 151 499 160 q 413 142 444 142 q 326 163 363 142 q 268 222 289 185 q 247 304 247 260 q 267 388 247 351 q 319 444 286 424 q 393 465 353 465 q 473 449 439 465 q 526 418 507 433 l 621 543 q 517 601 578 579 q 375 624 457 624 q 219 586 293 624 q 99 477 144 549 q 53 304 53 406 q 95 131 53 203 q 215 22 138 60 q 396 -17 292 -17 q 515 3 454 -17 q 615 54 575 22 m 560 881 l 344 881 l 236 693 l 354 693 l 560 881 "},"č":{"ha":665,"x_min":53,"x_max":631,"o":"m 615 54 l 518 176 q 472 151 499 160 q 413 142 444 142 q 326 163 363 142 q 268 222 289 185 q 247 304 247 260 q 267 388 247 351 q 319 444 286 424 q 393 465 353 465 q 473 449 439 465 q 526 418 507 433 l 621 543 q 517 601 578 579 q 375 624 457 624 q 219 586 293 624 q 99 477 144 549 q 53 304 53 406 q 95 131 53 203 q 215 22 138 60 q 396 -17 292 -17 q 515 3 454 -17 q 615 54 575 22 m 285 949 l 110 949 l 372 693 l 374 693 l 631 949 l 456 949 l 346 832 l 393 846 l 285 949 "},"ç":{"ha":665,"x_min":53,"x_max":621,"o":"m 615 54 l 518 176 q 472 151 499 160 q 413 142 444 142 q 326 163 363 142 q 268 222 289 185 q 247 304 247 260 q 267 388 247 351 q 319 444 286 424 q 393 465 353 465 q 473 449 439 465 q 526 418 507 433 l 621 543 q 517 601 578 579 q 375 624 457 624 q 219 586 293 624 q 99 477 144 549 q 53 304 53 406 q 95 131 53 203 q 215 22 138 60 q 396 -17 292 -17 q 515 3 454 -17 q 615 54 575 22 m 218 -189 l 158 -265 q 221 -309 182 -290 q 321 -328 260 -328 q 426 -311 376 -328 q 506 -260 475 -294 q 538 -174 538 -226 q 484 -76 538 -108 q 353 -47 431 -44 q 324 -50 339 -49 q 294 -54 310 -51 l 331 -103 l 438 17 l 289 17 l 193 -54 l 219 -146 q 260 -135 239 -140 q 303 -131 281 -131 q 363 -146 349 -131 q 376 -176 376 -161 q 351 -214 376 -201 q 301 -226 325 -226 q 253 -216 275 -226 q 218 -189 232 -206 "},"ĉ":{"ha":665,"x_min":53,"x_max":621,"o":"m 615 54 l 518 176 q 472 151 499 160 q 413 142 444 142 q 326 163 363 142 q 268 222 289 185 q 247 304 247 260 q 267 388 247 351 q 319 444 286 424 q 393 465 353 465 q 473 449 439 465 q 526 418 507 433 l 621 543 q 517 601 578 579 q 375 624 457 624 q 219 586 293 624 q 99 477 144 549 q 53 304 53 406 q 95 131 53 203 q 215 22 138 60 q 396 -17 292 -17 q 515 3 454 -17 q 615 54 575 22 m 439 693 l 614 693 l 351 949 l 350 949 l 93 693 l 268 693 l 378 810 l 331 796 l 439 693 "},"ċ":{"ha":665,"x_min":53,"x_max":621,"o":"m 615 54 l 518 176 q 472 151 499 160 q 413 142 444 142 q 326 163 363 142 q 268 222 289 185 q 247 304 247 260 q 267 388 247 351 q 319 444 286 424 q 393 465 353 465 q 473 449 439 465 q 526 418 507 433 l 621 543 q 517 601 578 579 q 375 624 457 624 q 219 586 293 624 q 99 477 144 549 q 53 304 53 406 q 95 131 53 203 q 215 22 138 60 q 396 -17 292 -17 q 515 3 454 -17 q 615 54 575 22 m 251 836 q 285 766 251 793 q 358 739 319 739 q 430 766 397 739 q 463 836 463 793 q 430 907 463 879 q 358 935 397 935 q 285 907 319 935 q 251 836 251 879 "},"d":{"ha":867,"x_min":53,"x_max":767,"o":"m 347 -17 q 482 10 424 -17 q 588 76 540 38 l 572 118 l 572 0 l 767 0 l 767 1096 l 574 1096 l 574 503 l 574 564 q 484 619 538 601 q 372 638 431 638 q 208 600 281 638 q 94 490 136 563 q 53 315 53 418 q 91 138 53 213 q 196 23 129 63 q 347 -17 263 -17 m 411 147 q 331 169 368 147 q 272 231 294 192 q 250 318 250 269 q 272 404 250 367 q 331 463 294 442 q 411 485 368 485 q 483 473 450 485 q 538 440 515 461 q 572 388 561 418 l 572 239 q 533 188 556 208 q 480 158 510 168 q 411 147 450 147 "},"ð":{"ha":793,"x_min":53,"x_max":740,"o":"m 379 -17 q 538 17 471 -17 q 651 108 606 51 q 718 235 696 165 q 740 375 740 304 q 713 586 740 481 q 634 788 685 692 q 513 963 583 883 q 360 1096 443 1042 l 215 968 q 360 840 299 901 q 463 710 422 778 q 524 556 504 642 q 544 353 544 469 l 618 311 q 601 422 618 365 q 549 528 583 479 q 465 606 515 576 q 350 636 415 636 q 199 594 267 636 q 92 478 132 551 q 53 311 53 404 q 97 135 53 208 q 215 22 140 61 q 379 -17 289 -17 m 396 142 q 321 164 354 142 q 268 224 288 186 q 249 310 249 263 q 268 396 249 358 q 321 456 288 433 q 396 478 354 478 q 475 456 442 478 q 526 396 508 433 q 544 310 544 358 q 526 224 544 263 q 475 164 508 186 q 396 142 442 142 m 683 926 l 621 1056 l 235 819 l 297 690 l 683 926 "},"ď":{"ha":1024,"x_min":53,"x_max":1057,"o":"m 347 -17 q 482 10 424 -17 q 588 76 540 38 l 572 118 l 572 0 l 767 0 l 767 1096 l 574 1096 l 574 503 l 574 564 q 484 619 538 601 q 372 638 431 638 q 208 600 281 638 q 94 490 136 563 q 53 315 53 418 q 91 138 53 213 q 196 23 129 63 q 347 -17 263 -17 m 411 147 q 331 169 368 147 q 272 231 294 192 q 250 318 250 269 q 272 404 250 367 q 331 463 294 442 q 411 485 368 485 q 483 473 450 485 q 538 440 515 461 q 572 388 561 418 l 572 239 q 533 188 556 208 q 480 158 510 168 q 411 147 450 147 m 940 874 l 940 874 q 1001 932 974 893 q 1042 1018 1028 971 q 1049 1104 1057 1065 l 900 1094 q 890 993 910 1046 q 840 913 871 940 l 940 874 "},"đ":{"ha":867,"x_min":53,"x_max":878,"o":"m 347 -17 q 482 10 424 -17 q 588 76 540 38 l 572 118 l 572 0 l 767 0 l 767 1096 l 574 1096 l 574 503 l 574 564 q 484 619 538 601 q 372 638 431 638 q 208 600 281 638 q 94 490 136 563 q 53 315 53 418 q 91 138 53 213 q 196 23 129 63 q 347 -17 263 -17 m 411 147 q 331 169 368 147 q 272 231 294 192 q 250 318 250 269 q 272 404 250 367 q 331 463 294 442 q 411 485 368 485 q 483 473 450 485 q 538 440 515 461 q 572 388 561 418 l 572 239 q 533 188 556 208 q 480 158 510 168 q 411 147 450 147 m 440 976 l 440 796 l 878 796 l 878 976 l 440 976 "},"ǳ":{"ha":1592,"x_min":53,"x_max":1514,"o":"m 347 -17 q 482 10 424 -17 q 588 76 540 38 l 572 118 l 572 0 l 767 0 l 767 1096 l 574 1096 l 574 503 l 574 564 q 484 619 538 601 q 372 638 431 638 q 208 600 281 638 q 94 490 136 563 q 53 315 53 418 q 91 138 53 213 q 196 23 129 63 q 347 -17 263 -17 m 411 147 q 331 169 368 147 q 272 231 294 192 q 250 318 250 269 q 272 404 250 367 q 331 463 294 442 q 411 485 368 485 q 483 473 450 485 q 538 440 515 461 q 572 388 561 418 l 572 239 q 533 188 556 208 q 480 158 510 168 q 411 147 450 147 m 1061 449 l 1269 449 l 1240 504 l 894 0 l 1510 0 l 1510 158 l 1142 158 l 1178 118 l 1514 607 l 1129 607 q 1092 612 1103 607 q 1082 646 1082 617 l 1082 665 l 936 665 l 936 582 q 974 485 936 521 q 1061 449 1011 449 "},"ǆ":{"ha":1592,"x_min":53,"x_max":1514,"o":"m 347 -17 q 482 10 424 -17 q 588 76 540 38 l 572 118 l 572 0 l 767 0 l 767 1096 l 574 1096 l 574 503 l 574 564 q 484 619 538 601 q 372 638 431 638 q 208 600 281 638 q 94 490 136 563 q 53 315 53 418 q 91 138 53 213 q 196 23 129 63 q 347 -17 263 -17 m 411 147 q 331 169 368 147 q 272 231 294 192 q 250 318 250 269 q 272 404 250 367 q 331 463 294 442 q 411 485 368 485 q 483 473 450 485 q 538 440 515 461 q 572 388 561 418 l 572 239 q 533 188 556 208 q 480 158 510 168 q 411 147 450 147 m 1061 449 l 1269 449 l 1240 504 l 894 0 l 1510 0 l 1510 158 l 1142 158 l 1178 118 l 1514 607 l 1129 607 q 1092 612 1103 607 q 1082 646 1082 617 l 1082 665 l 936 665 l 936 582 q 974 485 936 521 q 1061 449 1011 449 m 1158 935 l 983 935 l 1246 679 l 1247 679 l 1504 935 l 1329 935 l 1219 818 l 1267 832 l 1158 935 "},"e":{"ha":768,"x_min":53,"x_max":726,"o":"m 399 -17 q 505 0 449 -17 q 610 44 561 17 l 524 189 q 465 160 494 171 q 403 149 435 149 q 322 168 358 149 q 265 226 286 188 q 244 321 244 264 q 262 408 244 371 q 312 465 279 444 q 388 485 344 485 q 473 458 444 485 q 513 394 501 431 l 553 413 l 211 297 l 254 192 l 726 342 q 617 560 701 485 q 403 636 533 636 q 226 592 306 636 q 100 475 147 549 q 53 310 53 401 q 93 140 53 214 q 210 25 133 67 q 399 -17 288 -17 "},"é":{"ha":768,"x_min":53,"x_max":726,"o":"m 399 -17 q 505 0 449 -17 q 610 44 561 17 l 524 189 q 465 160 494 171 q 403 149 435 149 q 322 168 358 149 q 265 226 286 188 q 244 321 244 264 q 262 408 244 371 q 312 465 279 444 q 388 485 344 485 q 473 458 444 485 q 513 394 501 431 l 553 413 l 211 297 l 254 192 l 726 342 q 617 560 701 485 q 403 636 533 636 q 226 592 306 636 q 100 475 147 549 q 53 310 53 401 q 93 140 53 214 q 210 25 133 67 q 399 -17 288 -17 m 607 896 l 392 896 l 283 708 l 401 708 l 607 896 "},"ĕ":{"ha":768,"x_min":53,"x_max":726,"o":"m 399 -17 q 505 0 449 -17 q 610 44 561 17 l 524 189 q 465 160 494 171 q 403 149 435 149 q 322 168 358 149 q 265 226 286 188 q 244 321 244 264 q 262 408 244 371 q 312 465 279 444 q 388 485 344 485 q 473 458 444 485 q 513 394 501 431 l 553 413 l 211 297 l 254 192 l 726 342 q 617 560 701 485 q 403 636 533 636 q 226 592 306 636 q 100 475 147 549 q 53 310 53 401 q 93 140 53 214 q 210 25 133 67 q 399 -17 288 -17 m 408 682 q 519 709 474 682 q 595 794 565 736 q 640 942 625 851 l 511 942 q 492 873 503 903 q 461 827 481 843 q 408 811 442 811 q 356 827 376 811 q 324 873 336 843 q 304 942 313 903 l 175 942 q 220 797 190 854 q 297 710 250 739 q 408 682 343 682 "},"ě":{"ha":768,"x_min":53,"x_max":726,"o":"m 399 -17 q 505 0 449 -17 q 610 44 561 17 l 524 189 q 465 160 494 171 q 403 149 435 149 q 322 168 358 149 q 265 226 286 188 q 244 321 244 264 q 262 408 244 371 q 312 465 279 444 q 388 485 344 485 q 473 458 444 485 q 513 394 501 431 l 553 413 l 211 297 l 254 192 l 726 342 q 617 560 701 485 q 403 636 533 636 q 226 592 306 636 q 100 475 147 549 q 53 310 53 401 q 93 140 53 214 q 210 25 133 67 q 399 -17 288 -17 m 332 964 l 157 964 l 419 708 l 421 708 l 678 964 l 503 964 l 393 847 l 440 861 l 332 964 "},"ê":{"ha":768,"x_min":53,"x_max":726,"o":"m 399 -17 q 505 0 449 -17 q 610 44 561 17 l 524 189 q 465 160 494 171 q 403 149 435 149 q 322 168 358 149 q 265 226 286 188 q 244 321 244 264 q 262 408 244 371 q 312 465 279 444 q 388 485 344 485 q 473 458 444 485 q 513 394 501 431 l 553 413 l 211 297 l 254 192 l 726 342 q 617 560 701 485 q 403 636 533 636 q 226 592 306 636 q 100 475 147 549 q 53 310 53 401 q 93 140 53 214 q 210 25 133 67 q 399 -17 288 -17 m 486 708 l 661 708 l 399 964 l 397 964 l 140 708 l 315 708 l 425 825 l 378 811 l 486 708 "},"ế":{"ha":768,"x_min":53,"x_max":851,"o":"m 399 -17 q 505 0 449 -17 q 610 44 561 17 l 524 189 q 465 160 494 171 q 403 149 435 149 q 322 168 358 149 q 265 226 286 188 q 244 321 244 264 q 262 408 244 371 q 312 465 279 444 q 388 485 344 485 q 473 458 444 485 q 513 394 501 431 l 553 413 l 211 297 l 254 192 l 726 342 q 617 560 701 485 q 403 636 533 636 q 226 592 306 636 q 100 475 147 549 q 53 310 53 401 q 93 140 53 214 q 210 25 133 67 q 399 -17 288 -17 m 494 708 l 669 708 l 407 964 l 406 964 l 149 708 l 324 708 l 433 825 l 386 811 l 494 708 m 851 1044 l 636 1044 l 528 857 l 646 857 l 851 1044 "},"ệ":{"ha":768,"x_min":53,"x_max":726,"o":"m 399 -17 q 505 0 449 -17 q 610 44 561 17 l 524 189 q 465 160 494 171 q 403 149 435 149 q 322 168 358 149 q 265 226 286 188 q 244 321 244 264 q 262 408 244 371 q 312 465 279 444 q 388 485 344 485 q 473 458 444 485 q 513 394 501 431 l 553 413 l 211 297 l 254 192 l 726 342 q 617 560 701 485 q 403 636 533 636 q 226 592 306 636 q 100 475 147 549 q 53 310 53 401 q 93 140 53 214 q 210 25 133 67 q 399 -17 288 -17 m 297 -151 q 325 -210 297 -187 q 386 -232 353 -232 q 445 -210 418 -232 q 472 -151 472 -187 q 445 -94 472 -117 q 386 -71 418 -71 q 325 -94 353 -71 q 297 -151 297 -117 m 486 708 l 661 708 l 399 964 l 397 964 l 140 708 l 315 708 l 425 825 l 378 811 l 486 708 "},"ề":{"ha":768,"x_min":-90,"x_max":726,"o":"m 399 -17 q 505 0 449 -17 q 610 44 561 17 l 524 189 q 465 160 494 171 q 403 149 435 149 q 322 168 358 149 q 265 226 286 188 q 244 321 244 264 q 262 408 244 371 q 312 465 279 444 q 388 485 344 485 q 473 458 444 485 q 513 394 501 431 l 553 413 l 211 297 l 254 192 l 726 342 q 617 560 701 485 q 403 636 533 636 q 226 592 306 636 q 100 475 147 549 q 53 310 53 401 q 93 140 53 214 q 210 25 133 67 q 399 -17 288 -17 m 483 708 l 658 708 l 396 964 l 394 964 l 138 708 l 313 708 l 422 825 l 375 811 l 483 708 m -90 1050 l 93 863 l 211 863 l 125 1050 l -90 1050 "},"ể":{"ha":768,"x_min":53,"x_max":826,"o":"m 399 -17 q 505 0 449 -17 q 610 44 561 17 l 524 189 q 465 160 494 171 q 403 149 435 149 q 322 168 358 149 q 265 226 286 188 q 244 321 244 264 q 262 408 244 371 q 312 465 279 444 q 388 485 344 485 q 473 458 444 485 q 513 394 501 431 l 553 413 l 211 297 l 254 192 l 726 342 q 617 560 701 485 q 403 636 533 636 q 226 592 306 636 q 100 475 147 549 q 53 310 53 401 q 93 140 53 214 q 210 25 133 67 q 399 -17 288 -17 m 489 708 l 664 708 l 401 964 l 400 964 l 143 708 l 318 708 l 428 825 l 381 811 l 489 708 m 665 863 l 706 811 q 790 874 754 838 q 826 964 826 910 q 815 1020 826 992 q 776 1067 803 1049 q 706 1086 750 1086 q 621 1062 663 1086 q 556 986 579 1038 l 625 944 q 647 971 632 960 q 679 982 661 982 q 710 969 701 982 q 719 936 719 956 q 704 896 719 913 q 665 863 689 879 "},"ễ":{"ha":768,"x_min":53,"x_max":726,"o":"m 399 -17 q 505 0 449 -17 q 610 44 561 17 l 524 189 q 465 160 494 171 q 403 149 435 149 q 322 168 358 149 q 265 226 286 188 q 244 321 244 264 q 262 408 244 371 q 312 465 279 444 q 388 485 344 485 q 473 458 444 485 q 513 394 501 431 l 553 413 l 211 297 l 254 192 l 726 342 q 617 560 701 485 q 403 636 533 636 q 226 592 306 636 q 100 475 147 549 q 53 310 53 401 q 93 140 53 214 q 210 25 133 67 q 399 -17 288 -17 m 478 708 l 653 708 l 390 964 l 389 964 l 132 708 l 307 708 l 417 825 l 369 811 l 478 708 m 504 1004 q 578 1032 546 1004 q 626 1108 611 1060 q 632 1215 642 1156 l 535 1215 q 531 1151 536 1182 q 500 1119 526 1119 q 467 1132 483 1119 q 431 1161 450 1144 q 379 1200 407 1181 q 317 1219 351 1219 q 227 1189 263 1219 q 176 1110 192 1158 q 167 1007 160 1061 l 264 1007 q 264 1049 261 1028 q 277 1083 267 1069 q 306 1097 288 1097 q 337 1088 322 1097 q 367 1065 351 1078 q 425 1024 393 1044 q 504 1004 457 1004 "},"ȅ":{"ha":768,"x_min":53,"x_max":726,"o":"m 399 -17 q 505 0 449 -17 q 610 44 561 17 l 524 189 q 465 160 494 171 q 403 149 435 149 q 322 168 358 149 q 265 226 286 188 q 244 321 244 264 q 262 408 244 371 q 312 465 279 444 q 388 485 344 485 q 473 458 444 485 q 513 394 501 431 l 553 413 l 211 297 l 254 192 l 726 342 q 617 560 701 485 q 403 636 533 636 q 226 592 306 636 q 100 475 147 549 q 53 310 53 401 q 93 140 53 214 q 210 25 133 67 q 399 -17 288 -17 m 56 896 l 239 708 l 357 708 l 271 896 l 56 896 m 292 896 l 475 708 l 593 708 l 507 896 l 292 896 "},"ë":{"ha":768,"x_min":53,"x_max":726,"o":"m 399 -17 q 505 0 449 -17 q 610 44 561 17 l 524 189 q 465 160 494 171 q 403 149 435 149 q 322 168 358 149 q 265 226 286 188 q 244 321 244 264 q 262 408 244 371 q 312 465 279 444 q 388 485 344 485 q 473 458 444 485 q 513 394 501 431 l 553 413 l 211 297 l 254 192 l 726 342 q 617 560 701 485 q 403 636 533 636 q 226 592 306 636 q 100 475 147 549 q 53 310 53 401 q 93 140 53 214 q 210 25 133 67 q 399 -17 288 -17 m 163 782 l 163 782 q 194 710 163 738 q 263 682 225 682 q 328 710 297 682 q 360 782 360 738 q 328 855 360 826 q 263 883 297 883 q 194 855 225 883 q 163 782 163 826 m 440 782 l 440 782 q 472 710 440 738 q 540 682 503 682 q 606 710 575 682 q 638 782 638 738 q 606 855 638 826 q 540 883 575 883 q 472 855 503 883 q 440 782 440 826 "},"ė":{"ha":768,"x_min":53,"x_max":726,"o":"m 399 -17 q 505 0 449 -17 q 610 44 561 17 l 524 189 q 465 160 494 171 q 403 149 435 149 q 322 168 358 149 q 265 226 286 188 q 244 321 244 264 q 262 408 244 371 q 312 465 279 444 q 388 485 344 485 q 473 458 444 485 q 513 394 501 431 l 553 413 l 211 297 l 254 192 l 726 342 q 617 560 701 485 q 403 636 533 636 q 226 592 306 636 q 100 475 147 549 q 53 310 53 401 q 93 140 53 214 q 210 25 133 67 q 399 -17 288 -17 m 299 851 q 333 781 299 808 q 406 754 367 754 q 477 781 444 754 q 510 851 510 808 q 477 922 510 894 q 406 950 444 950 q 333 922 367 950 q 299 851 299 894 "},"ẹ":{"ha":768,"x_min":53,"x_max":726,"o":"m 399 -17 q 505 0 449 -17 q 610 44 561 17 l 524 189 q 465 160 494 171 q 403 149 435 149 q 322 168 358 149 q 265 226 286 188 q 244 321 244 264 q 262 408 244 371 q 312 465 279 444 q 388 485 344 485 q 473 458 444 485 q 513 394 501 431 l 553 413 l 211 297 l 254 192 l 726 342 q 617 560 701 485 q 403 636 533 636 q 226 592 306 636 q 100 475 147 549 q 53 310 53 401 q 93 140 53 214 q 210 25 133 67 q 399 -17 288 -17 m 297 -151 q 325 -210 297 -187 q 386 -232 353 -232 q 445 -210 418 -232 q 472 -151 472 -187 q 445 -94 472 -117 q 386 -71 418 -71 q 325 -94 353 -71 q 297 -151 297 -117 "},"è":{"ha":768,"x_min":53,"x_max":726,"o":"m 399 -17 q 505 0 449 -17 q 610 44 561 17 l 524 189 q 465 160 494 171 q 403 149 435 149 q 322 168 358 149 q 265 226 286 188 q 244 321 244 264 q 262 408 244 371 q 312 465 279 444 q 388 485 344 485 q 473 458 444 485 q 513 394 501 431 l 553 413 l 211 297 l 254 192 l 726 342 q 617 560 701 485 q 403 636 533 636 q 226 592 306 636 q 100 475 147 549 q 53 310 53 401 q 93 140 53 214 q 210 25 133 67 q 399 -17 288 -17 m 158 896 l 342 708 l 460 708 l 374 896 l 158 896 "},"ẻ":{"ha":768,"x_min":53,"x_max":726,"o":"m 399 -17 q 505 0 449 -17 q 610 44 561 17 l 524 189 q 465 160 494 171 q 403 149 435 149 q 322 168 358 149 q 265 226 286 188 q 244 321 244 264 q 262 408 244 371 q 312 465 279 444 q 388 485 344 485 q 473 458 444 485 q 513 394 501 431 l 553 413 l 211 297 l 254 192 l 726 342 q 617 560 701 485 q 403 636 533 636 q 226 592 306 636 q 100 475 147 549 q 53 310 53 401 q 93 140 53 214 q 210 25 133 67 q 399 -17 288 -17 m 363 751 l 403 700 q 488 763 451 726 q 524 853 524 799 q 512 909 524 881 q 474 956 500 938 q 403 975 447 975 q 318 951 360 975 q 253 875 276 926 l 322 833 q 344 860 329 849 q 376 871 358 871 q 408 858 399 871 q 417 825 417 844 q 401 785 417 801 q 363 751 386 768 "},"ȇ":{"ha":768,"x_min":53,"x_max":726,"o":"m 399 -17 q 505 0 449 -17 q 610 44 561 17 l 524 189 q 465 160 494 171 q 403 149 435 149 q 322 168 358 149 q 265 226 286 188 q 244 321 244 264 q 262 408 244 371 q 312 465 279 444 q 388 485 344 485 q 473 458 444 485 q 513 394 501 431 l 553 413 l 211 297 l 254 192 l 726 342 q 617 560 701 485 q 403 636 533 636 q 226 592 306 636 q 100 475 147 549 q 53 310 53 401 q 93 140 53 214 q 210 25 133 67 q 399 -17 288 -17 m 408 942 q 298 915 344 942 q 222 830 251 888 q 176 682 192 772 l 306 682 q 325 751 314 722 q 356 797 336 781 q 408 813 376 813 q 461 797 442 813 q 492 751 481 781 q 513 682 504 722 l 642 682 q 597 827 626 769 q 520 913 567 885 q 408 942 474 942 "},"ē":{"ha":768,"x_min":53,"x_max":726,"o":"m 399 -17 q 505 0 449 -17 q 610 44 561 17 l 524 189 q 465 160 494 171 q 403 149 435 149 q 322 168 358 149 q 265 226 286 188 q 244 321 244 264 q 262 408 244 371 q 312 465 279 444 q 388 485 344 485 q 473 458 444 485 q 513 394 501 431 l 553 413 l 211 297 l 254 192 l 726 342 q 617 560 701 485 q 403 636 533 636 q 226 592 306 636 q 100 475 147 549 q 53 310 53 401 q 93 140 53 214 q 210 25 133 67 q 399 -17 288 -17 m 226 815 l 226 681 l 581 681 l 581 815 l 226 815 "},"ę":{"ha":774,"x_min":58,"x_max":732,"o":"m 447 -322 q 550 -293 496 -322 q 635 -218 604 -264 l 565 -118 q 518 -169 543 -153 q 465 -186 493 -186 q 419 -167 442 -186 q 397 -112 397 -147 q 417 -58 397 -79 q 468 -21 436 -36 q 539 9 500 -6 q 615 44 578 24 l 529 189 q 470 160 500 171 q 408 149 440 149 q 328 168 364 149 q 271 226 292 188 q 250 321 250 264 q 267 408 250 371 q 317 465 285 444 q 393 485 350 485 q 478 458 450 485 q 518 394 507 431 l 558 413 l 217 297 l 260 192 l 732 342 q 623 560 707 485 q 408 636 539 636 q 232 592 311 636 q 106 475 153 549 q 58 310 58 401 q 99 140 58 214 q 216 25 139 67 q 404 -17 293 -17 q 454 -8 422 -17 q 517 14 486 0 q 561 44 549 28 l 356 14 q 268 -53 299 -8 q 238 -143 238 -97 q 294 -273 238 -224 q 447 -322 350 -322 "},"ẽ":{"ha":768,"x_min":53,"x_max":726,"o":"m 399 -17 q 505 0 449 -17 q 610 44 561 17 l 524 189 q 465 160 494 171 q 403 149 435 149 q 322 168 358 149 q 265 226 286 188 q 244 321 244 264 q 262 408 244 371 q 312 465 279 444 q 388 485 344 485 q 473 458 444 485 q 513 394 501 431 l 553 413 l 211 297 l 254 192 l 726 342 q 617 560 701 485 q 403 636 533 636 q 226 592 306 636 q 100 475 147 549 q 53 310 53 401 q 93 140 53 214 q 210 25 133 67 q 399 -17 288 -17 m 513 676 q 587 704 554 676 q 635 780 619 732 q 640 888 650 828 l 543 888 q 540 823 544 854 q 508 792 535 792 q 475 804 492 792 q 439 833 458 817 q 388 872 415 853 q 325 892 360 892 q 235 861 271 892 q 184 782 200 831 q 175 679 168 733 l 272 679 q 272 721 269 700 q 285 756 275 742 q 314 769 296 769 q 345 760 331 769 q 375 738 360 750 q 433 697 401 717 q 513 676 465 676 "},"ə":{"ha":768,"x_min":42,"x_max":715,"o":"m 369 624 q 263 607 319 624 q 158 563 207 590 l 244 418 q 303 448 274 438 q 365 458 333 458 q 446 439 410 458 q 503 381 482 419 q 524 286 524 343 q 506 199 524 236 q 457 142 489 163 q 381 122 425 122 q 295 150 324 122 q 256 213 267 178 l 215 194 l 557 310 l 514 415 l 42 265 q 151 47 67 122 q 365 -29 235 -29 q 542 15 463 -29 q 668 133 621 58 q 715 297 715 207 q 675 467 715 393 q 558 582 635 540 q 369 624 481 624 "},"f":{"ha":604,"x_min":56,"x_max":597,"o":"m 158 0 l 353 0 l 353 438 l 536 438 l 536 610 l 353 610 l 353 815 q 379 904 353 876 q 447 932 406 932 q 483 926 464 932 q 515 901 501 919 l 597 1042 q 513 1080 561 1068 q 426 1092 465 1092 q 227 1016 296 1092 q 158 821 158 940 l 158 610 l 56 610 l 56 438 l 158 438 l 158 0 "},"g":{"ha":879,"x_min":53,"x_max":779,"o":"m 414 -306 q 597 -266 514 -306 q 729 -158 679 -226 q 779 0 779 -89 l 779 607 l 600 607 l 579 540 l 586 558 q 499 615 557 592 q 363 638 442 638 q 213 594 283 638 q 97 477 142 551 q 53 307 53 403 q 94 141 53 214 q 206 26 136 68 q 358 -17 276 -17 q 511 19 453 -17 q 592 101 569 54 l 585 136 l 585 3 q 560 -74 585 -43 q 497 -120 536 -104 q 411 -136 457 -136 q 299 -109 342 -136 q 225 -53 257 -82 l 111 -186 q 181 -239 142 -211 q 276 -286 219 -267 q 414 -306 332 -306 m 249 313 q 271 399 249 361 q 331 458 293 436 q 417 479 369 479 q 490 467 457 479 q 547 434 522 456 q 585 382 572 413 l 585 233 q 544 183 568 203 q 488 152 519 163 q 417 142 457 142 q 331 164 369 142 q 271 225 293 186 q 249 313 249 264 "},"ğ":{"ha":879,"x_min":53,"x_max":779,"o":"m 414 -306 q 597 -266 514 -306 q 729 -158 679 -226 q 779 0 779 -89 l 779 607 l 600 607 l 579 540 l 586 558 q 499 615 557 592 q 363 638 442 638 q 213 594 283 638 q 97 477 142 551 q 53 307 53 403 q 94 141 53 214 q 206 26 136 68 q 358 -17 276 -17 q 511 19 453 -17 q 592 101 569 54 l 585 136 l 585 3 q 560 -74 585 -43 q 497 -120 536 -104 q 411 -136 457 -136 q 299 -109 342 -136 q 225 -53 257 -82 l 111 -186 q 181 -239 142 -211 q 276 -286 219 -267 q 414 -306 332 -306 m 249 313 q 271 399 249 361 q 331 458 293 436 q 417 479 369 479 q 490 467 457 479 q 547 434 522 456 q 585 382 572 413 l 585 233 q 544 183 568 203 q 488 152 519 163 q 417 142 457 142 q 331 164 369 142 q 271 225 293 186 q 249 313 249 264 m 444 681 q 556 708 510 681 q 631 792 601 735 q 676 940 661 850 l 547 940 q 528 872 539 901 q 497 826 517 842 q 444 810 478 810 q 392 826 413 810 q 360 872 372 842 q 340 940 349 901 l 211 940 q 256 795 226 853 q 333 709 286 738 q 444 681 379 681 "},"ǧ":{"ha":879,"x_min":53,"x_max":779,"o":"m 414 -306 q 597 -266 514 -306 q 729 -158 679 -226 q 779 0 779 -89 l 779 607 l 600 607 l 579 540 l 586 558 q 499 615 557 592 q 363 638 442 638 q 213 594 283 638 q 97 477 142 551 q 53 307 53 403 q 94 141 53 214 q 206 26 136 68 q 358 -17 276 -17 q 511 19 453 -17 q 592 101 569 54 l 585 136 l 585 3 q 560 -74 585 -43 q 497 -120 536 -104 q 411 -136 457 -136 q 299 -109 342 -136 q 225 -53 257 -82 l 111 -186 q 181 -239 142 -211 q 276 -286 219 -267 q 414 -306 332 -306 m 249 313 q 271 399 249 361 q 331 458 293 436 q 417 479 369 479 q 490 467 457 479 q 547 434 522 456 q 585 382 572 413 l 585 233 q 544 183 568 203 q 488 152 519 163 q 417 142 457 142 q 331 164 369 142 q 271 225 293 186 q 249 313 249 264 m 368 963 l 193 963 l 456 707 l 457 707 l 714 963 l 539 963 l 429 846 l 476 860 l 368 963 "},"ĝ":{"ha":879,"x_min":53,"x_max":779,"o":"m 414 -306 q 597 -266 514 -306 q 729 -158 679 -226 q 779 0 779 -89 l 779 607 l 600 607 l 579 540 l 586 558 q 499 615 557 592 q 363 638 442 638 q 213 594 283 638 q 97 477 142 551 q 53 307 53 403 q 94 141 53 214 q 206 26 136 68 q 358 -17 276 -17 q 511 19 453 -17 q 592 101 569 54 l 585 136 l 585 3 q 560 -74 585 -43 q 497 -120 536 -104 q 411 -136 457 -136 q 299 -109 342 -136 q 225 -53 257 -82 l 111 -186 q 181 -239 142 -211 q 276 -286 219 -267 q 414 -306 332 -306 m 249 313 q 271 399 249 361 q 331 458 293 436 q 417 479 369 479 q 490 467 457 479 q 547 434 522 456 q 585 382 572 413 l 585 233 q 544 183 568 203 q 488 152 519 163 q 417 142 457 142 q 331 164 369 142 q 271 225 293 186 q 249 313 249 264 m 522 707 l 697 707 l 435 963 l 433 963 l 176 707 l 351 707 l 461 824 l 414 810 l 522 707 "},"ģ":{"ha":831,"x_min":53,"x_max":779,"o":"m 313 704 l 481 704 q 535 851 508 778 q 590 996 563 924 l 435 996 q 374 851 404 924 q 313 704 344 778 m 414 -306 q 597 -266 514 -306 q 729 -158 679 -226 q 779 0 779 -89 l 779 607 l 600 607 l 579 540 l 586 558 q 499 615 557 592 q 363 638 442 638 q 213 594 283 638 q 97 477 142 551 q 53 307 53 403 q 94 141 53 214 q 206 26 136 68 q 358 -17 276 -17 q 511 19 453 -17 q 592 101 569 54 l 585 136 l 585 3 q 560 -74 585 -43 q 497 -120 536 -104 q 411 -136 457 -136 q 299 -109 342 -136 q 225 -53 257 -82 l 111 -186 q 181 -239 142 -211 q 276 -286 219 -267 q 414 -306 332 -306 m 249 313 q 271 399 249 361 q 331 458 293 436 q 417 479 369 479 q 490 467 457 479 q 547 434 522 456 q 585 382 572 413 l 585 233 q 544 183 568 203 q 488 152 519 163 q 417 142 457 142 q 331 164 369 142 q 271 225 293 186 q 249 313 249 264 "},"ġ":{"ha":879,"x_min":53,"x_max":779,"o":"m 414 -306 q 597 -266 514 -306 q 729 -158 679 -226 q 779 0 779 -89 l 779 607 l 600 607 l 579 540 l 586 558 q 499 615 557 592 q 363 638 442 638 q 213 594 283 638 q 97 477 142 551 q 53 307 53 403 q 94 141 53 214 q 206 26 136 68 q 358 -17 276 -17 q 511 19 453 -17 q 592 101 569 54 l 585 136 l 585 3 q 560 -74 585 -43 q 497 -120 536 -104 q 411 -136 457 -136 q 299 -109 342 -136 q 225 -53 257 -82 l 111 -186 q 181 -239 142 -211 q 276 -286 219 -267 q 414 -306 332 -306 m 249 313 q 271 399 249 361 q 331 458 293 436 q 417 479 369 479 q 490 467 457 479 q 547 434 522 456 q 585 382 572 413 l 585 233 q 544 183 568 203 q 488 152 519 163 q 417 142 457 142 q 331 164 369 142 q 271 225 293 186 q 249 313 249 264 m 335 850 q 369 780 335 807 q 442 753 403 753 q 513 780 481 753 q 546 850 546 807 q 513 921 546 893 q 442 949 481 949 q 369 921 403 949 q 335 850 335 893 "},"h":{"ha":825,"x_min":100,"x_max":725,"o":"m 100 0 l 294 0 l 294 247 q 313 363 294 313 q 364 442 331 413 q 442 471 397 471 q 509 447 489 471 q 531 382 529 422 l 531 0 l 725 0 l 725 454 q 666 585 724 535 q 522 636 608 636 q 379 601 438 636 q 289 508 321 565 l 290 485 l 290 1096 l 100 1096 l 100 0 "},"ħ":{"ha":825,"x_min":-8,"x_max":725,"o":"m 100 0 l 294 0 l 294 247 q 313 363 294 313 q 364 442 331 413 q 442 471 397 471 q 509 447 489 471 q 531 382 529 422 l 531 0 l 725 0 l 725 454 q 666 585 724 535 q 522 636 608 636 q 379 601 438 636 q 289 508 321 565 l 290 485 l 290 1096 l 100 1096 l 100 0 m -8 953 l -8 772 l 429 772 l 429 953 l -8 953 "},"ĥ":{"ha":825,"x_min":-76,"x_max":725,"o":"m 100 0 l 294 0 l 294 247 q 313 363 294 313 q 364 442 331 413 q 442 471 397 471 q 509 447 489 471 q 531 382 529 422 l 531 0 l 725 0 l 725 454 q 666 585 724 535 q 522 636 608 636 q 379 601 438 636 q 289 508 321 565 l 290 485 l 290 1096 l 100 1096 l 100 0 m 269 1151 l 444 1151 l 182 1407 l 181 1407 l -76 1151 l 99 1151 l 208 1268 l 161 1254 l 269 1151 "},"i":{"ha":394,"x_min":96,"x_max":307,"o":"m 100 607 l 100 0 l 294 0 l 294 607 l 100 607 m 96 822 q 130 752 96 779 q 203 725 164 725 q 274 752 242 725 q 307 822 307 779 q 274 893 307 865 q 203 921 242 921 q 130 893 164 921 q 96 822 96 865 "},"ı":{"ha":394,"x_min":100,"x_max":294,"o":"m 100 607 l 100 0 l 294 0 l 294 607 l 100 607 "},"í":{"ha":394,"x_min":81,"x_max":404,"o":"m 100 607 l 100 0 l 294 0 l 294 607 l 100 607 m 404 867 l 189 867 l 81 679 l 199 679 l 404 867 "},"ĭ":{"ha":394,"x_min":-28,"x_max":438,"o":"m 100 607 l 100 0 l 294 0 l 294 607 l 100 607 m 206 653 q 317 680 271 653 q 392 765 363 707 q 438 913 422 822 l 308 913 q 289 844 300 874 q 258 798 278 814 q 206 782 239 782 q 153 798 174 782 q 122 844 133 814 q 101 913 110 874 l -28 913 q 17 767 -12 825 q 94 681 47 710 q 206 653 140 653 "},"î":{"ha":394,"x_min":-62,"x_max":458,"o":"m 100 607 l 100 0 l 294 0 l 294 607 l 100 607 m 283 679 l 458 679 l 196 935 l 194 935 l -62 679 l 113 679 l 222 796 l 175 782 l 283 679 "},"ȉ":{"ha":394,"x_min":-147,"x_max":390,"o":"m 100 607 l 100 0 l 294 0 l 294 607 l 100 607 m -147 867 l 36 679 l 154 679 l 68 867 l -147 867 m 89 867 l 272 679 l 390 679 l 304 867 l 89 867 "},"ï":{"ha":394,"x_min":-40,"x_max":435,"o":"m 100 607 l 100 0 l 294 0 l 294 607 l 100 607 m -40 753 l -40 753 q -9 681 -40 708 q 60 653 22 653 q 126 681 94 653 q 157 753 157 708 q 126 826 157 797 q 60 854 94 854 q -9 826 22 854 q -40 753 -40 797 m 238 753 l 238 753 q 269 681 238 708 q 338 653 300 653 q 403 681 372 653 q 435 753 435 708 q 403 826 435 797 q 338 854 372 854 q 269 826 300 854 q 238 753 238 797 "},"ị":{"ha":394,"x_min":96,"x_max":307,"o":"m 100 607 l 100 0 l 294 0 l 294 607 l 100 607 m 96 822 q 130 752 96 779 q 203 725 164 725 q 274 752 242 725 q 307 822 307 779 q 274 893 307 865 q 203 921 242 921 q 130 893 164 921 q 96 822 96 865 m 110 -151 q 138 -210 110 -187 q 199 -232 165 -232 q 258 -210 231 -232 q 285 -151 285 -187 q 258 -94 285 -117 q 199 -71 231 -71 q 138 -94 165 -71 q 110 -151 110 -117 "},"ì":{"ha":394,"x_min":-44,"x_max":294,"o":"m 100 607 l 100 0 l 294 0 l 294 607 l 100 607 m -44 867 l 139 679 l 257 679 l 171 867 l -44 867 "},"ỉ":{"ha":394,"x_min":50,"x_max":321,"o":"m 100 607 l 100 0 l 294 0 l 294 607 l 100 607 m 160 722 l 200 671 q 285 733 249 697 q 321 824 321 769 q 309 880 321 851 q 271 927 297 908 q 200 946 244 946 q 115 922 157 946 q 50 846 74 897 l 119 804 q 141 831 126 819 q 174 842 156 842 q 205 828 196 842 q 214 796 214 815 q 199 756 214 772 q 160 722 183 739 "},"ȋ":{"ha":394,"x_min":-26,"x_max":439,"o":"m 100 607 l 100 0 l 294 0 l 294 607 l 100 607 m 206 913 q 95 885 142 913 q 19 801 49 858 q -26 653 -11 743 l 103 653 q 122 722 111 693 q 153 767 133 751 q 206 783 174 783 q 258 767 239 783 q 290 722 278 751 q 310 653 301 693 l 439 653 q 394 798 424 740 q 317 884 364 856 q 206 913 271 913 "},"ĳ":{"ha":778,"x_min":96,"x_max":672,"o":"m 100 607 l 100 0 l 294 0 l 294 607 l 100 607 m 96 822 q 130 752 96 779 q 203 725 164 725 q 274 752 242 725 q 307 822 307 779 q 274 893 307 865 q 203 921 242 921 q 130 893 164 921 q 96 822 96 865 m 493 -293 q 624 -180 585 -251 q 663 0 663 -108 l 663 607 l 468 607 l 468 11 q 445 -97 468 -53 q 381 -172 422 -142 l 493 -293 m 461 822 q 495 752 461 779 q 568 725 529 725 q 640 752 607 725 q 672 822 672 779 q 640 893 672 865 q 568 921 607 921 q 495 893 529 921 q 461 822 461 865 "},"ī":{"ha":394,"x_min":24,"x_max":378,"o":"m 100 607 l 100 0 l 294 0 l 294 607 l 100 607 m 24 786 l 24 651 l 378 651 l 378 786 l 24 786 "},"į":{"ha":403,"x_min":-7,"x_max":383,"o":"m 196 -322 q 299 -293 244 -322 q 383 -218 353 -264 l 314 -118 q 267 -169 292 -153 q 214 -186 242 -186 q 172 -174 190 -186 q 153 -128 153 -162 q 192 -54 153 -82 q 297 0 232 -26 l 261 14 l 111 14 q 24 -53 54 -8 q -7 -143 -7 -97 q 52 -273 -7 -224 q 196 -322 111 -322 m 100 607 l 100 0 l 294 0 l 294 607 l 100 607 m 93 836 q 127 766 93 793 q 200 739 161 739 q 272 766 239 739 q 304 836 304 793 q 272 907 304 879 q 200 935 239 935 q 127 907 161 935 q 93 836 93 879 "},"ĩ":{"ha":394,"x_min":-35,"x_max":447,"o":"m 100 607 l 100 0 l 294 0 l 294 607 l 100 607 m 310 647 q 384 675 351 647 q 432 751 417 703 q 438 858 447 799 l 340 858 q 337 794 342 825 q 306 763 332 763 q 272 775 289 763 q 236 804 256 788 q 185 843 213 824 q 122 863 157 863 q 33 832 68 863 q -19 753 -3 801 q -28 650 -35 704 l 69 650 q 69 692 67 671 q 83 726 72 713 q 111 740 93 740 q 142 731 128 740 q 172 708 157 721 q 231 667 199 688 q 310 647 263 647 "},"j":{"ha":410,"x_min":28,"x_max":319,"o":"m 140 -293 q 271 -180 232 -251 q 310 0 310 -108 l 310 607 l 115 607 l 115 11 q 92 -97 115 -53 q 28 -172 69 -142 l 140 -293 m 108 822 q 142 752 108 779 q 215 725 176 725 q 287 752 254 725 q 319 822 319 779 q 287 893 319 865 q 215 921 254 921 q 142 893 176 921 q 108 822 108 865 "},"ȷ":{"ha":410,"x_min":28,"x_max":310,"o":"m 140 -293 q 271 -180 232 -251 q 310 0 310 -108 l 310 607 l 115 607 l 115 11 q 92 -97 115 -53 q 28 -172 69 -142 l 140 -293 "},"ĵ":{"ha":410,"x_min":-50,"x_max":471,"o":"m 140 -293 q 271 -180 232 -251 q 310 0 310 -108 l 310 607 l 115 607 l 115 11 q 92 -97 115 -53 q 28 -172 69 -142 l 140 -293 m 296 679 l 471 679 l 208 935 l 207 935 l -50 679 l 125 679 l 235 796 l 188 782 l 296 679 "},"k":{"ha":758,"x_min":100,"x_max":724,"o":"m 100 0 l 294 0 l 294 1096 l 100 1096 l 100 0 m 449 413 l 321 301 l 497 0 l 724 0 l 449 413 m 236 168 l 701 518 l 583 622 l 217 353 l 236 168 "},"ķ":{"ha":758,"x_min":100,"x_max":724,"o":"m 100 0 l 294 0 l 294 1096 l 100 1096 l 100 0 m 449 413 l 321 301 l 497 0 l 724 0 l 449 413 m 236 168 l 701 518 l 583 622 l 217 353 l 236 168 m 344 -297 q 415 -224 386 -269 q 456 -130 443 -179 q 461 -42 469 -81 l 292 -40 q 288 -145 301 -89 q 244 -231 275 -201 l 344 -297 "},"ĸ":{"ha":781,"x_min":100,"x_max":732,"o":"m 282 161 l 732 607 l 499 607 l 253 332 l 282 161 m 294 0 l 294 607 l 100 607 l 100 0 l 294 0 m 458 353 l 308 269 l 503 0 l 726 0 l 458 353 "},"l":{"ha":394,"x_min":100,"x_max":294,"o":"m 100 1096 l 100 0 l 294 0 l 294 1096 l 100 1096 "},"ĺ":{"ha":394,"x_min":100,"x_max":456,"o":"m 100 1096 l 100 0 l 294 0 l 294 1096 l 100 1096 m 456 1347 l 240 1347 l 132 1160 l 250 1160 l 456 1347 "},"ľ":{"ha":551,"x_min":100,"x_max":578,"o":"m 100 1096 l 100 0 l 294 0 l 294 1096 l 100 1096 m 461 860 l 461 860 q 522 918 494 879 q 563 1004 549 957 q 569 1090 578 1051 l 421 1081 q 411 979 431 1032 q 361 899 392 926 l 461 860 "},"ļ":{"ha":394,"x_min":64,"x_max":294,"o":"m 100 1096 l 100 0 l 294 0 l 294 1096 l 100 1096 m 164 -297 q 234 -224 206 -269 q 276 -130 263 -179 q 281 -42 289 -81 l 111 -40 q 108 -145 121 -89 q 64 -231 94 -201 l 164 -297 "},"ŀ":{"ha":557,"x_min":100,"x_max":576,"o":"m 100 1096 l 100 0 l 294 0 l 294 1096 l 100 1096 m 379 471 l 379 471 q 410 398 379 425 q 479 371 442 371 q 545 398 514 371 q 576 471 576 425 q 545 543 576 514 q 479 572 514 572 q 410 543 442 572 q 379 471 379 514 "},"ǉ":{"ha":804,"x_min":100,"x_max":714,"o":"m 100 1096 l 100 0 l 294 0 l 294 1096 l 100 1096 m 535 -293 q 665 -180 626 -251 q 704 0 704 -108 l 704 607 l 510 607 l 510 11 q 487 -97 510 -53 q 422 -172 464 -142 l 535 -293 m 503 822 q 537 752 503 779 q 610 725 571 725 q 681 752 649 725 q 714 822 714 779 q 681 893 714 865 q 610 921 649 921 q 537 893 571 921 q 503 822 503 865 "},"ł":{"ha":438,"x_min":21,"x_max":417,"o":"m 417 574 l 21 481 l 21 313 l 417 406 l 417 574 m 114 1096 l 114 0 l 308 0 l 308 1096 l 114 1096 "},"m":{"ha":1199,"x_min":100,"x_max":1099,"o":"m 276 607 l 100 607 l 100 0 l 294 0 l 294 251 q 310 354 294 304 q 358 437 326 404 q 435 469 389 469 q 488 441 475 467 q 503 375 501 415 l 503 0 l 697 0 l 697 249 q 713 353 697 303 q 762 437 729 404 q 842 469 794 469 q 893 441 882 467 q 906 375 904 415 l 906 0 l 1099 0 l 1099 456 q 1044 587 1097 536 q 900 638 990 638 q 785 603 840 638 q 692 511 731 568 l 699 513 q 663 583 689 556 q 598 624 636 610 q 510 638 560 638 q 379 603 433 638 q 289 508 325 569 l 292 500 l 276 607 "},"n":{"ha":825,"x_min":100,"x_max":725,"o":"m 276 607 l 100 607 l 100 0 l 294 0 l 294 247 q 313 363 294 313 q 364 442 331 413 q 442 471 397 471 q 509 447 489 471 q 531 382 529 422 l 531 0 l 725 0 l 725 454 q 666 585 724 535 q 522 636 608 636 q 379 601 438 636 q 289 508 321 565 l 292 499 l 276 607 "},"ń":{"ha":825,"x_min":100,"x_max":725,"o":"m 276 607 l 100 607 l 100 0 l 294 0 l 294 247 q 313 363 294 313 q 364 442 331 413 q 442 471 397 471 q 509 447 489 471 q 531 382 529 422 l 531 0 l 725 0 l 725 454 q 666 585 724 535 q 522 636 608 636 q 379 601 438 636 q 289 508 321 565 l 292 499 l 276 607 m 617 881 l 401 881 l 293 693 l 411 693 l 617 881 "},"ŉ":{"ha":861,"x_min":-83,"x_max":761,"o":"m 17 588 q 87 660 58 615 q 128 755 115 706 q 133 843 142 804 l -36 844 q -40 740 -26 796 q -83 654 -53 683 l 17 588 m 313 607 l 136 607 l 136 0 l 331 0 l 331 247 q 349 363 331 313 q 400 442 367 413 q 478 471 433 471 q 545 447 525 471 q 567 382 565 422 l 567 0 l 761 0 l 761 454 q 702 585 760 535 q 558 636 644 636 q 415 601 474 636 q 325 508 357 565 l 328 499 l 313 607 "},"ň":{"ha":825,"x_min":100,"x_max":725,"o":"m 276 607 l 100 607 l 100 0 l 294 0 l 294 247 q 313 363 294 313 q 364 442 331 413 q 442 471 397 471 q 509 447 489 471 q 531 382 529 422 l 531 0 l 725 0 l 725 454 q 666 585 724 535 q 522 636 608 636 q 379 601 438 636 q 289 508 321 565 l 292 499 l 276 607 m 342 949 l 167 949 l 429 693 l 431 693 l 688 949 l 513 949 l 403 832 l 450 846 l 342 949 "},"ņ":{"ha":825,"x_min":100,"x_max":725,"o":"m 276 607 l 100 607 l 100 0 l 294 0 l 294 247 q 313 363 294 313 q 364 442 331 413 q 442 471 397 471 q 509 447 489 471 q 531 382 529 422 l 531 0 l 725 0 l 725 454 q 666 585 724 535 q 522 636 608 636 q 379 601 438 636 q 289 508 321 565 l 292 499 l 276 607 m 379 -297 q 449 -224 421 -269 q 491 -130 478 -179 q 496 -42 504 -81 l 326 -40 q 323 -145 336 -89 q 279 -231 310 -201 l 379 -297 "},"ŋ":{"ha":825,"x_min":100,"x_max":725,"o":"m 725 10 l 725 454 q 666 585 724 535 q 522 636 608 636 q 380 601 438 636 q 290 508 322 565 l 276 607 l 100 607 l 100 0 l 294 0 l 294 247 q 313 363 294 313 q 364 442 331 413 q 442 471 397 471 q 509 447 489 471 q 531 382 529 422 l 531 11 q 508 -97 531 -53 q 444 -172 486 -142 l 556 -293 q 684 -169 643 -247 q 725 10 725 -90 "},"ɲ":{"ha":825,"x_min":18,"x_max":725,"o":"m 129 -293 q 253 -174 207 -247 q 299 0 299 -101 l 299 53 l 104 53 l 104 11 q 82 -97 104 -53 q 18 -172 60 -142 l 129 -293 m 276 607 l 100 607 l 100 0 l 294 0 l 294 247 q 313 363 294 313 q 364 442 331 413 q 442 471 397 471 q 509 447 489 471 q 531 382 529 422 l 531 0 l 725 0 l 725 454 q 666 585 724 535 q 522 636 608 636 q 379 601 438 636 q 289 508 321 565 l 292 499 l 276 607 "},"ǌ":{"ha":1214,"x_min":100,"x_max":1108,"o":"m 276 607 l 100 607 l 100 0 l 294 0 l 294 247 q 313 363 294 313 q 364 442 331 413 q 442 471 397 471 q 509 447 489 471 q 531 382 529 422 l 531 0 l 725 0 l 725 454 q 666 585 724 535 q 522 636 608 636 q 379 601 438 636 q 289 508 321 565 l 292 499 l 276 607 m 929 -293 q 1060 -180 1021 -251 q 1099 0 1099 -108 l 1099 607 l 904 607 l 904 11 q 881 -97 904 -53 q 817 -172 858 -142 l 929 -293 m 897 822 q 931 752 897 779 q 1004 725 965 725 q 1076 752 1043 725 q 1108 822 1108 779 q 1076 893 1108 865 q 1004 921 1043 921 q 931 893 965 921 q 897 822 897 865 "},"ñ":{"ha":825,"x_min":100,"x_max":725,"o":"m 276 607 l 100 607 l 100 0 l 294 0 l 294 247 q 313 363 294 313 q 364 442 331 413 q 442 471 397 471 q 509 447 489 471 q 531 382 529 422 l 531 0 l 725 0 l 725 454 q 666 585 724 535 q 522 636 608 636 q 379 601 438 636 q 289 508 321 565 l 292 499 l 276 607 m 522 661 q 597 689 564 661 q 644 765 629 717 q 650 872 660 813 l 553 872 q 549 808 554 839 q 518 776 544 776 q 485 789 501 776 q 449 818 468 801 q 397 857 425 838 q 335 876 369 876 q 245 846 281 876 q 194 767 210 815 q 185 664 178 718 l 282 664 q 282 706 279 685 q 295 740 285 726 q 324 754 306 754 q 355 744 340 754 q 385 722 369 735 q 443 681 411 701 q 522 661 475 661 "},"o":{"ha":793,"x_min":53,"x_max":740,"o":"m 53 311 q 97 135 53 208 q 220 22 142 61 q 399 -17 299 -17 q 582 26 506 -17 q 699 144 658 69 q 740 311 740 218 q 699 478 740 404 q 582 594 658 551 q 401 636 506 636 q 219 594 299 636 q 97 478 140 551 q 53 311 53 404 m 249 310 q 268 396 249 358 q 321 456 288 433 q 396 478 354 478 q 475 456 442 478 q 526 396 508 433 q 544 310 544 358 q 526 224 544 263 q 475 164 508 186 q 396 142 442 142 q 321 164 354 142 q 268 224 288 186 q 249 310 249 263 "},"ó":{"ha":793,"x_min":53,"x_max":740,"o":"m 53 311 q 97 135 53 208 q 220 22 142 61 q 399 -17 299 -17 q 582 26 506 -17 q 699 144 658 69 q 740 311 740 218 q 699 478 740 404 q 582 594 658 551 q 401 636 506 636 q 219 594 299 636 q 97 478 140 551 q 53 311 53 404 m 249 310 q 268 396 249 358 q 321 456 288 433 q 396 478 354 478 q 475 456 442 478 q 526 396 508 433 q 544 310 544 358 q 526 224 544 263 q 475 164 508 186 q 396 142 442 142 q 321 164 354 142 q 268 224 288 186 q 249 310 249 263 m 601 894 l 386 894 l 278 707 l 396 707 l 601 894 "},"ŏ":{"ha":793,"x_min":53,"x_max":740,"o":"m 53 311 q 97 135 53 208 q 220 22 142 61 q 399 -17 299 -17 q 582 26 506 -17 q 699 144 658 69 q 740 311 740 218 q 699 478 740 404 q 582 594 658 551 q 401 636 506 636 q 219 594 299 636 q 97 478 140 551 q 53 311 53 404 m 249 310 q 268 396 249 358 q 321 456 288 433 q 396 478 354 478 q 475 456 442 478 q 526 396 508 433 q 544 310 544 358 q 526 224 544 263 q 475 164 508 186 q 396 142 442 142 q 321 164 354 142 q 268 224 288 186 q 249 310 249 263 m 403 681 q 514 708 468 681 q 590 792 560 735 q 635 940 619 850 l 506 940 q 486 872 497 901 q 456 826 475 842 q 403 810 436 810 q 351 826 371 810 q 319 872 331 842 q 299 940 307 901 l 169 940 q 215 795 185 853 q 291 709 244 738 q 403 681 338 681 "},"ô":{"ha":793,"x_min":53,"x_max":740,"o":"m 53 311 q 97 135 53 208 q 220 22 142 61 q 399 -17 299 -17 q 582 26 506 -17 q 699 144 658 69 q 740 311 740 218 q 699 478 740 404 q 582 594 658 551 q 401 636 506 636 q 219 594 299 636 q 97 478 140 551 q 53 311 53 404 m 249 310 q 268 396 249 358 q 321 456 288 433 q 396 478 354 478 q 475 456 442 478 q 526 396 508 433 q 544 310 544 358 q 526 224 544 263 q 475 164 508 186 q 396 142 442 142 q 321 164 354 142 q 268 224 288 186 q 249 310 249 263 m 481 707 l 656 707 l 393 963 l 392 963 l 135 707 l 310 707 l 419 824 l 372 810 l 481 707 "},"ố":{"ha":793,"x_min":53,"x_max":846,"o":"m 53 311 q 97 135 53 208 q 220 22 142 61 q 399 -17 299 -17 q 582 26 506 -17 q 699 144 658 69 q 740 311 740 218 q 699 478 740 404 q 582 594 658 551 q 401 636 506 636 q 219 594 299 636 q 97 478 140 551 q 53 311 53 404 m 249 310 q 268 396 249 358 q 321 456 288 433 q 396 478 354 478 q 475 456 442 478 q 526 396 508 433 q 544 310 544 358 q 526 224 544 263 q 475 164 508 186 q 396 142 442 142 q 321 164 354 142 q 268 224 288 186 q 249 310 249 263 m 489 707 l 664 707 l 401 963 l 400 963 l 143 707 l 318 707 l 428 824 l 381 810 l 489 707 m 846 1043 l 631 1043 l 522 856 l 640 856 l 846 1043 "},"ộ":{"ha":793,"x_min":53,"x_max":740,"o":"m 53 311 q 97 135 53 208 q 220 22 142 61 q 399 -17 299 -17 q 582 26 506 -17 q 699 144 658 69 q 740 311 740 218 q 699 478 740 404 q 582 594 658 551 q 401 636 506 636 q 219 594 299 636 q 97 478 140 551 q 53 311 53 404 m 249 310 q 268 396 249 358 q 321 456 288 433 q 396 478 354 478 q 475 456 442 478 q 526 396 508 433 q 544 310 544 358 q 526 224 544 263 q 475 164 508 186 q 396 142 442 142 q 321 164 354 142 q 268 224 288 186 q 249 310 249 263 m 308 -151 q 336 -210 308 -187 q 397 -232 364 -232 q 456 -210 429 -232 q 483 -151 483 -187 q 456 -94 483 -117 q 397 -71 429 -71 q 336 -94 364 -71 q 308 -151 308 -117 m 481 707 l 656 707 l 393 963 l 392 963 l 135 707 l 310 707 l 419 824 l 372 810 l 481 707 "},"ồ":{"ha":793,"x_min":-96,"x_max":740,"o":"m 53 311 q 97 135 53 208 q 220 22 142 61 q 399 -17 299 -17 q 582 26 506 -17 q 699 144 658 69 q 740 311 740 218 q 699 478 740 404 q 582 594 658 551 q 401 636 506 636 q 219 594 299 636 q 97 478 140 551 q 53 311 53 404 m 249 310 q 268 396 249 358 q 321 456 288 433 q 396 478 354 478 q 475 456 442 478 q 526 396 508 433 q 544 310 544 358 q 526 224 544 263 q 475 164 508 186 q 396 142 442 142 q 321 164 354 142 q 268 224 288 186 q 249 310 249 263 m 478 707 l 653 707 l 390 963 l 389 963 l 132 707 l 307 707 l 417 824 l 369 810 l 478 707 m -96 1049 l 88 861 l 206 861 l 119 1049 l -96 1049 "},"ổ":{"ha":793,"x_min":53,"x_max":821,"o":"m 53 311 q 97 135 53 208 q 220 22 142 61 q 399 -17 299 -17 q 582 26 506 -17 q 699 144 658 69 q 740 311 740 218 q 699 478 740 404 q 582 594 658 551 q 401 636 506 636 q 219 594 299 636 q 97 478 140 551 q 53 311 53 404 m 249 310 q 268 396 249 358 q 321 456 288 433 q 396 478 354 478 q 475 456 442 478 q 526 396 508 433 q 544 310 544 358 q 526 224 544 263 q 475 164 508 186 q 396 142 442 142 q 321 164 354 142 q 268 224 288 186 q 249 310 249 263 m 483 707 l 658 707 l 396 963 l 394 963 l 138 707 l 313 707 l 422 824 l 375 810 l 483 707 m 660 861 l 700 810 q 785 872 749 836 q 821 963 821 908 q 809 1019 821 990 q 771 1066 797 1047 q 700 1085 744 1085 q 615 1060 657 1085 q 550 985 574 1036 l 619 943 q 641 969 626 958 q 674 981 656 981 q 705 967 696 981 q 714 935 714 954 q 699 894 714 911 q 660 861 683 878 "},"ỗ":{"ha":793,"x_min":53,"x_max":740,"o":"m 53 311 q 97 135 53 208 q 220 22 142 61 q 399 -17 299 -17 q 582 26 506 -17 q 699 144 658 69 q 740 311 740 218 q 699 478 740 404 q 582 594 658 551 q 401 636 506 636 q 219 594 299 636 q 97 478 140 551 q 53 311 53 404 m 249 310 q 268 396 249 358 q 321 456 288 433 q 396 478 354 478 q 475 456 442 478 q 526 396 508 433 q 544 310 544 358 q 526 224 544 263 q 475 164 508 186 q 396 142 442 142 q 321 164 354 142 q 268 224 288 186 q 249 310 249 263 m 472 707 l 647 707 l 385 963 l 383 963 l 126 707 l 301 707 l 411 824 l 364 810 l 472 707 m 499 1003 q 573 1031 540 1003 q 621 1106 606 1058 q 626 1214 636 1154 l 529 1214 q 526 1149 531 1181 q 494 1118 521 1118 q 461 1131 478 1118 q 425 1160 444 1143 q 374 1199 401 1179 q 311 1218 346 1218 q 222 1188 257 1218 q 170 1108 186 1157 q 161 1006 154 1060 l 258 1006 q 258 1047 256 1026 q 272 1082 261 1068 q 300 1096 282 1096 q 331 1086 317 1096 q 361 1064 346 1076 q 419 1023 388 1043 q 499 1003 451 1003 "},"ȍ":{"ha":793,"x_min":50,"x_max":740,"o":"m 53 311 q 97 135 53 208 q 220 22 142 61 q 399 -17 299 -17 q 582 26 506 -17 q 699 144 658 69 q 740 311 740 218 q 699 478 740 404 q 582 594 658 551 q 401 636 506 636 q 219 594 299 636 q 97 478 140 551 q 53 311 53 404 m 249 310 q 268 396 249 358 q 321 456 288 433 q 396 478 354 478 q 475 456 442 478 q 526 396 508 433 q 544 310 544 358 q 526 224 544 263 q 475 164 508 186 q 396 142 442 142 q 321 164 354 142 q 268 224 288 186 q 249 310 249 263 m 50 894 l 233 707 l 351 707 l 265 894 l 50 894 m 286 894 l 469 707 l 588 707 l 501 894 l 286 894 "},"ö":{"ha":793,"x_min":53,"x_max":740,"o":"m 53 311 q 97 135 53 208 q 220 22 142 61 q 399 -17 299 -17 q 582 26 506 -17 q 699 144 658 69 q 740 311 740 218 q 699 478 740 404 q 582 594 658 551 q 401 636 506 636 q 219 594 299 636 q 97 478 140 551 q 53 311 53 404 m 249 310 q 268 396 249 358 q 321 456 288 433 q 396 478 354 478 q 475 456 442 478 q 526 396 508 433 q 544 310 544 358 q 526 224 544 263 q 475 164 508 186 q 396 142 442 142 q 321 164 354 142 q 268 224 288 186 q 249 310 249 263 m 157 781 l 157 781 q 188 708 157 736 q 257 681 219 681 q 323 708 292 681 q 354 781 354 736 q 323 853 354 825 q 257 882 292 882 q 188 853 219 882 q 157 781 157 825 m 435 781 l 435 781 q 466 708 435 736 q 535 681 497 681 q 601 708 569 681 q 632 781 632 736 q 601 853 632 825 q 535 882 569 882 q 466 853 497 882 q 435 781 435 825 "},"ȫ":{"ha":793,"x_min":53,"x_max":740,"o":"m 53 311 q 97 135 53 208 q 220 22 142 61 q 399 -17 299 -17 q 582 26 506 -17 q 699 144 658 69 q 740 311 740 218 q 699 478 740 404 q 582 594 658 551 q 401 636 506 636 q 219 594 299 636 q 97 478 140 551 q 53 311 53 404 m 249 310 q 268 396 249 358 q 321 456 288 433 q 396 478 354 478 q 475 456 442 478 q 526 396 508 433 q 544 310 544 358 q 526 224 544 263 q 475 164 508 186 q 396 142 442 142 q 321 164 354 142 q 268 224 288 186 q 249 310 249 263 m 157 781 l 157 781 q 188 708 157 736 q 257 681 219 681 q 323 708 292 681 q 354 781 354 736 q 323 853 354 825 q 257 882 292 882 q 188 853 219 882 q 157 781 157 825 m 435 781 l 435 781 q 466 708 435 736 q 535 681 497 681 q 601 708 569 681 q 632 781 632 736 q 601 853 632 825 q 535 882 569 882 q 466 853 497 882 q 435 781 435 825 m 221 1061 l 221 926 l 575 926 l 575 1061 l 221 1061 "},"ȱ":{"ha":793,"x_min":53,"x_max":740,"o":"m 53 311 q 97 135 53 208 q 220 22 142 61 q 399 -17 299 -17 q 582 26 506 -17 q 699 144 658 69 q 740 311 740 218 q 699 478 740 404 q 582 594 658 551 q 401 636 506 636 q 219 594 299 636 q 97 478 140 551 q 53 311 53 404 m 249 310 q 268 396 249 358 q 321 456 288 433 q 396 478 354 478 q 475 456 442 478 q 526 396 508 433 q 544 310 544 358 q 526 224 544 263 q 475 164 508 186 q 396 142 442 142 q 321 164 354 142 q 268 224 288 186 q 249 310 249 263 m 293 850 q 327 780 293 807 q 400 753 361 753 q 472 780 439 753 q 504 850 504 807 q 472 921 504 893 q 400 949 439 949 q 327 921 361 949 q 293 850 293 893 m 221 1128 l 221 993 l 575 993 l 575 1128 l 221 1128 "},"ọ":{"ha":793,"x_min":53,"x_max":740,"o":"m 53 311 q 97 135 53 208 q 220 22 142 61 q 399 -17 299 -17 q 582 26 506 -17 q 699 144 658 69 q 740 311 740 218 q 699 478 740 404 q 582 594 658 551 q 401 636 506 636 q 219 594 299 636 q 97 478 140 551 q 53 311 53 404 m 249 310 q 268 396 249 358 q 321 456 288 433 q 396 478 354 478 q 475 456 442 478 q 526 396 508 433 q 544 310 544 358 q 526 224 544 263 q 475 164 508 186 q 396 142 442 142 q 321 164 354 142 q 268 224 288 186 q 249 310 249 263 m 308 -151 q 336 -210 308 -187 q 397 -232 364 -232 q 456 -210 429 -232 q 483 -151 483 -187 q 456 -94 483 -117 q 397 -71 429 -71 q 336 -94 364 -71 q 308 -151 308 -117 "},"ò":{"ha":793,"x_min":53,"x_max":740,"o":"m 53 311 q 97 135 53 208 q 220 22 142 61 q 399 -17 299 -17 q 582 26 506 -17 q 699 144 658 69 q 740 311 740 218 q 699 478 740 404 q 582 594 658 551 q 401 636 506 636 q 219 594 299 636 q 97 478 140 551 q 53 311 53 404 m 249 310 q 268 396 249 358 q 321 456 288 433 q 396 478 354 478 q 475 456 442 478 q 526 396 508 433 q 544 310 544 358 q 526 224 544 263 q 475 164 508 186 q 396 142 442 142 q 321 164 354 142 q 268 224 288 186 q 249 310 249 263 m 153 894 l 336 707 l 454 707 l 368 894 l 153 894 "},"ỏ":{"ha":793,"x_min":53,"x_max":740,"o":"m 53 311 q 97 135 53 208 q 220 22 142 61 q 399 -17 299 -17 q 582 26 506 -17 q 699 144 658 69 q 740 311 740 218 q 699 478 740 404 q 582 594 658 551 q 401 636 506 636 q 219 594 299 636 q 97 478 140 551 q 53 311 53 404 m 249 310 q 268 396 249 358 q 321 456 288 433 q 396 478 354 478 q 475 456 442 478 q 526 396 508 433 q 544 310 544 358 q 526 224 544 263 q 475 164 508 186 q 396 142 442 142 q 321 164 354 142 q 268 224 288 186 q 249 310 249 263 m 357 750 l 397 699 q 482 761 446 725 q 518 851 518 797 q 506 908 518 879 q 468 955 494 936 q 397 974 442 974 q 313 949 354 974 q 247 874 271 925 l 317 832 q 338 858 324 847 q 371 869 353 869 q 402 856 393 869 q 411 824 411 843 q 396 783 411 800 q 357 750 381 767 "},"ơ":{"ha":793,"x_min":53,"x_max":783,"o":"m 53 311 q 97 135 53 208 q 220 22 142 61 q 399 -17 299 -17 q 582 26 506 -17 q 699 144 658 69 q 740 311 740 218 q 699 478 740 404 q 582 594 658 551 q 401 636 506 636 q 219 594 299 636 q 97 478 140 551 q 53 311 53 404 m 249 310 q 268 396 249 358 q 321 456 288 433 q 396 478 354 478 q 475 456 442 478 q 526 396 508 433 q 544 310 544 358 q 526 224 544 263 q 475 164 508 186 q 396 142 442 142 q 321 164 354 142 q 268 224 288 186 q 249 310 249 263 m 522 607 l 522 492 q 641 513 588 492 q 731 585 694 533 q 783 726 768 636 l 640 726 q 599 637 628 667 q 522 607 571 607 "},"ớ":{"ha":793,"x_min":53,"x_max":783,"o":"m 53 311 q 97 135 53 208 q 220 22 142 61 q 399 -17 299 -17 q 582 26 506 -17 q 699 144 658 69 q 740 311 740 218 q 699 478 740 404 q 582 594 658 551 q 401 636 506 636 q 219 594 299 636 q 97 478 140 551 q 53 311 53 404 m 249 310 q 268 396 249 358 q 321 456 288 433 q 396 478 354 478 q 475 456 442 478 q 526 396 508 433 q 544 310 544 358 q 526 224 544 263 q 475 164 508 186 q 396 142 442 142 q 321 164 354 142 q 268 224 288 186 q 249 310 249 263 m 522 607 l 522 492 q 641 513 588 492 q 731 585 694 533 q 783 726 768 636 l 640 726 q 599 637 628 667 q 522 607 571 607 m 601 867 l 386 867 l 278 679 l 396 679 l 601 867 "},"ợ":{"ha":793,"x_min":53,"x_max":783,"o":"m 53 311 q 97 135 53 208 q 220 22 142 61 q 399 -17 299 -17 q 582 26 506 -17 q 699 144 658 69 q 740 311 740 218 q 699 478 740 404 q 582 594 658 551 q 401 636 506 636 q 219 594 299 636 q 97 478 140 551 q 53 311 53 404 m 249 310 q 268 396 249 358 q 321 456 288 433 q 396 478 354 478 q 475 456 442 478 q 526 396 508 433 q 544 310 544 358 q 526 224 544 263 q 475 164 508 186 q 396 142 442 142 q 321 164 354 142 q 268 224 288 186 q 249 310 249 263 m 522 607 l 522 492 q 641 513 588 492 q 731 585 694 533 q 783 726 768 636 l 640 726 q 599 637 628 667 q 522 607 571 607 m 308 -151 q 336 -210 308 -187 q 397 -232 364 -232 q 456 -210 429 -232 q 483 -151 483 -187 q 456 -94 483 -117 q 397 -71 429 -71 q 336 -94 364 -71 q 308 -151 308 -117 "},"ờ":{"ha":793,"x_min":53,"x_max":783,"o":"m 53 311 q 97 135 53 208 q 220 22 142 61 q 399 -17 299 -17 q 582 26 506 -17 q 699 144 658 69 q 740 311 740 218 q 699 478 740 404 q 582 594 658 551 q 401 636 506 636 q 219 594 299 636 q 97 478 140 551 q 53 311 53 404 m 249 310 q 268 396 249 358 q 321 456 288 433 q 396 478 354 478 q 475 456 442 478 q 526 396 508 433 q 544 310 544 358 q 526 224 544 263 q 475 164 508 186 q 396 142 442 142 q 321 164 354 142 q 268 224 288 186 q 249 310 249 263 m 522 607 l 522 492 q 641 513 588 492 q 731 585 694 533 q 783 726 768 636 l 640 726 q 599 637 628 667 q 522 607 571 607 m 153 894 l 336 707 l 454 707 l 368 894 l 153 894 "},"ở":{"ha":793,"x_min":53,"x_max":783,"o":"m 53 311 q 97 135 53 208 q 220 22 142 61 q 399 -17 299 -17 q 582 26 506 -17 q 699 144 658 69 q 740 311 740 218 q 699 478 740 404 q 582 594 658 551 q 401 636 506 636 q 219 594 299 636 q 97 478 140 551 q 53 311 53 404 m 249 310 q 268 396 249 358 q 321 456 288 433 q 396 478 354 478 q 475 456 442 478 q 526 396 508 433 q 544 310 544 358 q 526 224 544 263 q 475 164 508 186 q 396 142 442 142 q 321 164 354 142 q 268 224 288 186 q 249 310 249 263 m 522 607 l 522 492 q 641 513 588 492 q 731 585 694 533 q 783 726 768 636 l 640 726 q 599 637 628 667 q 522 607 571 607 m 357 750 l 397 699 q 482 761 446 725 q 518 851 518 797 q 506 908 518 879 q 468 955 494 936 q 397 974 442 974 q 313 949 354 974 q 247 874 271 925 l 317 832 q 338 858 324 847 q 371 869 353 869 q 402 856 393 869 q 411 824 411 843 q 396 783 411 800 q 357 750 381 767 "},"ỡ":{"ha":793,"x_min":53,"x_max":783,"o":"m 447 690 q 509 713 482 690 q 549 775 536 736 q 553 864 561 814 l 472 864 q 470 810 475 836 q 444 785 465 785 q 417 795 431 785 q 388 818 403 806 q 344 851 367 836 q 293 867 321 867 q 219 842 249 867 q 176 776 189 817 q 169 692 164 736 l 249 692 q 249 726 247 708 q 260 755 251 743 q 285 767 268 767 q 309 758 297 767 q 335 740 321 750 q 382 707 356 724 q 447 690 408 690 m 53 311 q 97 135 53 208 q 220 22 142 61 q 399 -17 299 -17 q 582 26 506 -17 q 699 144 658 69 q 740 311 740 218 q 699 478 740 404 q 582 594 658 551 q 401 636 506 636 q 219 594 299 636 q 97 478 140 551 q 53 311 53 404 m 249 310 q 268 396 249 358 q 321 456 288 433 q 396 478 354 478 q 475 456 442 478 q 526 396 508 433 q 544 310 544 358 q 526 224 544 263 q 475 164 508 186 q 396 142 442 142 q 321 164 354 142 q 268 224 288 186 q 249 310 249 263 m 522 607 l 522 492 q 641 513 588 492 q 731 585 694 533 q 783 726 768 636 l 640 726 q 599 637 628 667 q 522 607 571 607 "},"ő":{"ha":793,"x_min":53,"x_max":754,"o":"m 53 311 q 97 135 53 208 q 220 22 142 61 q 399 -17 299 -17 q 582 26 506 -17 q 699 144 658 69 q 740 311 740 218 q 699 478 740 404 q 582 594 658 551 q 401 636 506 636 q 219 594 299 636 q 97 478 140 551 q 53 311 53 404 m 249 310 q 268 396 249 358 q 321 456 288 433 q 396 478 354 478 q 475 456 442 478 q 526 396 508 433 q 544 310 544 358 q 526 224 544 263 q 475 164 508 186 q 396 142 442 142 q 321 164 354 142 q 268 224 288 186 q 249 310 249 263 m 499 894 l 283 894 l 175 707 l 293 707 l 499 894 m 754 892 l 539 892 l 431 704 l 549 704 l 754 892 "},"ȏ":{"ha":793,"x_min":53,"x_max":740,"o":"m 53 311 q 97 135 53 208 q 220 22 142 61 q 399 -17 299 -17 q 582 26 506 -17 q 699 144 658 69 q 740 311 740 218 q 699 478 740 404 q 582 594 658 551 q 401 636 506 636 q 219 594 299 636 q 97 478 140 551 q 53 311 53 404 m 249 310 q 268 396 249 358 q 321 456 288 433 q 396 478 354 478 q 475 456 442 478 q 526 396 508 433 q 544 310 544 358 q 526 224 544 263 q 475 164 508 186 q 396 142 442 142 q 321 164 354 142 q 268 224 288 186 q 249 310 249 263 m 403 940 q 292 913 339 940 q 216 828 246 886 q 171 681 186 771 l 300 681 q 319 750 308 721 q 351 795 331 779 q 403 811 371 811 q 456 795 436 811 q 487 750 475 779 q 507 681 499 721 l 636 681 q 591 826 621 768 q 515 912 561 883 q 403 940 468 940 "},"ō":{"ha":793,"x_min":53,"x_max":740,"o":"m 53 311 q 97 135 53 208 q 220 22 142 61 q 399 -17 299 -17 q 582 26 506 -17 q 699 144 658 69 q 740 311 740 218 q 699 478 740 404 q 582 594 658 551 q 401 636 506 636 q 219 594 299 636 q 97 478 140 551 q 53 311 53 404 m 249 310 q 268 396 249 358 q 321 456 288 433 q 396 478 354 478 q 475 456 442 478 q 526 396 508 433 q 544 310 544 358 q 526 224 544 263 q 475 164 508 186 q 396 142 442 142 q 321 164 354 142 q 268 224 288 186 q 249 310 249 263 m 221 814 l 221 679 l 575 679 l 575 814 l 221 814 "},"ǫ":{"ha":804,"x_min":58,"x_max":746,"o":"m 485 -322 q 599 -293 543 -322 q 686 -218 656 -264 l 617 -118 q 569 -169 594 -153 q 517 -186 544 -186 q 474 -172 493 -186 q 456 -128 456 -157 q 485 -56 456 -82 q 564 1 515 -29 q 696 133 646 54 q 746 311 746 211 q 705 478 746 404 q 588 594 664 551 q 407 636 511 636 q 225 593 304 636 q 102 477 146 550 q 58 311 58 404 q 103 135 58 208 q 226 22 147 61 q 404 -17 304 -17 q 435 -9 414 -17 q 461 3 456 -1 l 414 14 q 326 -53 357 -8 q 296 -143 296 -97 q 322 -244 296 -204 q 392 -303 349 -283 q 485 -322 435 -322 m 401 142 q 326 164 360 142 q 274 224 293 186 q 254 310 254 263 q 274 396 254 358 q 326 456 293 433 q 401 478 360 478 q 481 456 447 478 q 532 396 514 433 q 550 310 550 358 q 532 224 550 263 q 481 164 514 186 q 401 142 447 142 "},"ø":{"ha":758,"x_min":53,"x_max":740,"o":"m 719 592 l 622 672 l 58 33 l 151 -51 l 719 592 m 53 311 q 97 135 53 208 q 220 22 142 61 q 399 -17 299 -17 q 582 26 506 -17 q 699 144 658 69 q 740 311 740 218 q 699 478 740 404 q 582 594 658 551 q 401 636 506 636 q 219 594 299 636 q 97 478 140 551 q 53 311 53 404 m 249 310 q 268 396 249 358 q 321 456 288 433 q 396 478 354 478 q 475 456 442 478 q 526 396 508 433 q 544 310 544 358 q 526 224 544 263 q 475 164 508 186 q 396 142 442 142 q 321 164 354 142 q 268 224 288 186 q 249 310 249 263 "},"ǿ":{"ha":758,"x_min":53,"x_max":740,"o":"m 719 592 l 622 672 l 58 33 l 151 -51 l 719 592 m 53 311 q 97 135 53 208 q 220 22 142 61 q 399 -17 299 -17 q 582 26 506 -17 q 699 144 658 69 q 740 311 740 218 q 699 478 740 404 q 582 594 658 551 q 401 636 506 636 q 219 594 299 636 q 97 478 140 551 q 53 311 53 404 m 249 310 q 268 396 249 358 q 321 456 288 433 q 396 478 354 478 q 475 456 442 478 q 526 396 508 433 q 544 310 544 358 q 526 224 544 263 q 475 164 508 186 q 396 142 442 142 q 321 164 354 142 q 268 224 288 186 q 249 310 249 263 m 583 867 l 368 867 l 260 679 l 378 679 l 583 867 "},"õ":{"ha":793,"x_min":53,"x_max":740,"o":"m 53 311 q 97 135 53 208 q 220 22 142 61 q 399 -17 299 -17 q 582 26 506 -17 q 699 144 658 69 q 740 311 740 218 q 699 478 740 404 q 582 594 658 551 q 401 636 506 636 q 219 594 299 636 q 97 478 140 551 q 53 311 53 404 m 249 310 q 268 396 249 358 q 321 456 288 433 q 396 478 354 478 q 475 456 442 478 q 526 396 508 433 q 544 310 544 358 q 526 224 544 263 q 475 164 508 186 q 396 142 442 142 q 321 164 354 142 q 268 224 288 186 q 249 310 249 263 m 507 675 q 581 703 549 675 q 629 778 614 731 q 635 886 644 826 l 538 886 q 534 822 539 853 q 503 790 529 790 q 469 803 486 790 q 433 832 453 815 q 382 871 410 851 q 319 890 354 890 q 230 860 265 890 q 178 781 194 829 q 169 678 163 732 l 267 678 q 267 719 264 699 q 280 754 269 740 q 308 768 290 768 q 340 758 325 768 q 369 736 354 749 q 428 695 396 715 q 507 675 460 675 "},"ȭ":{"ha":793,"x_min":53,"x_max":740,"o":"m 53 311 q 97 135 53 208 q 220 22 142 61 q 399 -17 299 -17 q 582 26 506 -17 q 699 144 658 69 q 740 311 740 218 q 699 478 740 404 q 582 594 658 551 q 401 636 506 636 q 219 594 299 636 q 97 478 140 551 q 53 311 53 404 m 249 310 q 268 396 249 358 q 321 456 288 433 q 396 478 354 478 q 475 456 442 478 q 526 396 508 433 q 544 310 544 358 q 526 224 544 263 q 475 164 508 186 q 396 142 442 142 q 321 164 354 142 q 268 224 288 186 q 249 310 249 263 m 507 675 q 581 703 549 675 q 629 778 614 731 q 635 886 644 826 l 538 886 q 534 822 539 853 q 503 790 529 790 q 469 803 486 790 q 433 832 453 815 q 382 871 410 851 q 319 890 354 890 q 230 860 265 890 q 178 781 194 829 q 169 678 163 732 l 267 678 q 267 719 264 699 q 280 754 269 740 q 308 768 290 768 q 340 758 325 768 q 369 736 354 749 q 428 695 396 715 q 507 675 460 675 m 240 1099 l 240 964 l 594 964 l 594 1099 l 240 1099 "},"œ":{"ha":1188,"x_min":53,"x_max":1146,"o":"m 615 54 l 518 176 q 472 151 499 160 q 413 142 444 142 q 326 163 363 142 q 268 222 289 185 q 247 304 247 260 q 267 388 247 351 q 319 444 286 424 q 393 465 353 465 q 473 449 439 465 q 526 418 507 433 l 621 543 q 517 601 578 579 q 375 624 457 624 q 219 586 293 624 q 99 477 144 549 q 53 304 53 406 q 95 131 53 203 q 215 22 138 60 q 396 -17 292 -17 q 515 3 454 -17 q 615 54 575 22 m 818 -17 q 924 0 868 -17 q 1029 44 981 17 l 943 189 q 884 160 914 171 q 822 149 854 149 q 742 168 778 149 q 685 226 706 188 q 664 321 664 264 q 681 408 664 371 q 731 465 699 444 q 807 485 764 485 q 892 458 864 485 q 932 394 921 431 l 972 413 l 631 297 l 674 192 l 1146 342 q 1037 560 1121 485 q 822 636 953 636 q 646 592 725 636 q 519 475 567 549 q 472 310 472 401 q 513 140 472 214 q 630 25 553 67 q 818 -17 707 -17 "},"p":{"ha":867,"x_min":100,"x_max":814,"o":"m 481 -17 q 653 21 578 -17 q 771 131 728 58 q 814 306 814 203 q 776 484 814 410 q 671 598 738 558 q 519 638 604 638 q 385 611 443 638 q 279 544 326 585 l 294 503 l 267 621 l 100 621 l 100 -292 l 293 -292 l 293 118 l 288 61 q 374 3 322 24 q 481 -17 426 -17 m 442 136 q 377 148 407 136 q 326 182 347 160 q 294 233 306 204 l 294 382 q 334 433 311 413 q 387 463 357 453 q 456 474 417 474 q 537 452 500 474 q 595 392 574 431 q 617 303 617 354 q 592 216 617 254 q 528 157 568 178 q 442 136 489 136 "},"þ":{"ha":868,"x_min":104,"x_max":818,"o":"m 485 -17 q 657 21 582 -17 q 775 131 732 58 q 818 306 818 203 q 780 484 818 410 q 675 598 742 558 q 524 638 608 638 q 431 625 474 638 q 351 592 388 613 q 283 544 315 571 l 299 503 l 299 1096 l 104 1096 l 104 -292 l 297 -292 l 297 118 l 297 57 q 351 16 321 32 q 415 -8 381 0 q 485 -17 449 -17 m 446 136 q 381 148 411 136 q 331 182 351 160 q 299 233 310 204 l 299 382 q 338 433 315 413 q 391 463 361 453 q 460 474 421 474 q 540 451 503 474 q 599 390 576 429 q 621 303 621 351 q 597 217 621 254 q 533 158 572 179 q 446 136 493 136 "},"q":{"ha":867,"x_min":53,"x_max":767,"o":"m 342 -17 q 480 4 419 -17 q 576 56 540 25 l 574 118 l 574 -292 l 767 -292 l 767 621 l 572 621 l 572 503 l 588 544 q 497 612 549 586 q 368 638 446 638 q 213 597 285 638 q 97 483 142 557 q 53 304 53 408 q 92 130 53 201 q 198 21 132 58 q 342 -17 264 -17 m 411 136 q 331 158 368 136 q 272 217 294 179 q 250 303 250 254 q 272 390 250 351 q 331 451 294 429 q 411 474 368 474 q 480 463 450 474 q 533 433 510 453 q 572 382 556 413 l 572 233 q 538 182 561 204 q 483 148 515 160 q 411 136 450 136 "},"r":{"ha":569,"x_min":100,"x_max":521,"o":"m 275 607 l 100 607 l 100 0 l 293 0 l 293 238 q 319 340 293 290 q 394 421 346 390 q 511 443 443 451 l 521 638 q 452 617 497 638 q 361 558 407 596 q 289 465 315 519 l 293 440 l 275 607 "},"ŕ":{"ha":569,"x_min":100,"x_max":521,"o":"m 275 607 l 100 607 l 100 0 l 293 0 l 293 238 q 319 340 293 290 q 394 421 346 390 q 511 443 443 451 l 521 638 q 452 617 497 638 q 361 558 407 596 q 289 465 315 519 l 293 440 l 275 607 m 474 867 l 258 867 l 150 679 l 268 679 l 474 867 "},"ř":{"ha":569,"x_min":24,"x_max":544,"o":"m 275 607 l 100 607 l 100 0 l 293 0 l 293 238 q 319 340 293 290 q 394 421 346 390 q 511 443 443 451 l 521 638 q 452 617 497 638 q 361 558 407 596 q 289 465 315 519 l 293 440 l 275 607 m 199 935 l 24 935 l 286 679 l 288 679 l 544 935 l 369 935 l 260 818 l 307 832 l 199 935 "},"ŗ":{"ha":569,"x_min":43,"x_max":521,"o":"m 275 607 l 100 607 l 100 0 l 293 0 l 293 238 q 319 340 293 290 q 394 421 346 390 q 511 443 443 451 l 521 638 q 452 617 497 638 q 361 558 407 596 q 289 465 315 519 l 293 440 l 275 607 m 143 -297 q 213 -224 185 -269 q 255 -130 242 -179 q 260 -42 268 -81 l 90 -40 q 87 -145 100 -89 q 43 -231 74 -201 l 143 -297 "},"ȑ":{"ha":569,"x_min":-78,"x_max":521,"o":"m 275 607 l 100 607 l 100 0 l 293 0 l 293 238 q 319 340 293 290 q 394 421 346 390 q 511 443 443 451 l 521 638 q 452 617 497 638 q 361 558 407 596 q 289 465 315 519 l 293 440 l 275 607 m -78 867 l 106 679 l 224 679 l 138 867 l -78 867 m 158 867 l 342 679 l 460 679 l 374 867 l 158 867 "},"ȓ":{"ha":569,"x_min":43,"x_max":521,"o":"m 275 607 l 100 607 l 100 0 l 293 0 l 293 238 q 319 340 293 290 q 394 421 346 390 q 511 443 443 451 l 521 638 q 452 617 497 638 q 361 558 407 596 q 289 465 315 519 l 293 440 l 275 607 m 275 913 q 165 885 211 913 q 88 801 118 858 q 43 653 58 743 l 172 653 q 192 722 181 693 q 223 767 203 751 q 275 783 243 783 q 328 767 308 783 q 359 722 347 751 q 379 653 371 693 l 508 653 q 463 798 493 740 q 387 884 433 856 q 275 913 340 913 "},"s":{"ha":621,"x_min":49,"x_max":558,"o":"m 297 -12 q 444 18 386 -12 q 530 98 501 49 q 558 203 558 147 q 541 281 558 249 q 492 338 524 314 q 415 375 460 361 q 350 394 383 386 q 295 418 317 403 q 275 460 274 433 q 285 483 275 472 q 312 501 294 494 q 354 507 329 508 q 415 491 382 506 q 474 456 447 476 l 547 569 q 447 619 500 604 q 318 635 394 635 q 180 603 233 635 q 102 526 126 572 q 78 433 78 479 q 115 323 78 374 q 235 246 151 272 q 297 227 268 236 q 345 204 326 218 q 364 167 364 190 q 353 140 364 150 q 323 124 342 129 q 281 119 304 119 q 212 137 250 119 q 129 194 174 154 l 49 88 q 158 14 93 40 q 297 -12 222 -12 "},"ś":{"ha":621,"x_min":49,"x_max":558,"o":"m 297 -12 q 444 18 386 -12 q 530 98 501 49 q 558 203 558 147 q 541 281 558 249 q 492 338 524 314 q 415 375 460 361 q 350 394 383 386 q 295 418 317 403 q 275 460 274 433 q 285 483 275 472 q 312 501 294 494 q 354 507 329 508 q 415 491 382 506 q 474 456 447 476 l 547 569 q 447 619 500 604 q 318 635 394 635 q 180 603 233 635 q 102 526 126 572 q 78 433 78 479 q 115 323 78 374 q 235 246 151 272 q 297 227 268 236 q 345 204 326 218 q 364 167 364 190 q 353 140 364 150 q 323 124 342 129 q 281 119 304 119 q 212 137 250 119 q 129 194 174 154 l 49 88 q 158 14 93 40 q 297 -12 222 -12 m 517 881 l 301 881 l 193 693 l 311 693 l 517 881 "},"š":{"ha":621,"x_min":49,"x_max":588,"o":"m 297 -12 q 444 18 386 -12 q 530 98 501 49 q 558 203 558 147 q 541 281 558 249 q 492 338 524 314 q 415 375 460 361 q 350 394 383 386 q 295 418 317 403 q 275 460 274 433 q 285 483 275 472 q 312 501 294 494 q 354 507 329 508 q 415 491 382 506 q 474 456 447 476 l 547 569 q 447 619 500 604 q 318 635 394 635 q 180 603 233 635 q 102 526 126 572 q 78 433 78 479 q 115 323 78 374 q 235 246 151 272 q 297 227 268 236 q 345 204 326 218 q 364 167 364 190 q 353 140 364 150 q 323 124 342 129 q 281 119 304 119 q 212 137 250 119 q 129 194 174 154 l 49 88 q 158 14 93 40 q 297 -12 222 -12 m 242 949 l 67 949 l 329 693 l 331 693 l 588 949 l 413 949 l 303 832 l 350 846 l 242 949 "},"ş":{"ha":621,"x_min":49,"x_max":558,"o":"m 297 -12 q 444 18 386 -12 q 530 98 501 49 q 558 203 558 147 q 541 281 558 249 q 492 338 524 314 q 415 375 460 361 q 350 394 383 386 q 295 418 317 403 q 275 460 274 433 q 285 483 275 472 q 312 501 294 494 q 354 507 329 508 q 415 491 382 506 q 474 456 447 476 l 547 569 q 447 619 500 604 q 318 635 394 635 q 180 603 233 635 q 102 526 126 572 q 78 433 78 479 q 115 323 78 374 q 235 246 151 272 q 297 227 268 236 q 345 204 326 218 q 364 167 364 190 q 353 140 364 150 q 323 124 342 129 q 281 119 304 119 q 212 137 250 119 q 129 194 174 154 l 49 88 q 158 14 93 40 q 297 -12 222 -12 m 192 -203 l 132 -279 q 194 -323 156 -304 q 294 -342 233 -342 q 399 -325 350 -342 q 480 -274 449 -308 q 511 -187 511 -240 q 458 -90 511 -122 q 326 -61 404 -58 q 298 -64 313 -62 q 268 -68 283 -65 l 304 -117 l 411 3 l 263 3 l 167 -68 l 193 -160 q 233 -149 213 -154 q 276 -144 254 -144 q 336 -160 322 -144 q 350 -190 350 -175 q 324 -228 350 -215 q 275 -240 299 -240 q 227 -230 249 -240 q 192 -203 206 -219 "},"ŝ":{"ha":621,"x_min":49,"x_max":571,"o":"m 297 -12 q 444 18 386 -12 q 530 98 501 49 q 558 203 558 147 q 541 281 558 249 q 492 338 524 314 q 415 375 460 361 q 350 394 383 386 q 295 418 317 403 q 275 460 274 433 q 285 483 275 472 q 312 501 294 494 q 354 507 329 508 q 415 491 382 506 q 474 456 447 476 l 547 569 q 447 619 500 604 q 318 635 394 635 q 180 603 233 635 q 102 526 126 572 q 78 433 78 479 q 115 323 78 374 q 235 246 151 272 q 297 227 268 236 q 345 204 326 218 q 364 167 364 190 q 353 140 364 150 q 323 124 342 129 q 281 119 304 119 q 212 137 250 119 q 129 194 174 154 l 49 88 q 158 14 93 40 q 297 -12 222 -12 m 396 693 l 571 693 l 308 949 l 307 949 l 50 693 l 225 693 l 335 810 l 288 796 l 396 693 "},"ș":{"ha":621,"x_min":49,"x_max":558,"o":"m 297 -12 q 444 18 386 -12 q 530 98 501 49 q 558 203 558 147 q 541 281 558 249 q 492 338 524 314 q 415 375 460 361 q 350 394 383 386 q 295 418 317 403 q 275 460 274 433 q 285 483 275 472 q 312 501 294 494 q 354 507 329 508 q 415 491 382 506 q 474 456 447 476 l 547 569 q 447 619 500 604 q 318 635 394 635 q 180 603 233 635 q 102 526 126 572 q 78 433 78 479 q 115 323 78 374 q 235 246 151 272 q 297 227 268 236 q 345 204 326 218 q 364 167 364 190 q 353 140 364 150 q 323 124 342 129 q 281 119 304 119 q 212 137 250 119 q 129 194 174 154 l 49 88 q 158 14 93 40 q 297 -12 222 -12 m 271 -311 q 341 -238 313 -283 q 383 -144 369 -193 q 388 -56 396 -94 l 218 -54 q 215 -159 228 -103 q 171 -244 201 -215 l 271 -311 "}}}
